<svg version="1.1" xmlns="http://www.w3.org/2000/svg" xmlns:xlink="http://www.w3.org/1999/xlink" stroke-linecap="round" stroke-linejoin="round" stroke-width="0" fill-rule="evenodd" clip-rule="evenodd" id="lCpLQ-624iJw4kLatod0_bottom" viewBox="152400 -114300 12700 12700" width="12.7mm" height="12.7mm" class="w-100 h-100"><defs><style>.lCpLQ-624iJw4kLatod0_fr4 {color: #666666;}
.lCpLQ-624iJw4kLatod0_cu {color: #cccccc;}
.lCpLQ-624iJw4kLatod0_cf {color: #cc9933;}
.lCpLQ-624iJw4kLatod0_sm {color: #4b0082; opacity: 0.75;}
.lCpLQ-624iJw4kLatod0_ss {color: #ffffff;}
.lCpLQ-624iJw4kLatod0_sp {color: #999999;}
.lCpLQ-624iJw4kLatod0_out {color: #000000;}</style><circle cx="0" cy="0" r="712.5" id="EG-AlwmFH-GzvUCTtHs0_pad-11"/><rect x="-850" y="-850" width="1700" height="1700" id="EG-AlwmFH-GzvUCTtHs0_pad-12"/><rect x="-850" y="-850" width="1700" height="1700" rx="850" ry="850" id="EG-AlwmFH-GzvUCTtHs0_pad-13"/><circle cx="0" cy="0" r="575" id="EG-AlwmFH-GzvUCTtHs0_pad-14"/><circle cx="0" cy="0" r="712.5" id="o2tRfAC2OeeCPf-jkxp0_pad-11"/><circle cx="0" cy="0" r="575" id="o2tRfAC2OeeCPf-jkxp0_pad-12"/><circle cx="0" cy="0" r="19.7" id="ZC3ly6M5eM9GSjbbF7A4_pad-1"/><g id="lCpLQ-624iJw4kLatod0_bottom_copper"><path d="M 164040.935 -102758.372 164068.601 -102762.476 164095.731 -102769.272 164122.065 -102778.694 164147.348 -102790.652 164171.338 -102805.031 164193.802 -102821.692 164214.525 -102840.475 164233.308 -102861.198 164249.969 -102883.662 164264.348 -102907.652 164276.306 -102932.935 164285.728 -102959.269 164292.524 -102986.399 164296.628 -103014.065 164298 -103042 164298 -104222 164296.628 -104249.935 164292.524 -104277.601 164285.728 -104304.731 164276.306 -104331.065 164264.348 -104356.348 164249.969 -104380.338 164233.308 -104402.802 164214.525 -104423.525 164193.802 -104442.308 164171.338 -104458.969 164147.348 -104473.348 164122.065 -104485.306 164095.731 -104494.728 164068.601 -104501.524 164040.935 -104505.628 164013 -104507 163158 -104507 163130.065 -104505.628 163102.399 -104501.524 163075.269 -104494.728 163048.935 -104485.306 163023.652 -104473.348 162999.662 -104458.969 162977.198 -104442.308 162956.475 -104423.525 162937.692 -104402.802 162921.031 -104380.338 162906.652 -104356.348 162894.694 -104331.065 162885.272 -104304.731 162878.476 -104277.601 162874.372 -104249.935 162873 -104222 162873 -103042 162874.372 -103014.065 162878.476 -102986.399 162885.272 -102959.269 162894.694 -102932.935 162906.652 -102907.652 162921.031 -102883.662 162937.692 -102861.198 162956.475 -102840.475 162977.198 -102821.692 162999.662 -102805.031 163023.652 -102790.652 163048.935 -102778.694 163075.269 -102769.272 163102.399 -102762.476 163130.065 -102758.372 163158 -102757 164013 -102757 164040.935 -102758.372 164040.935 -102758.372"/><use xlink:href="#EG-AlwmFH-GzvUCTtHs0_pad-11" x="163585.5" y="-103632"/><path d="M 160465.935 -102758.372 160493.601 -102762.476 160520.731 -102769.272 160547.065 -102778.694 160572.348 -102790.652 160596.338 -102805.031 160618.802 -102821.692 160639.525 -102840.475 160658.308 -102861.198 160674.969 -102883.662 160689.348 -102907.652 160701.306 -102932.935 160710.728 -102959.269 160717.524 -102986.399 160721.628 -103014.065 160723 -103042 160723 -104222 160721.628 -104249.935 160717.524 -104277.601 160710.728 -104304.731 160701.306 -104331.065 160689.348 -104356.348 160674.969 -104380.338 160658.308 -104402.802 160639.525 -104423.525 160618.802 -104442.308 160596.338 -104458.969 160572.348 -104473.348 160547.065 -104485.306 160520.731 -104494.728 160493.601 -104501.524 160465.935 -104505.628 160438 -104507 159583 -104507 159555.065 -104505.628 159527.399 -104501.524 159500.269 -104494.728 159473.935 -104485.306 159448.652 -104473.348 159424.662 -104458.969 159402.198 -104442.308 159381.475 -104423.525 159362.692 -104402.802 159346.031 -104380.338 159331.652 -104356.348 159319.694 -104331.065 159310.272 -104304.731 159303.476 -104277.601 159299.372 -104249.935 159298 -104222 159298 -103042 159299.372 -103014.065 159303.476 -102986.399 159310.272 -102959.269 159319.694 -102932.935 159331.652 -102907.652 159346.031 -102883.662 159362.692 -102861.198 159381.475 -102840.475 159402.198 -102821.692 159424.662 -102805.031 159448.652 -102790.652 159473.935 -102778.694 159500.269 -102769.272 159527.399 -102762.476 159555.065 -102758.372 159583 -102757 160438 -102757 160465.935 -102758.372 160465.935 -102758.372"/><use xlink:href="#EG-AlwmFH-GzvUCTtHs0_pad-11" x="160010.5" y="-103632"/><path d="M 160465.935 -105806.372 160493.601 -105810.476 160520.731 -105817.272 160547.065 -105826.694 160572.348 -105838.652 160596.338 -105853.031 160618.802 -105869.692 160639.525 -105888.475 160658.308 -105909.198 160674.969 -105931.662 160689.348 -105955.652 160701.306 -105980.935 160710.728 -106007.269 160717.524 -106034.399 160721.628 -106062.065 160723 -106090 160723 -107270 160721.628 -107297.935 160717.524 -107325.601 160710.728 -107352.731 160701.306 -107379.065 160689.348 -107404.348 160674.969 -107428.338 160658.308 -107450.802 160639.525 -107471.525 160618.802 -107490.308 160596.338 -107506.969 160572.348 -107521.348 160547.065 -107533.306 160520.731 -107542.728 160493.601 -107549.524 160465.935 -107553.628 160438 -107555 159583 -107555 159555.065 -107553.628 159527.399 -107549.524 159500.269 -107542.728 159473.935 -107533.306 159448.652 -107521.348 159424.662 -107506.969 159402.198 -107490.308 159381.475 -107471.525 159362.692 -107450.802 159346.031 -107428.338 159331.652 -107404.348 159319.694 -107379.065 159310.272 -107352.731 159303.476 -107325.601 159299.372 -107297.935 159298 -107270 159298 -106090 159299.372 -106062.065 159303.476 -106034.399 159310.272 -106007.269 159319.694 -105980.935 159331.652 -105955.652 159346.031 -105931.662 159362.692 -105909.198 159381.475 -105888.475 159402.198 -105869.692 159424.662 -105853.031 159448.652 -105838.652 159473.935 -105826.694 159500.269 -105817.272 159527.399 -105810.476 159555.065 -105806.372 159583 -105805 160438 -105805 160465.935 -105806.372 160465.935 -105806.372"/><use xlink:href="#EG-AlwmFH-GzvUCTtHs0_pad-11" x="160010.5" y="-106680"/><path d="M 164040.935 -105806.372 164068.601 -105810.476 164095.731 -105817.272 164122.065 -105826.694 164147.348 -105838.652 164171.338 -105853.031 164193.802 -105869.692 164214.525 -105888.475 164233.308 -105909.198 164249.969 -105931.662 164264.348 -105955.652 164276.306 -105980.935 164285.728 -106007.269 164292.524 -106034.399 164296.628 -106062.065 164298 -106090 164298 -107270 164296.628 -107297.935 164292.524 -107325.601 164285.728 -107352.731 164276.306 -107379.065 164264.348 -107404.348 164249.969 -107428.338 164233.308 -107450.802 164214.525 -107471.525 164193.802 -107490.308 164171.338 -107506.969 164147.348 -107521.348 164122.065 -107533.306 164095.731 -107542.728 164068.601 -107549.524 164040.935 -107553.628 164013 -107555 163158 -107555 163130.065 -107553.628 163102.399 -107549.524 163075.269 -107542.728 163048.935 -107533.306 163023.652 -107521.348 162999.662 -107506.969 162977.198 -107490.308 162956.475 -107471.525 162937.692 -107450.802 162921.031 -107428.338 162906.652 -107404.348 162894.694 -107379.065 162885.272 -107352.731 162878.476 -107325.601 162874.372 -107297.935 162873 -107270 162873 -106090 162874.372 -106062.065 162878.476 -106034.399 162885.272 -106007.269 162894.694 -105980.935 162906.652 -105955.652 162921.031 -105931.662 162937.692 -105909.198 162956.475 -105888.475 162977.198 -105869.692 162999.662 -105853.031 163023.652 -105838.652 163048.935 -105826.694 163075.269 -105817.272 163102.399 -105810.476 163130.065 -105806.372 163158 -105805 164013 -105805 164040.935 -105806.372 164040.935 -105806.372"/><use xlink:href="#EG-AlwmFH-GzvUCTtHs0_pad-11" x="163585.5" y="-106680"/><use xlink:href="#EG-AlwmFH-GzvUCTtHs0_pad-12" x="154178" y="-103378"/><use xlink:href="#EG-AlwmFH-GzvUCTtHs0_pad-13" x="156718" y="-103378"/><path d="M 154518.505 -105473.204 154542.773 -105476.804 154566.572 -105482.765 154589.671 -105491.03 154611.85 -105501.52 154632.893 -105514.132 154652.599 -105528.747 154670.777 -105545.223 154687.253 -105563.401 154701.868 -105583.107 154714.48 -105604.15 154724.97 -105626.329 154733.235 -105649.428 154739.196 -105673.227 154742.796 -105697.495 154744 -105721.999 154744 -106622.001 154742.796 -106646.505 154739.196 -106670.773 154733.235 -106694.572 154724.97 -106717.671 154714.48 -106739.85 154701.868 -106760.893 154687.253 -106780.599 154670.777 -106798.777 154652.599 -106815.253 154632.893 -106829.868 154611.85 -106842.48 154589.671 -106852.97 154566.572 -106861.235 154542.773 -106867.196 154518.505 -106870.796 154494.001 -106872 153843.999 -106872 153819.495 -106870.796 153795.227 -106867.196 153771.428 -106861.235 153748.329 -106852.97 153726.15 -106842.48 153705.107 -106829.868 153685.401 -106815.253 153667.223 -106798.777 153650.747 -106780.599 153636.132 -106760.893 153623.52 -106739.85 153613.03 -106717.671 153604.765 -106694.572 153598.804 -106670.773 153595.204 -106646.505 153594 -106622.001 153594 -105721.999 153595.204 -105697.495 153598.804 -105673.227 153604.765 -105649.428 153613.03 -105626.329 153623.52 -105604.15 153636.132 -105583.107 153650.747 -105563.401 153667.223 -105545.223 153685.401 -105528.747 153705.107 -105514.132 153726.15 -105501.52 153748.329 -105491.03 153771.428 -105482.765 153795.227 -105476.804 153819.495 -105473.204 153843.999 -105472 154494.001 -105472 154518.505 -105473.204 154518.505 -105473.204"/><use xlink:href="#EG-AlwmFH-GzvUCTtHs0_pad-14" x="154169" y="-106172"/><path d="M 156568.505 -105473.204 156592.773 -105476.804 156616.572 -105482.765 156639.671 -105491.03 156661.85 -105501.52 156682.893 -105514.132 156702.599 -105528.747 156720.777 -105545.223 156737.253 -105563.401 156751.868 -105583.107 156764.48 -105604.15 156774.97 -105626.329 156783.235 -105649.428 156789.196 -105673.227 156792.796 -105697.495 156794 -105721.999 156794 -106622.001 156792.796 -106646.505 156789.196 -106670.773 156783.235 -106694.572 156774.97 -106717.671 156764.48 -106739.85 156751.868 -106760.893 156737.253 -106780.599 156720.777 -106798.777 156702.599 -106815.253 156682.893 -106829.868 156661.85 -106842.48 156639.671 -106852.97 156616.572 -106861.235 156592.773 -106867.196 156568.505 -106870.796 156544.001 -106872 155893.999 -106872 155869.495 -106870.796 155845.227 -106867.196 155821.428 -106861.235 155798.329 -106852.97 155776.15 -106842.48 155755.107 -106829.868 155735.401 -106815.253 155717.223 -106798.777 155700.747 -106780.599 155686.132 -106760.893 155673.52 -106739.85 155663.03 -106717.671 155654.765 -106694.572 155648.804 -106670.773 155645.204 -106646.505 155644 -106622.001 155644 -105721.999 155645.204 -105697.495 155648.804 -105673.227 155654.765 -105649.428 155663.03 -105626.329 155673.52 -105604.15 155686.132 -105583.107 155700.747 -105563.401 155717.223 -105545.223 155735.401 -105528.747 155755.107 -105514.132 155776.15 -105501.52 155798.329 -105491.03 155821.428 -105482.765 155845.227 -105476.804 155869.495 -105473.204 155893.999 -105472 156544.001 -105472 156568.505 -105473.204 156568.505 -105473.204"/><use xlink:href="#EG-AlwmFH-GzvUCTtHs0_pad-14" x="156219" y="-106172"/><path d="M 156568.505 -107759.204 156592.773 -107762.804 156616.572 -107768.765 156639.671 -107777.03 156661.85 -107787.52 156682.893 -107800.132 156702.599 -107814.747 156720.777 -107831.223 156737.253 -107849.401 156751.868 -107869.107 156764.48 -107890.15 156774.97 -107912.329 156783.235 -107935.428 156789.196 -107959.227 156792.796 -107983.495 156794 -108007.999 156794 -108908.001 156792.796 -108932.505 156789.196 -108956.773 156783.235 -108980.572 156774.97 -109003.671 156764.48 -109025.85 156751.868 -109046.893 156737.253 -109066.599 156720.777 -109084.777 156702.599 -109101.253 156682.893 -109115.868 156661.85 -109128.48 156639.671 -109138.97 156616.572 -109147.235 156592.773 -109153.196 156568.505 -109156.796 156544.001 -109158 155893.999 -109158 155869.495 -109156.796 155845.227 -109153.196 155821.428 -109147.235 155798.329 -109138.97 155776.15 -109128.48 155755.107 -109115.868 155735.401 -109101.253 155717.223 -109084.777 155700.747 -109066.599 155686.132 -109046.893 155673.52 -109025.85 155663.03 -109003.671 155654.765 -108980.572 155648.804 -108956.773 155645.204 -108932.505 155644 -108908.001 155644 -108007.999 155645.204 -107983.495 155648.804 -107959.227 155654.765 -107935.428 155663.03 -107912.329 155673.52 -107890.15 155686.132 -107869.107 155700.747 -107849.401 155717.223 -107831.223 155735.401 -107814.747 155755.107 -107800.132 155776.15 -107787.52 155798.329 -107777.03 155821.428 -107768.765 155845.227 -107762.804 155869.495 -107759.204 155893.999 -107758 156544.001 -107758 156568.505 -107759.204 156568.505 -107759.204"/><use xlink:href="#EG-AlwmFH-GzvUCTtHs0_pad-14" x="156219" y="-108458"/><path d="M 154518.505 -107759.204 154542.773 -107762.804 154566.572 -107768.765 154589.671 -107777.03 154611.85 -107787.52 154632.893 -107800.132 154652.599 -107814.747 154670.777 -107831.223 154687.253 -107849.401 154701.868 -107869.107 154714.48 -107890.15 154724.97 -107912.329 154733.235 -107935.428 154739.196 -107959.227 154742.796 -107983.495 154744 -108007.999 154744 -108908.001 154742.796 -108932.505 154739.196 -108956.773 154733.235 -108980.572 154724.97 -109003.671 154714.48 -109025.85 154701.868 -109046.893 154687.253 -109066.599 154670.777 -109084.777 154652.599 -109101.253 154632.893 -109115.868 154611.85 -109128.48 154589.671 -109138.97 154566.572 -109147.235 154542.773 -109153.196 154518.505 -109156.796 154494.001 -109158 153843.999 -109158 153819.495 -109156.796 153795.227 -109153.196 153771.428 -109147.235 153748.329 -109138.97 153726.15 -109128.48 153705.107 -109115.868 153685.401 -109101.253 153667.223 -109084.777 153650.747 -109066.599 153636.132 -109046.893 153623.52 -109025.85 153613.03 -109003.671 153604.765 -108980.572 153598.804 -108956.773 153595.204 -108932.505 153594 -108908.001 153594 -108007.999 153595.204 -107983.495 153598.804 -107959.227 153604.765 -107935.428 153613.03 -107912.329 153623.52 -107890.15 153636.132 -107869.107 153650.747 -107849.401 153667.223 -107831.223 153685.401 -107814.747 153705.107 -107800.132 153726.15 -107787.52 153748.329 -107777.03 153771.428 -107768.765 153795.227 -107762.804 153819.495 -107759.204 153843.999 -107758 154494.001 -107758 154518.505 -107759.204 154518.505 -107759.204"/><use xlink:href="#EG-AlwmFH-GzvUCTtHs0_pad-14" x="154169" y="-108458"/><path d="M 164040.935 -108854.372 164068.601 -108858.476 164095.731 -108865.272 164122.065 -108874.694 164147.348 -108886.652 164171.338 -108901.031 164193.802 -108917.692 164214.525 -108936.475 164233.308 -108957.198 164249.969 -108979.662 164264.348 -109003.652 164276.306 -109028.935 164285.728 -109055.269 164292.524 -109082.399 164296.628 -109110.065 164298 -109138 164298 -110318 164296.628 -110345.935 164292.524 -110373.601 164285.728 -110400.731 164276.306 -110427.065 164264.348 -110452.348 164249.969 -110476.338 164233.308 -110498.802 164214.525 -110519.525 164193.802 -110538.308 164171.338 -110554.969 164147.348 -110569.348 164122.065 -110581.306 164095.731 -110590.728 164068.601 -110597.524 164040.935 -110601.628 164013 -110603 163158 -110603 163130.065 -110601.628 163102.399 -110597.524 163075.269 -110590.728 163048.935 -110581.306 163023.652 -110569.348 162999.662 -110554.969 162977.198 -110538.308 162956.475 -110519.525 162937.692 -110498.802 162921.031 -110476.338 162906.652 -110452.348 162894.694 -110427.065 162885.272 -110400.731 162878.476 -110373.601 162874.372 -110345.935 162873 -110318 162873 -109138 162874.372 -109110.065 162878.476 -109082.399 162885.272 -109055.269 162894.694 -109028.935 162906.652 -109003.652 162921.031 -108979.662 162937.692 -108957.198 162956.475 -108936.475 162977.198 -108917.692 162999.662 -108901.031 163023.652 -108886.652 163048.935 -108874.694 163075.269 -108865.272 163102.399 -108858.476 163130.065 -108854.372 163158 -108853 164013 -108853 164040.935 -108854.372 164040.935 -108854.372"/><use xlink:href="#EG-AlwmFH-GzvUCTtHs0_pad-11" x="163585.5" y="-109728"/><path d="M 160465.935 -108854.372 160493.601 -108858.476 160520.731 -108865.272 160547.065 -108874.694 160572.348 -108886.652 160596.338 -108901.031 160618.802 -108917.692 160639.525 -108936.475 160658.308 -108957.198 160674.969 -108979.662 160689.348 -109003.652 160701.306 -109028.935 160710.728 -109055.269 160717.524 -109082.399 160721.628 -109110.065 160723 -109138 160723 -110318 160721.628 -110345.935 160717.524 -110373.601 160710.728 -110400.731 160701.306 -110427.065 160689.348 -110452.348 160674.969 -110476.338 160658.308 -110498.802 160639.525 -110519.525 160618.802 -110538.308 160596.338 -110554.969 160572.348 -110569.348 160547.065 -110581.306 160520.731 -110590.728 160493.601 -110597.524 160465.935 -110601.628 160438 -110603 159583 -110603 159555.065 -110601.628 159527.399 -110597.524 159500.269 -110590.728 159473.935 -110581.306 159448.652 -110569.348 159424.662 -110554.969 159402.198 -110538.308 159381.475 -110519.525 159362.692 -110498.802 159346.031 -110476.338 159331.652 -110452.348 159319.694 -110427.065 159310.272 -110400.731 159303.476 -110373.601 159299.372 -110345.935 159298 -110318 159298 -109138 159299.372 -109110.065 159303.476 -109082.399 159310.272 -109055.269 159319.694 -109028.935 159331.652 -109003.652 159346.031 -108979.662 159362.692 -108957.198 159381.475 -108936.475 159402.198 -108917.692 159424.662 -108901.031 159448.652 -108886.652 159473.935 -108874.694 159500.269 -108865.272 159527.399 -108858.476 159555.065 -108854.372 159583 -108853 160438 -108853 160465.935 -108854.372 160465.935 -108854.372"/><use xlink:href="#EG-AlwmFH-GzvUCTtHs0_pad-11" x="160010.5" y="-109728"/><path d="M 160465.935 -111902.372 160493.601 -111906.476 160520.731 -111913.272 160547.065 -111922.694 160572.348 -111934.652 160596.338 -111949.031 160618.802 -111965.692 160639.525 -111984.475 160658.308 -112005.198 160674.969 -112027.662 160689.348 -112051.652 160701.306 -112076.935 160710.728 -112103.269 160717.524 -112130.399 160721.628 -112158.065 160723 -112186 160723 -113366 160721.628 -113393.935 160717.524 -113421.601 160710.728 -113448.731 160701.306 -113475.065 160689.348 -113500.348 160674.969 -113524.338 160658.308 -113546.802 160639.525 -113567.525 160618.802 -113586.308 160596.338 -113602.969 160572.348 -113617.348 160547.065 -113629.306 160520.731 -113638.728 160493.601 -113645.524 160465.935 -113649.628 160438 -113651 159583 -113651 159555.065 -113649.628 159527.399 -113645.524 159500.269 -113638.728 159473.935 -113629.306 159448.652 -113617.348 159424.662 -113602.969 159402.198 -113586.308 159381.475 -113567.525 159362.692 -113546.802 159346.031 -113524.338 159331.652 -113500.348 159319.694 -113475.065 159310.272 -113448.731 159303.476 -113421.601 159299.372 -113393.935 159298 -113366 159298 -112186 159299.372 -112158.065 159303.476 -112130.399 159310.272 -112103.269 159319.694 -112076.935 159331.652 -112051.652 159346.031 -112027.662 159362.692 -112005.198 159381.475 -111984.475 159402.198 -111965.692 159424.662 -111949.031 159448.652 -111934.652 159473.935 -111922.694 159500.269 -111913.272 159527.399 -111906.476 159555.065 -111902.372 159583 -111901 160438 -111901 160465.935 -111902.372 160465.935 -111902.372"/><use xlink:href="#EG-AlwmFH-GzvUCTtHs0_pad-11" x="160010.5" y="-112776"/><path d="M 164040.935 -111902.372 164068.601 -111906.476 164095.731 -111913.272 164122.065 -111922.694 164147.348 -111934.652 164171.338 -111949.031 164193.802 -111965.692 164214.525 -111984.475 164233.308 -112005.198 164249.969 -112027.662 164264.348 -112051.652 164276.306 -112076.935 164285.728 -112103.269 164292.524 -112130.399 164296.628 -112158.065 164298 -112186 164298 -113366 164296.628 -113393.935 164292.524 -113421.601 164285.728 -113448.731 164276.306 -113475.065 164264.348 -113500.348 164249.969 -113524.338 164233.308 -113546.802 164214.525 -113567.525 164193.802 -113586.308 164171.338 -113602.969 164147.348 -113617.348 164122.065 -113629.306 164095.731 -113638.728 164068.601 -113645.524 164040.935 -113649.628 164013 -113651 163158 -113651 163130.065 -113649.628 163102.399 -113645.524 163075.269 -113638.728 163048.935 -113629.306 163023.652 -113617.348 162999.662 -113602.969 162977.198 -113586.308 162956.475 -113567.525 162937.692 -113546.802 162921.031 -113524.338 162906.652 -113500.348 162894.694 -113475.065 162885.272 -113448.731 162878.476 -113421.601 162874.372 -113393.935 162873 -113366 162873 -112186 162874.372 -112158.065 162878.476 -112130.399 162885.272 -112103.269 162894.694 -112076.935 162906.652 -112051.652 162921.031 -112027.662 162937.692 -112005.198 162956.475 -111984.475 162977.198 -111965.692 162999.662 -111949.031 163023.652 -111934.652 163048.935 -111922.694 163075.269 -111913.272 163102.399 -111906.476 163130.065 -111902.372 163158 -111901 164013 -111901 164040.935 -111902.372 164040.935 -111902.372"/><use xlink:href="#EG-AlwmFH-GzvUCTtHs0_pad-11" x="163585.5" y="-112776"/><path d="M 154518.505 -110045.204 154542.773 -110048.804 154566.572 -110054.765 154589.671 -110063.03 154611.85 -110073.52 154632.893 -110086.132 154652.599 -110100.747 154670.777 -110117.223 154687.253 -110135.401 154701.868 -110155.107 154714.48 -110176.15 154724.97 -110198.329 154733.235 -110221.428 154739.196 -110245.227 154742.796 -110269.495 154744 -110293.999 154744 -111194.001 154742.796 -111218.505 154739.196 -111242.773 154733.235 -111266.572 154724.97 -111289.671 154714.48 -111311.85 154701.868 -111332.893 154687.253 -111352.599 154670.777 -111370.777 154652.599 -111387.253 154632.893 -111401.868 154611.85 -111414.48 154589.671 -111424.97 154566.572 -111433.235 154542.773 -111439.196 154518.505 -111442.796 154494.001 -111444 153843.999 -111444 153819.495 -111442.796 153795.227 -111439.196 153771.428 -111433.235 153748.329 -111424.97 153726.15 -111414.48 153705.107 -111401.868 153685.401 -111387.253 153667.223 -111370.777 153650.747 -111352.599 153636.132 -111332.893 153623.52 -111311.85 153613.03 -111289.671 153604.765 -111266.572 153598.804 -111242.773 153595.204 -111218.505 153594 -111194.001 153594 -110293.999 153595.204 -110269.495 153598.804 -110245.227 153604.765 -110221.428 153613.03 -110198.329 153623.52 -110176.15 153636.132 -110155.107 153650.747 -110135.401 153667.223 -110117.223 153685.401 -110100.747 153705.107 -110086.132 153726.15 -110073.52 153748.329 -110063.03 153771.428 -110054.765 153795.227 -110048.804 153819.495 -110045.204 153843.999 -110044 154494.001 -110044 154518.505 -110045.204 154518.505 -110045.204"/><use xlink:href="#EG-AlwmFH-GzvUCTtHs0_pad-14" x="154169" y="-110744"/><path d="M 156568.505 -110045.204 156592.773 -110048.804 156616.572 -110054.765 156639.671 -110063.03 156661.85 -110073.52 156682.893 -110086.132 156702.599 -110100.747 156720.777 -110117.223 156737.253 -110135.401 156751.868 -110155.107 156764.48 -110176.15 156774.97 -110198.329 156783.235 -110221.428 156789.196 -110245.227 156792.796 -110269.495 156794 -110293.999 156794 -111194.001 156792.796 -111218.505 156789.196 -111242.773 156783.235 -111266.572 156774.97 -111289.671 156764.48 -111311.85 156751.868 -111332.893 156737.253 -111352.599 156720.777 -111370.777 156702.599 -111387.253 156682.893 -111401.868 156661.85 -111414.48 156639.671 -111424.97 156616.572 -111433.235 156592.773 -111439.196 156568.505 -111442.796 156544.001 -111444 155893.999 -111444 155869.495 -111442.796 155845.227 -111439.196 155821.428 -111433.235 155798.329 -111424.97 155776.15 -111414.48 155755.107 -111401.868 155735.401 -111387.253 155717.223 -111370.777 155700.747 -111352.599 155686.132 -111332.893 155673.52 -111311.85 155663.03 -111289.671 155654.765 -111266.572 155648.804 -111242.773 155645.204 -111218.505 155644 -111194.001 155644 -110293.999 155645.204 -110269.495 155648.804 -110245.227 155654.765 -110221.428 155663.03 -110198.329 155673.52 -110176.15 155686.132 -110155.107 155700.747 -110135.401 155717.223 -110117.223 155735.401 -110100.747 155755.107 -110086.132 155776.15 -110073.52 155798.329 -110063.03 155821.428 -110054.765 155845.227 -110048.804 155869.495 -110045.204 155893.999 -110044 156544.001 -110044 156568.505 -110045.204 156568.505 -110045.204"/><use xlink:href="#EG-AlwmFH-GzvUCTtHs0_pad-14" x="156219" y="-110744"/><path d="M 156568.505 -112331.204 156592.773 -112334.804 156616.572 -112340.765 156639.671 -112349.03 156661.85 -112359.52 156682.893 -112372.132 156702.599 -112386.747 156720.777 -112403.223 156737.253 -112421.401 156751.868 -112441.107 156764.48 -112462.15 156774.97 -112484.329 156783.235 -112507.428 156789.196 -112531.227 156792.796 -112555.495 156794 -112579.999 156794 -113480.001 156792.796 -113504.505 156789.196 -113528.773 156783.235 -113552.572 156774.97 -113575.671 156764.48 -113597.85 156751.868 -113618.893 156737.253 -113638.599 156720.777 -113656.777 156702.599 -113673.253 156682.893 -113687.868 156661.85 -113700.48 156639.671 -113710.97 156616.572 -113719.235 156592.773 -113725.196 156568.505 -113728.796 156544.001 -113730 155893.999 -113730 155869.495 -113728.796 155845.227 -113725.196 155821.428 -113719.235 155798.329 -113710.97 155776.15 -113700.48 155755.107 -113687.868 155735.401 -113673.253 155717.223 -113656.777 155700.747 -113638.599 155686.132 -113618.893 155673.52 -113597.85 155663.03 -113575.671 155654.765 -113552.572 155648.804 -113528.773 155645.204 -113504.505 155644 -113480.001 155644 -112579.999 155645.204 -112555.495 155648.804 -112531.227 155654.765 -112507.428 155663.03 -112484.329 155673.52 -112462.15 155686.132 -112441.107 155700.747 -112421.401 155717.223 -112403.223 155735.401 -112386.747 155755.107 -112372.132 155776.15 -112359.52 155798.329 -112349.03 155821.428 -112340.765 155845.227 -112334.804 155869.495 -112331.204 155893.999 -112330 156544.001 -112330 156568.505 -112331.204 156568.505 -112331.204"/><use xlink:href="#EG-AlwmFH-GzvUCTtHs0_pad-14" x="156219" y="-113030"/><path d="M 154518.505 -112331.204 154542.773 -112334.804 154566.572 -112340.765 154589.671 -112349.03 154611.85 -112359.52 154632.893 -112372.132 154652.599 -112386.747 154670.777 -112403.223 154687.253 -112421.401 154701.868 -112441.107 154714.48 -112462.15 154724.97 -112484.329 154733.235 -112507.428 154739.196 -112531.227 154742.796 -112555.495 154744 -112579.999 154744 -113480.001 154742.796 -113504.505 154739.196 -113528.773 154733.235 -113552.572 154724.97 -113575.671 154714.48 -113597.85 154701.868 -113618.893 154687.253 -113638.599 154670.777 -113656.777 154652.599 -113673.253 154632.893 -113687.868 154611.85 -113700.48 154589.671 -113710.97 154566.572 -113719.235 154542.773 -113725.196 154518.505 -113728.796 154494.001 -113730 153843.999 -113730 153819.495 -113728.796 153795.227 -113725.196 153771.428 -113719.235 153748.329 -113710.97 153726.15 -113700.48 153705.107 -113687.868 153685.401 -113673.253 153667.223 -113656.777 153650.747 -113638.599 153636.132 -113618.893 153623.52 -113597.85 153613.03 -113575.671 153604.765 -113552.572 153598.804 -113528.773 153595.204 -113504.505 153594 -113480.001 153594 -112579.999 153595.204 -112555.495 153598.804 -112531.227 153604.765 -112507.428 153613.03 -112484.329 153623.52 -112462.15 153636.132 -112441.107 153650.747 -112421.401 153667.223 -112403.223 153685.401 -112386.747 153705.107 -112372.132 153726.15 -112359.52 153748.329 -112349.03 153771.428 -112340.765 153795.227 -112334.804 153819.495 -112331.204 153843.999 -112330 154494.001 -112330 154518.505 -112331.204 154518.505 -112331.204"/><use xlink:href="#EG-AlwmFH-GzvUCTtHs0_pad-14" x="154169" y="-113030"/><path d="M 163585.5 -104607 163585.5 -106680 M 163585.5 -103632 163585.5 -104607 M 163585.5 -106680 163585.5 -109728 163585.5 -112776 M 163585.5 -102371.5 163585.5 -103632 M 157920.081 -103378 159315.801 -101982.28 163196.28 -101982.28 M 156718 -103378 157920.081 -103378 M 163196.28 -101982.28 163585.5 -102371.5 M 156219 -106172 156219 -106163 M 157480 -106172 156219 -106172 M 160010.5 -103641.5 157480 -106172 M 160010.5 -103632 160010.5 -103641.5 M 158232.5 -108458 160010.5 -106680 M 156219 -108458 158232.5 -108458 M 154169 -103387 154178 -103378 M 154178 -106163 154169 -106172 M 154178 -103378 154178 -106163 M 154169 -106172 154169 -108458 154169 -110744 154169 -113030 M 158994.5 -110744 160010.5 -109728 M 156219 -110744 158994.5 -110744 M 159756.5 -113030 156219 -113030 M 160010.5 -112776 159756.5 -113030" fill="none" stroke-width="254"/></g><g id="lCpLQ-624iJw4kLatod0_bottom_soldermask"><path d="M 161984.388 -111538.957 162121.901 -111580.671 162163.615 -111593.325 162246.204 -111637.47 162328.793 -111681.614 162473.57 -111800.43 162592.386 -111945.207 162616.765 -111990.817 162630.596 -112011.518 162648.201 -112029.122 162668.901 -112042.954 162691.902 -112052.481 162716.32 -112057.338 162741.217 -112057.339 162765.635 -112052.482 162788.636 -112042.954 162809.337 -112029.123 162826.941 -112011.518 162840.773 -111990.818 162861.326 -111952.367 162889.742 -111917.742 162924.368 -111889.325 162963.876 -111868.208 163006.74 -111855.205 163057.555 -111850.2 164113.445 -111850.2 164164.26 -111855.205 164207.124 -111868.208 164246.632 -111889.325 164281.258 -111917.742 164309.675 -111952.368 164330.792 -111991.876 164343.795 -112034.74 164348.8 -112085.555 164348.8 -113466.445 164343.795 -113517.26 164330.792 -113560.124 164309.675 -113599.632 164281.258 -113634.258 164246.632 -113662.675 164207.124 -113683.792 164164.26 -113696.795 164113.445 -113701.8 163057.555 -113701.8 163006.74 -113696.795 162963.876 -113683.792 162924.368 -113662.675 162889.742 -113634.258 162861.325 -113599.632 162840.773 -113561.182 162826.942 -113540.481 162809.337 -113522.877 162788.637 -113509.045 162765.635 -113499.518 162741.217 -113494.661 162716.321 -113494.661 162691.903 -113499.517 162668.902 -113509.045 162648.201 -113522.876 162630.597 -113540.481 162616.767 -113561.178 162609.773 -113574.263 162592.385 -113606.795 162487.214 -113734.945 162473.57 -113751.57 162328.792 -113870.386 162163.616 -113958.675 162121.902 -113971.329 161984.389 -114013.043 161798 -114031.401 161611.612 -114013.043 161474.099 -113971.329 161432.385 -113958.675 161267.209 -113870.386 161122.431 -113751.57 161066.807 -113683.792 161003.616 -113606.794 160979.235 -113561.181 160965.403 -113540.481 160947.799 -113522.876 160927.098 -113509.045 160904.097 -113499.517 160879.679 -113494.661 160854.782 -113494.661 160830.364 -113499.518 160807.363 -113509.045 160786.663 -113522.877 160769.058 -113540.481 160755.227 -113561.182 160734.675 -113599.632 160706.258 -113634.258 160671.632 -113662.675 160632.124 -113683.792 160589.26 -113696.795 160538.445 -113701.8 159482.555 -113701.8 159431.74 -113696.795 159388.876 -113683.792 159349.368 -113662.675 159314.742 -113634.258 159286.325 -113599.632 159265.208 -113560.124 159252.205 -113517.26 159247.2 -113466.445 159247.2 -112085.555 159252.205 -112034.74 159265.208 -111991.876 159286.325 -111952.368 159314.742 -111917.742 159349.368 -111889.325 159388.876 -111868.208 159431.74 -111855.205 159482.555 -111850.2 160538.445 -111850.2 160589.26 -111855.205 160632.124 -111868.208 160671.632 -111889.325 160706.258 -111917.742 160734.675 -111952.368 160755.227 -111990.818 160769.058 -112011.519 160786.663 -112029.123 160807.363 -112042.955 160830.365 -112052.482 160854.783 -112057.339 160879.679 -112057.339 160904.097 -112052.483 160927.098 -112042.955 160947.799 -112029.124 160965.403 -112011.519 160979.235 -111990.818 160990.673 -111969.419 161003.615 -111945.205 161122.43 -111800.43 161267.208 -111681.614 161432.384 -111593.325 161474.098 -111580.671 161611.611 -111538.957 161798 -111520.599 161984.388 -111538.957 161984.388 -111538.957"/><path d="M 154633.45 -112283.65 154670.919 -112295.016 154705.436 -112313.467 154735.698 -112338.302 154760.533 -112368.564 154778.984 -112403.081 154790.35 -112440.55 154794.8 -112485.737 154794.8 -113574.263 154790.35 -113619.45 154778.984 -113656.919 154760.533 -113691.436 154735.698 -113721.698 154705.436 -113746.533 154670.919 -113764.984 154633.45 -113776.35 154588.263 -113780.8 153749.737 -113780.8 153704.55 -113776.35 153667.081 -113764.984 153632.564 -113746.533 153602.302 -113721.698 153577.467 -113691.436 153559.016 -113656.919 153547.65 -113619.45 153543.2 -113574.263 153543.2 -112485.737 153547.65 -112440.55 153559.016 -112403.081 153577.467 -112368.564 153602.302 -112338.302 153632.564 -112313.467 153667.081 -112295.016 153704.55 -112283.65 153749.737 -112279.2 154588.263 -112279.2 154633.45 -112283.65 154633.45 -112283.65"/><path d="M 156683.45 -112283.65 156720.919 -112295.016 156755.436 -112313.467 156785.698 -112338.302 156810.533 -112368.564 156828.984 -112403.081 156840.35 -112440.55 156844.8 -112485.737 156844.8 -113574.263 156840.35 -113619.45 156828.984 -113656.919 156810.533 -113691.436 156785.698 -113721.698 156755.436 -113746.533 156720.919 -113764.984 156683.45 -113776.35 156638.263 -113780.8 155799.737 -113780.8 155754.55 -113776.35 155717.081 -113764.984 155682.564 -113746.533 155652.302 -113721.698 155627.467 -113691.436 155609.016 -113656.919 155597.65 -113619.45 155593.2 -113574.263 155593.2 -112485.737 155597.65 -112440.55 155609.016 -112403.081 155627.467 -112368.564 155652.302 -112338.302 155682.564 -112313.467 155717.081 -112295.016 155754.55 -112283.65 155799.737 -112279.2 156638.263 -112279.2 156683.45 -112283.65 156683.45 -112283.65"/><path d="M 156683.45 -109997.65 156720.919 -110009.016 156755.436 -110027.467 156785.698 -110052.302 156810.533 -110082.564 156828.984 -110117.081 156840.35 -110154.55 156844.8 -110199.737 156844.8 -111288.263 156840.35 -111333.45 156828.984 -111370.919 156810.533 -111405.436 156785.698 -111435.698 156755.436 -111460.533 156720.919 -111478.984 156683.45 -111490.35 156638.263 -111494.8 155799.737 -111494.8 155754.55 -111490.35 155717.081 -111478.984 155682.564 -111460.533 155652.302 -111435.698 155627.467 -111405.436 155609.016 -111370.919 155597.65 -111333.45 155593.2 -111288.263 155593.2 -110199.737 155597.65 -110154.55 155609.016 -110117.081 155627.467 -110082.564 155652.302 -110052.302 155682.564 -110027.467 155717.081 -110009.016 155754.55 -109997.65 155799.737 -109993.2 156638.263 -109993.2 156683.45 -109997.65 156683.45 -109997.65"/><path d="M 154633.45 -109997.65 154670.919 -110009.016 154705.436 -110027.467 154735.698 -110052.302 154760.533 -110082.564 154778.984 -110117.081 154790.35 -110154.55 154794.8 -110199.737 154794.8 -111288.263 154790.35 -111333.45 154778.984 -111370.919 154760.533 -111405.436 154735.698 -111435.698 154705.436 -111460.533 154670.919 -111478.984 154633.45 -111490.35 154588.263 -111494.8 153749.737 -111494.8 153704.55 -111490.35 153667.081 -111478.984 153632.564 -111460.533 153602.302 -111435.698 153577.467 -111405.436 153559.016 -111370.919 153547.65 -111333.45 153543.2 -111288.263 153543.2 -110199.737 153547.65 -110154.55 153559.016 -110117.081 153577.467 -110082.564 153602.302 -110052.302 153632.564 -110027.467 153667.081 -110009.016 153704.55 -109997.65 153749.737 -109993.2 154588.263 -109993.2 154633.45 -109997.65 154633.45 -109997.65"/><path d="M 161984.388 -108490.957 162121.901 -108532.671 162163.615 -108545.325 162246.204 -108589.47 162328.793 -108633.614 162473.57 -108752.43 162592.386 -108897.207 162616.765 -108942.817 162630.596 -108963.518 162648.201 -108981.122 162668.901 -108994.954 162691.902 -109004.481 162716.32 -109009.338 162741.217 -109009.339 162765.635 -109004.482 162788.636 -108994.954 162809.337 -108981.123 162826.941 -108963.518 162840.773 -108942.818 162861.326 -108904.367 162889.742 -108869.742 162924.368 -108841.325 162963.876 -108820.208 163006.74 -108807.205 163057.555 -108802.2 164113.445 -108802.2 164164.26 -108807.205 164207.124 -108820.208 164246.632 -108841.325 164281.258 -108869.742 164309.675 -108904.368 164330.792 -108943.876 164343.795 -108986.74 164348.8 -109037.555 164348.8 -110418.445 164343.795 -110469.26 164330.792 -110512.124 164309.675 -110551.632 164281.258 -110586.258 164246.632 -110614.675 164207.124 -110635.792 164164.26 -110648.795 164113.445 -110653.8 163057.555 -110653.8 163006.74 -110648.795 162963.876 -110635.792 162924.368 -110614.675 162889.742 -110586.258 162861.325 -110551.632 162840.773 -110513.182 162826.942 -110492.481 162809.337 -110474.877 162788.637 -110461.045 162765.635 -110451.518 162741.217 -110446.661 162716.321 -110446.661 162691.903 -110451.517 162668.902 -110461.045 162648.201 -110474.876 162630.597 -110492.481 162616.767 -110513.178 162603.84 -110537.363 162592.385 -110558.795 162473.57 -110703.57 162328.792 -110822.386 162163.616 -110910.675 162121.902 -110923.329 161984.389 -110965.043 161798 -110983.401 161611.612 -110965.043 161474.099 -110923.329 161432.385 -110910.675 161267.209 -110822.386 161122.431 -110703.57 161066.807 -110635.792 161003.616 -110558.794 160979.235 -110513.181 160965.403 -110492.481 160947.799 -110474.876 160927.098 -110461.045 160904.097 -110451.517 160879.679 -110446.661 160854.782 -110446.661 160830.364 -110451.518 160807.363 -110461.045 160786.663 -110474.877 160769.058 -110492.481 160755.227 -110513.182 160734.675 -110551.632 160706.258 -110586.258 160671.632 -110614.675 160632.124 -110635.792 160589.26 -110648.795 160538.445 -110653.8 159482.555 -110653.8 159431.74 -110648.795 159388.876 -110635.792 159349.368 -110614.675 159314.742 -110586.258 159286.325 -110551.632 159265.208 -110512.124 159252.205 -110469.26 159247.2 -110418.445 159247.2 -109037.555 159252.205 -108986.74 159265.208 -108943.876 159286.325 -108904.368 159314.742 -108869.742 159349.368 -108841.325 159388.876 -108820.208 159431.74 -108807.205 159482.555 -108802.2 160538.445 -108802.2 160589.26 -108807.205 160632.124 -108820.208 160671.632 -108841.325 160706.258 -108869.742 160734.675 -108904.368 160755.227 -108942.818 160769.058 -108963.519 160786.663 -108981.123 160807.363 -108994.955 160830.365 -109004.482 160854.783 -109009.339 160879.679 -109009.339 160904.097 -109004.483 160927.098 -108994.955 160947.799 -108981.124 160965.403 -108963.519 160979.235 -108942.818 160990.673 -108921.419 161003.615 -108897.205 161122.43 -108752.43 161267.208 -108633.614 161432.384 -108545.325 161474.098 -108532.671 161611.611 -108490.957 161798 -108472.599 161984.388 -108490.957 161984.388 -108490.957"/><path d="M 154633.45 -107711.65 154670.919 -107723.016 154705.436 -107741.467 154735.698 -107766.302 154760.533 -107796.564 154778.984 -107831.081 154790.35 -107868.55 154794.8 -107913.737 154794.8 -109002.263 154790.35 -109047.45 154778.984 -109084.919 154760.533 -109119.436 154735.698 -109149.698 154705.436 -109174.533 154670.919 -109192.984 154633.45 -109204.35 154588.263 -109208.8 153749.737 -109208.8 153704.55 -109204.35 153667.081 -109192.984 153632.564 -109174.533 153602.302 -109149.698 153577.467 -109119.436 153559.016 -109084.919 153547.65 -109047.45 153543.2 -109002.263 153543.2 -107913.737 153547.65 -107868.55 153559.016 -107831.081 153577.467 -107796.564 153602.302 -107766.302 153632.564 -107741.467 153667.081 -107723.016 153704.55 -107711.65 153749.737 -107707.2 154588.263 -107707.2 154633.45 -107711.65 154633.45 -107711.65"/><path d="M 156683.45 -107711.65 156720.919 -107723.016 156755.436 -107741.467 156785.698 -107766.302 156810.533 -107796.564 156828.984 -107831.081 156840.35 -107868.55 156844.8 -107913.737 156844.8 -109002.263 156840.35 -109047.45 156828.984 -109084.919 156810.533 -109119.436 156785.698 -109149.698 156755.436 -109174.533 156720.919 -109192.984 156683.45 -109204.35 156638.263 -109208.8 155799.737 -109208.8 155754.55 -109204.35 155717.081 -109192.984 155682.564 -109174.533 155652.302 -109149.698 155627.467 -109119.436 155609.016 -109084.919 155597.65 -109047.45 155593.2 -109002.263 155593.2 -107913.737 155597.65 -107868.55 155609.016 -107831.081 155627.467 -107796.564 155652.302 -107766.302 155682.564 -107741.467 155717.081 -107723.016 155754.55 -107711.65 155799.737 -107707.2 156638.263 -107707.2 156683.45 -107711.65 156683.45 -107711.65"/><path d="M 161984.388 -105442.957 162107.497 -105480.302 162163.615 -105497.325 162188.383 -105510.564 162328.793 -105585.614 162473.57 -105704.43 162592.386 -105849.207 162616.765 -105894.817 162630.596 -105915.518 162648.201 -105933.122 162668.901 -105946.954 162691.902 -105956.481 162716.32 -105961.338 162741.217 -105961.339 162765.635 -105956.482 162788.636 -105946.954 162809.337 -105933.123 162826.941 -105915.518 162840.773 -105894.818 162861.326 -105856.367 162889.742 -105821.742 162924.368 -105793.325 162963.876 -105772.208 163006.74 -105759.205 163057.555 -105754.2 164113.445 -105754.2 164164.26 -105759.205 164207.124 -105772.208 164246.632 -105793.325 164281.258 -105821.742 164309.675 -105856.368 164330.792 -105895.876 164343.795 -105938.74 164348.8 -105989.555 164348.8 -107370.445 164343.795 -107421.26 164330.792 -107464.124 164309.675 -107503.632 164281.258 -107538.258 164246.632 -107566.675 164207.124 -107587.792 164164.26 -107600.795 164113.445 -107605.8 163057.555 -107605.8 163006.74 -107600.795 162963.876 -107587.792 162924.368 -107566.675 162889.742 -107538.258 162861.325 -107503.632 162840.773 -107465.182 162826.942 -107444.481 162809.337 -107426.877 162788.637 -107413.045 162765.635 -107403.518 162741.217 -107398.661 162716.321 -107398.661 162691.903 -107403.517 162668.902 -107413.045 162648.201 -107426.876 162630.597 -107444.481 162616.767 -107465.178 162603.84 -107489.363 162592.385 -107510.795 162473.57 -107655.57 162328.792 -107774.386 162163.616 -107862.675 162144.248 -107868.55 161984.389 -107917.043 161798 -107935.401 161611.612 -107917.043 161451.753 -107868.55 161432.385 -107862.675 161267.209 -107774.386 161122.431 -107655.57 161066.807 -107587.792 161003.616 -107510.794 160979.235 -107465.181 160965.403 -107444.481 160947.799 -107426.876 160927.098 -107413.045 160904.097 -107403.517 160879.679 -107398.661 160854.782 -107398.661 160830.364 -107403.518 160807.363 -107413.045 160786.663 -107426.877 160769.058 -107444.481 160755.227 -107465.182 160734.675 -107503.632 160706.258 -107538.258 160671.632 -107566.675 160632.124 -107587.792 160589.26 -107600.795 160538.445 -107605.8 159482.555 -107605.8 159431.74 -107600.795 159388.876 -107587.792 159349.368 -107566.675 159314.742 -107538.258 159286.325 -107503.632 159265.208 -107464.124 159252.205 -107421.26 159247.2 -107370.445 159247.2 -105989.555 159252.205 -105938.74 159265.208 -105895.876 159286.325 -105856.368 159314.742 -105821.742 159349.368 -105793.325 159388.876 -105772.208 159431.74 -105759.205 159482.555 -105754.2 160538.445 -105754.2 160589.26 -105759.205 160632.124 -105772.208 160671.632 -105793.325 160706.258 -105821.742 160734.675 -105856.368 160755.227 -105894.818 160769.058 -105915.519 160786.663 -105933.123 160807.363 -105946.955 160830.365 -105956.482 160854.783 -105961.339 160879.679 -105961.339 160904.097 -105956.483 160927.098 -105946.955 160947.799 -105933.124 160965.403 -105915.519 160979.235 -105894.818 160990.673 -105873.419 161003.615 -105849.205 161122.43 -105704.43 161267.208 -105585.614 161272.94 -105582.55 161432.384 -105497.325 161488.502 -105480.302 161611.611 -105442.957 161798 -105424.599 161984.388 -105442.957 161984.388 -105442.957"/><path d="M 154633.45 -105425.65 154670.919 -105437.016 154705.436 -105455.467 154735.698 -105480.302 154760.533 -105510.564 154778.984 -105545.081 154790.35 -105582.55 154794.8 -105627.737 154794.8 -106716.263 154790.35 -106761.45 154778.984 -106798.919 154760.533 -106833.436 154735.698 -106863.698 154705.436 -106888.533 154670.919 -106906.984 154633.45 -106918.35 154588.263 -106922.8 153749.737 -106922.8 153704.55 -106918.35 153667.081 -106906.984 153632.564 -106888.533 153602.302 -106863.698 153577.467 -106833.436 153559.016 -106798.919 153547.65 -106761.45 153543.2 -106716.263 153543.2 -105627.737 153547.65 -105582.55 153559.016 -105545.081 153577.467 -105510.564 153602.302 -105480.302 153632.564 -105455.467 153667.081 -105437.016 153704.55 -105425.65 153749.737 -105421.2 154588.263 -105421.2 154633.45 -105425.65 154633.45 -105425.65"/><path d="M 156683.45 -105425.65 156720.919 -105437.016 156755.436 -105455.467 156785.698 -105480.302 156810.533 -105510.564 156828.984 -105545.081 156840.35 -105582.55 156844.8 -105627.737 156844.8 -106716.263 156840.35 -106761.45 156828.984 -106798.919 156810.533 -106833.436 156785.698 -106863.698 156755.436 -106888.533 156720.919 -106906.984 156683.45 -106918.35 156638.263 -106922.8 155799.737 -106922.8 155754.55 -106918.35 155717.081 -106906.984 155682.564 -106888.533 155652.302 -106863.698 155627.467 -106833.436 155609.016 -106798.919 155597.65 -106761.45 155593.2 -106716.263 155593.2 -105627.737 155597.65 -105582.55 155609.016 -105545.081 155627.467 -105510.564 155652.302 -105480.302 155682.564 -105455.467 155717.081 -105437.016 155754.55 -105425.65 155799.737 -105421.2 156638.263 -105421.2 156683.45 -105425.65 156683.45 -105425.65"/><path d="M 161984.388 -102394.957 162121.901 -102436.671 162163.615 -102449.325 162215.765 -102477.2 162328.793 -102537.614 162473.57 -102656.43 162592.386 -102801.207 162616.765 -102846.817 162630.596 -102867.518 162648.201 -102885.122 162668.901 -102898.954 162691.902 -102908.481 162716.32 -102913.338 162741.217 -102913.339 162765.635 -102908.482 162788.636 -102898.954 162809.337 -102885.123 162826.941 -102867.518 162840.773 -102846.818 162861.326 -102808.367 162889.742 -102773.742 162924.368 -102745.325 162963.876 -102724.208 163006.74 -102711.205 163057.555 -102706.2 164113.445 -102706.2 164164.26 -102711.205 164207.124 -102724.208 164246.632 -102745.325 164281.258 -102773.742 164309.675 -102808.368 164330.792 -102847.876 164343.795 -102890.74 164348.8 -102941.555 164348.8 -104322.445 164343.795 -104373.26 164330.792 -104416.124 164309.675 -104455.632 164281.258 -104490.258 164246.632 -104518.675 164207.124 -104539.792 164164.26 -104552.795 164113.445 -104557.8 163057.555 -104557.8 163006.74 -104552.795 162963.876 -104539.792 162924.368 -104518.675 162889.742 -104490.258 162861.325 -104455.632 162840.773 -104417.182 162826.942 -104396.481 162809.337 -104378.877 162788.637 -104365.045 162765.635 -104355.518 162741.217 -104350.661 162716.321 -104350.661 162691.903 -104355.517 162668.902 -104365.045 162648.201 -104378.876 162630.597 -104396.481 162616.767 -104417.178 162603.84 -104441.363 162592.385 -104462.795 162473.57 -104607.57 162328.792 -104726.386 162163.616 -104814.675 162121.902 -104827.329 161984.389 -104869.043 161798 -104887.401 161611.612 -104869.043 161474.099 -104827.329 161432.385 -104814.675 161267.209 -104726.386 161122.431 -104607.57 161066.807 -104539.792 161003.616 -104462.794 160979.235 -104417.181 160965.403 -104396.481 160947.799 -104378.876 160927.098 -104365.045 160904.097 -104355.517 160879.679 -104350.661 160854.782 -104350.661 160830.364 -104355.518 160807.363 -104365.045 160786.663 -104378.877 160769.058 -104396.481 160755.227 -104417.182 160734.675 -104455.632 160706.258 -104490.258 160671.632 -104518.675 160632.124 -104539.792 160589.26 -104552.795 160538.445 -104557.8 159482.555 -104557.8 159431.74 -104552.795 159388.876 -104539.792 159349.368 -104518.675 159314.742 -104490.258 159286.325 -104455.632 159265.208 -104416.124 159252.205 -104373.26 159247.2 -104322.445 159247.2 -102941.555 159252.205 -102890.74 159265.208 -102847.876 159286.325 -102808.368 159314.742 -102773.742 159349.368 -102745.325 159388.876 -102724.208 159431.74 -102711.205 159482.555 -102706.2 160538.445 -102706.2 160589.26 -102711.205 160632.124 -102724.208 160671.632 -102745.325 160706.258 -102773.742 160734.675 -102808.368 160755.227 -102846.818 160769.058 -102867.519 160786.663 -102885.123 160807.363 -102898.955 160830.365 -102908.482 160854.783 -102913.339 160879.679 -102913.339 160904.097 -102908.483 160927.098 -102898.955 160947.799 -102885.124 160965.403 -102867.519 160979.235 -102846.818 160990.673 -102825.419 161003.615 -102801.205 161122.43 -102656.43 161267.208 -102537.614 161432.384 -102449.325 161474.098 -102436.671 161611.611 -102394.957 161798 -102376.599 161984.388 -102394.957 161984.388 -102394.957"/><path d="M 156894.588 -102490.233 157064.385 -102541.741 157220.878 -102625.388 157358.044 -102737.956 157470.612 -102875.122 157554.259 -103031.615 157605.767 -103201.412 157623.159 -103378 157605.767 -103554.588 157554.259 -103724.385 157470.612 -103880.878 157358.044 -104018.044 157220.878 -104130.612 157064.385 -104214.259 156894.588 -104265.767 156762.259 -104278.8 156673.741 -104278.8 156541.412 -104265.767 156371.615 -104214.259 156215.122 -104130.612 156077.956 -104018.044 155965.388 -103880.878 155881.741 -103724.385 155830.233 -103554.588 155812.841 -103378 155830.233 -103201.412 155881.741 -103031.615 155965.388 -102875.122 156077.956 -102737.956 156215.122 -102625.388 156371.615 -102541.741 156541.412 -102490.233 156673.741 -102477.2 156762.259 -102477.2 156894.588 -102490.233 156894.588 -102490.233"/><path d="M 155078.8 -104278.8 153277.2 -104278.8 153277.2 -102477.2 155078.8 -102477.2 155078.8 -104278.8 155078.8 -104278.8"/></g><g id="lCpLQ-624iJw4kLatod0_bottom_silkscreen"><path d="M 158217.809 -102008.214 158217.809 -102225.928 M 158725.809 -102117.071 158217.809 -102117.071 M 158725.809 -102407.357 158701.619 -102371.071 158677.428 -102352.928 158629.047 -102334.785 158483.904 -102334.785 158435.523 -102352.928 158411.333 -102371.071 158387.142 -102407.357 158387.142 -102461.785 158411.333 -102498.071 158435.523 -102516.214 158483.904 -102534.357 158629.047 -102534.357 158677.428 -102516.214 158701.619 -102498.071 158725.809 -102461.785 158725.809 -102407.357 M 158725.809 -102697.642 158217.809 -102697.642 M 158411.333 -102697.642 158387.142 -102733.928 158387.142 -102806.5 158411.333 -102842.785 158435.523 -102860.928 158483.904 -102879.071 158629.047 -102879.071 158677.428 -102860.928 158701.619 -102842.785 158725.809 -102806.5 158725.809 -102733.928 158701.619 -102697.642 M 158725.809 -103042.357 158387.142 -103042.357 M 158217.809 -103042.357 158242 -103024.214 158266.19 -103042.357 158242 -103060.5 158217.809 -103042.357 158266.19 -103042.357 M 158387.142 -103223.785 158725.809 -103223.785 M 158435.523 -103223.785 158411.333 -103241.928 158387.142 -103278.214 158387.142 -103332.642 158411.333 -103368.928 158459.714 -103387.071 158725.809 -103387.071 M 158483.904 -103931.357 158725.809 -103931.357 M 158217.809 -103804.357 158483.904 -103931.357 158217.809 -104058.357 M 158701.619 -104330.5 158725.809 -104294.214 158725.809 -104221.642 158701.619 -104185.357 158653.238 -104167.214 158459.714 -104167.214 158411.333 -104185.357 158387.142 -104221.642 158387.142 -104294.214 158411.333 -104330.5 158459.714 -104348.642 158508.095 -104348.642 158556.476 -104167.214 M 158725.809 -104511.928 158217.809 -104511.928 M 158725.809 -104675.214 158459.714 -104675.214 158411.333 -104657.071 158387.142 -104620.785 158387.142 -104566.357 158411.333 -104530.071 158435.523 -104511.928 M 158725.809 -104911.071 158701.619 -104874.785 158653.238 -104856.642 158217.809 -104856.642 M 158701.619 -105201.357 158725.809 -105165.071 158725.809 -105092.5 158701.619 -105056.214 158653.238 -105038.071 158459.714 -105038.071 158411.333 -105056.214 158387.142 -105092.5 158387.142 -105165.071 158411.333 -105201.357 158459.714 -105219.5 158508.095 -105219.5 158556.476 -105038.071" fill="none" stroke-width="76.2"/><path d="M 158447.619 -106299 158447.619 -105936.142 157431.619 -105936.142 M 157915.428 -106553 157915.428 -106807 M 158447.619 -106915.857 158447.619 -106553 157431.619 -106553 157431.619 -106915.857 M 158447.619 -107242.428 157431.619 -107242.428 157431.619 -107423.857 157480 -107532.714 157576.761 -107605.285 157673.523 -107641.571 157867.047 -107677.857 158012.19 -107677.857 158205.714 -107641.571 158302.476 -107605.285 158399.238 -107532.714 158447.619 -107423.857 158447.619 -107242.428 M 157431.619 -108476.142 157431.619 -108911.571 M 158447.619 -108693.857 157431.619 -108693.857 M 158399.238 -109455.857 158447.619 -109383.285 158447.619 -109238.142 158399.238 -109165.571 158302.476 -109129.285 157915.428 -109129.285 157818.666 -109165.571 157770.285 -109238.142 157770.285 -109383.285 157818.666 -109455.857 157915.428 -109492.142 158012.19 -109492.142 158108.952 -109129.285 M 158399.238 -109782.428 158447.619 -109855 158447.619 -110000.142 158399.238 -110072.714 158302.476 -110109 158254.095 -110109 158157.333 -110072.714 158108.952 -110000.142 158108.952 -109891.285 158060.571 -109818.714 157963.809 -109782.428 157915.428 -109782.428 157818.666 -109818.714 157770.285 -109891.285 157770.285 -110000.142 157818.666 -110072.714 M 157770.285 -110326.714 157770.285 -110617 M 157431.619 -110435.571 158302.476 -110435.571 158399.238 -110471.857 158447.619 -110544.428 158447.619 -110617 M 158399.238 -111161.285 158447.619 -111088.714 158447.619 -110943.571 158399.238 -110871 158302.476 -110834.714 157915.428 -110834.714 157818.666 -110871 157770.285 -110943.571 157770.285 -111088.714 157818.666 -111161.285 157915.428 -111197.571 158012.19 -111197.571 158108.952 -110834.714 M 158447.619 -111524.142 157770.285 -111524.142 M 157963.809 -111524.142 157867.047 -111560.428 157818.666 -111596.714 157770.285 -111669.285 157770.285 -111741.857 M 157770.285 -112503.857 158447.619 -112685.285 157770.285 -112866.714 M 158447.619 -113556.142 158447.619 -113120.714 M 158447.619 -113338.428 157431.619 -113338.428 157576.761 -113265.857 157673.523 -113193.285 157721.904 -113120.714" fill="none" stroke-width="127"/><path d="M 159048 -102132 163548 -102132 M 159048 -105132 159048 -102132 M 163548 -105132 159048 -105132 M 163548 -108180 159048 -108180 159048 -105180 163548 -105180 M 154932.748 -106882 155455.252 -106882 M 154932.748 -105462 155455.252 -105462 M 154932.748 -107748 155455.252 -107748 M 154932.748 -109168 155455.252 -109168 M 159048 -108228 163548 -108228 M 159048 -111228 159048 -108228 M 163548 -111228 159048 -111228 M 163548 -114276 159048 -114276 159048 -111276 163548 -111276 M 154932.748 -111454 155455.252 -111454 M 154932.748 -110034 155455.252 -110034 M 154932.748 -112320 155455.252 -112320 M 154932.748 -113740 155455.252 -113740" fill="none" stroke-width="120"/></g><g id="lCpLQ-624iJw4kLatod0_bottom_solderpaste"><path d="M 164040.935 -102758.372 164068.601 -102762.476 164095.731 -102769.272 164122.065 -102778.694 164147.348 -102790.652 164171.338 -102805.031 164193.802 -102821.692 164214.525 -102840.475 164233.308 -102861.198 164249.969 -102883.662 164264.348 -102907.652 164276.306 -102932.935 164285.728 -102959.269 164292.524 -102986.399 164296.628 -103014.065 164298 -103042 164298 -104222 164296.628 -104249.935 164292.524 -104277.601 164285.728 -104304.731 164276.306 -104331.065 164264.348 -104356.348 164249.969 -104380.338 164233.308 -104402.802 164214.525 -104423.525 164193.802 -104442.308 164171.338 -104458.969 164147.348 -104473.348 164122.065 -104485.306 164095.731 -104494.728 164068.601 -104501.524 164040.935 -104505.628 164013 -104507 163158 -104507 163130.065 -104505.628 163102.399 -104501.524 163075.269 -104494.728 163048.935 -104485.306 163023.652 -104473.348 162999.662 -104458.969 162977.198 -104442.308 162956.475 -104423.525 162937.692 -104402.802 162921.031 -104380.338 162906.652 -104356.348 162894.694 -104331.065 162885.272 -104304.731 162878.476 -104277.601 162874.372 -104249.935 162873 -104222 162873 -103042 162874.372 -103014.065 162878.476 -102986.399 162885.272 -102959.269 162894.694 -102932.935 162906.652 -102907.652 162921.031 -102883.662 162937.692 -102861.198 162956.475 -102840.475 162977.198 -102821.692 162999.662 -102805.031 163023.652 -102790.652 163048.935 -102778.694 163075.269 -102769.272 163102.399 -102762.476 163130.065 -102758.372 163158 -102757 164013 -102757 164040.935 -102758.372 164040.935 -102758.372"/><use xlink:href="#o2tRfAC2OeeCPf-jkxp0_pad-11" x="163585.5" y="-103632"/><path d="M 160465.935 -102758.372 160493.601 -102762.476 160520.731 -102769.272 160547.065 -102778.694 160572.348 -102790.652 160596.338 -102805.031 160618.802 -102821.692 160639.525 -102840.475 160658.308 -102861.198 160674.969 -102883.662 160689.348 -102907.652 160701.306 -102932.935 160710.728 -102959.269 160717.524 -102986.399 160721.628 -103014.065 160723 -103042 160723 -104222 160721.628 -104249.935 160717.524 -104277.601 160710.728 -104304.731 160701.306 -104331.065 160689.348 -104356.348 160674.969 -104380.338 160658.308 -104402.802 160639.525 -104423.525 160618.802 -104442.308 160596.338 -104458.969 160572.348 -104473.348 160547.065 -104485.306 160520.731 -104494.728 160493.601 -104501.524 160465.935 -104505.628 160438 -104507 159583 -104507 159555.065 -104505.628 159527.399 -104501.524 159500.269 -104494.728 159473.935 -104485.306 159448.652 -104473.348 159424.662 -104458.969 159402.198 -104442.308 159381.475 -104423.525 159362.692 -104402.802 159346.031 -104380.338 159331.652 -104356.348 159319.694 -104331.065 159310.272 -104304.731 159303.476 -104277.601 159299.372 -104249.935 159298 -104222 159298 -103042 159299.372 -103014.065 159303.476 -102986.399 159310.272 -102959.269 159319.694 -102932.935 159331.652 -102907.652 159346.031 -102883.662 159362.692 -102861.198 159381.475 -102840.475 159402.198 -102821.692 159424.662 -102805.031 159448.652 -102790.652 159473.935 -102778.694 159500.269 -102769.272 159527.399 -102762.476 159555.065 -102758.372 159583 -102757 160438 -102757 160465.935 -102758.372 160465.935 -102758.372"/><use xlink:href="#o2tRfAC2OeeCPf-jkxp0_pad-11" x="160010.5" y="-103632"/><path d="M 160465.935 -105806.372 160493.601 -105810.476 160520.731 -105817.272 160547.065 -105826.694 160572.348 -105838.652 160596.338 -105853.031 160618.802 -105869.692 160639.525 -105888.475 160658.308 -105909.198 160674.969 -105931.662 160689.348 -105955.652 160701.306 -105980.935 160710.728 -106007.269 160717.524 -106034.399 160721.628 -106062.065 160723 -106090 160723 -107270 160721.628 -107297.935 160717.524 -107325.601 160710.728 -107352.731 160701.306 -107379.065 160689.348 -107404.348 160674.969 -107428.338 160658.308 -107450.802 160639.525 -107471.525 160618.802 -107490.308 160596.338 -107506.969 160572.348 -107521.348 160547.065 -107533.306 160520.731 -107542.728 160493.601 -107549.524 160465.935 -107553.628 160438 -107555 159583 -107555 159555.065 -107553.628 159527.399 -107549.524 159500.269 -107542.728 159473.935 -107533.306 159448.652 -107521.348 159424.662 -107506.969 159402.198 -107490.308 159381.475 -107471.525 159362.692 -107450.802 159346.031 -107428.338 159331.652 -107404.348 159319.694 -107379.065 159310.272 -107352.731 159303.476 -107325.601 159299.372 -107297.935 159298 -107270 159298 -106090 159299.372 -106062.065 159303.476 -106034.399 159310.272 -106007.269 159319.694 -105980.935 159331.652 -105955.652 159346.031 -105931.662 159362.692 -105909.198 159381.475 -105888.475 159402.198 -105869.692 159424.662 -105853.031 159448.652 -105838.652 159473.935 -105826.694 159500.269 -105817.272 159527.399 -105810.476 159555.065 -105806.372 159583 -105805 160438 -105805 160465.935 -105806.372 160465.935 -105806.372"/><use xlink:href="#o2tRfAC2OeeCPf-jkxp0_pad-11" x="160010.5" y="-106680"/><path d="M 164040.935 -105806.372 164068.601 -105810.476 164095.731 -105817.272 164122.065 -105826.694 164147.348 -105838.652 164171.338 -105853.031 164193.802 -105869.692 164214.525 -105888.475 164233.308 -105909.198 164249.969 -105931.662 164264.348 -105955.652 164276.306 -105980.935 164285.728 -106007.269 164292.524 -106034.399 164296.628 -106062.065 164298 -106090 164298 -107270 164296.628 -107297.935 164292.524 -107325.601 164285.728 -107352.731 164276.306 -107379.065 164264.348 -107404.348 164249.969 -107428.338 164233.308 -107450.802 164214.525 -107471.525 164193.802 -107490.308 164171.338 -107506.969 164147.348 -107521.348 164122.065 -107533.306 164095.731 -107542.728 164068.601 -107549.524 164040.935 -107553.628 164013 -107555 163158 -107555 163130.065 -107553.628 163102.399 -107549.524 163075.269 -107542.728 163048.935 -107533.306 163023.652 -107521.348 162999.662 -107506.969 162977.198 -107490.308 162956.475 -107471.525 162937.692 -107450.802 162921.031 -107428.338 162906.652 -107404.348 162894.694 -107379.065 162885.272 -107352.731 162878.476 -107325.601 162874.372 -107297.935 162873 -107270 162873 -106090 162874.372 -106062.065 162878.476 -106034.399 162885.272 -106007.269 162894.694 -105980.935 162906.652 -105955.652 162921.031 -105931.662 162937.692 -105909.198 162956.475 -105888.475 162977.198 -105869.692 162999.662 -105853.031 163023.652 -105838.652 163048.935 -105826.694 163075.269 -105817.272 163102.399 -105810.476 163130.065 -105806.372 163158 -105805 164013 -105805 164040.935 -105806.372 164040.935 -105806.372"/><use xlink:href="#o2tRfAC2OeeCPf-jkxp0_pad-11" x="163585.5" y="-106680"/><path d="M 154518.505 -105473.204 154542.773 -105476.804 154566.572 -105482.765 154589.671 -105491.03 154611.85 -105501.52 154632.893 -105514.132 154652.599 -105528.747 154670.777 -105545.223 154687.253 -105563.401 154701.868 -105583.107 154714.48 -105604.15 154724.97 -105626.329 154733.235 -105649.428 154739.196 -105673.227 154742.796 -105697.495 154744 -105721.999 154744 -106622.001 154742.796 -106646.505 154739.196 -106670.773 154733.235 -106694.572 154724.97 -106717.671 154714.48 -106739.85 154701.868 -106760.893 154687.253 -106780.599 154670.777 -106798.777 154652.599 -106815.253 154632.893 -106829.868 154611.85 -106842.48 154589.671 -106852.97 154566.572 -106861.235 154542.773 -106867.196 154518.505 -106870.796 154494.001 -106872 153843.999 -106872 153819.495 -106870.796 153795.227 -106867.196 153771.428 -106861.235 153748.329 -106852.97 153726.15 -106842.48 153705.107 -106829.868 153685.401 -106815.253 153667.223 -106798.777 153650.747 -106780.599 153636.132 -106760.893 153623.52 -106739.85 153613.03 -106717.671 153604.765 -106694.572 153598.804 -106670.773 153595.204 -106646.505 153594 -106622.001 153594 -105721.999 153595.204 -105697.495 153598.804 -105673.227 153604.765 -105649.428 153613.03 -105626.329 153623.52 -105604.15 153636.132 -105583.107 153650.747 -105563.401 153667.223 -105545.223 153685.401 -105528.747 153705.107 -105514.132 153726.15 -105501.52 153748.329 -105491.03 153771.428 -105482.765 153795.227 -105476.804 153819.495 -105473.204 153843.999 -105472 154494.001 -105472 154518.505 -105473.204 154518.505 -105473.204"/><use xlink:href="#o2tRfAC2OeeCPf-jkxp0_pad-12" x="154169" y="-106172"/><path d="M 156568.505 -105473.204 156592.773 -105476.804 156616.572 -105482.765 156639.671 -105491.03 156661.85 -105501.52 156682.893 -105514.132 156702.599 -105528.747 156720.777 -105545.223 156737.253 -105563.401 156751.868 -105583.107 156764.48 -105604.15 156774.97 -105626.329 156783.235 -105649.428 156789.196 -105673.227 156792.796 -105697.495 156794 -105721.999 156794 -106622.001 156792.796 -106646.505 156789.196 -106670.773 156783.235 -106694.572 156774.97 -106717.671 156764.48 -106739.85 156751.868 -106760.893 156737.253 -106780.599 156720.777 -106798.777 156702.599 -106815.253 156682.893 -106829.868 156661.85 -106842.48 156639.671 -106852.97 156616.572 -106861.235 156592.773 -106867.196 156568.505 -106870.796 156544.001 -106872 155893.999 -106872 155869.495 -106870.796 155845.227 -106867.196 155821.428 -106861.235 155798.329 -106852.97 155776.15 -106842.48 155755.107 -106829.868 155735.401 -106815.253 155717.223 -106798.777 155700.747 -106780.599 155686.132 -106760.893 155673.52 -106739.85 155663.03 -106717.671 155654.765 -106694.572 155648.804 -106670.773 155645.204 -106646.505 155644 -106622.001 155644 -105721.999 155645.204 -105697.495 155648.804 -105673.227 155654.765 -105649.428 155663.03 -105626.329 155673.52 -105604.15 155686.132 -105583.107 155700.747 -105563.401 155717.223 -105545.223 155735.401 -105528.747 155755.107 -105514.132 155776.15 -105501.52 155798.329 -105491.03 155821.428 -105482.765 155845.227 -105476.804 155869.495 -105473.204 155893.999 -105472 156544.001 -105472 156568.505 -105473.204 156568.505 -105473.204"/><use xlink:href="#o2tRfAC2OeeCPf-jkxp0_pad-12" x="156219" y="-106172"/><path d="M 156568.505 -107759.204 156592.773 -107762.804 156616.572 -107768.765 156639.671 -107777.03 156661.85 -107787.52 156682.893 -107800.132 156702.599 -107814.747 156720.777 -107831.223 156737.253 -107849.401 156751.868 -107869.107 156764.48 -107890.15 156774.97 -107912.329 156783.235 -107935.428 156789.196 -107959.227 156792.796 -107983.495 156794 -108007.999 156794 -108908.001 156792.796 -108932.505 156789.196 -108956.773 156783.235 -108980.572 156774.97 -109003.671 156764.48 -109025.85 156751.868 -109046.893 156737.253 -109066.599 156720.777 -109084.777 156702.599 -109101.253 156682.893 -109115.868 156661.85 -109128.48 156639.671 -109138.97 156616.572 -109147.235 156592.773 -109153.196 156568.505 -109156.796 156544.001 -109158 155893.999 -109158 155869.495 -109156.796 155845.227 -109153.196 155821.428 -109147.235 155798.329 -109138.97 155776.15 -109128.48 155755.107 -109115.868 155735.401 -109101.253 155717.223 -109084.777 155700.747 -109066.599 155686.132 -109046.893 155673.52 -109025.85 155663.03 -109003.671 155654.765 -108980.572 155648.804 -108956.773 155645.204 -108932.505 155644 -108908.001 155644 -108007.999 155645.204 -107983.495 155648.804 -107959.227 155654.765 -107935.428 155663.03 -107912.329 155673.52 -107890.15 155686.132 -107869.107 155700.747 -107849.401 155717.223 -107831.223 155735.401 -107814.747 155755.107 -107800.132 155776.15 -107787.52 155798.329 -107777.03 155821.428 -107768.765 155845.227 -107762.804 155869.495 -107759.204 155893.999 -107758 156544.001 -107758 156568.505 -107759.204 156568.505 -107759.204"/><use xlink:href="#o2tRfAC2OeeCPf-jkxp0_pad-12" x="156219" y="-108458"/><path d="M 154518.505 -107759.204 154542.773 -107762.804 154566.572 -107768.765 154589.671 -107777.03 154611.85 -107787.52 154632.893 -107800.132 154652.599 -107814.747 154670.777 -107831.223 154687.253 -107849.401 154701.868 -107869.107 154714.48 -107890.15 154724.97 -107912.329 154733.235 -107935.428 154739.196 -107959.227 154742.796 -107983.495 154744 -108007.999 154744 -108908.001 154742.796 -108932.505 154739.196 -108956.773 154733.235 -108980.572 154724.97 -109003.671 154714.48 -109025.85 154701.868 -109046.893 154687.253 -109066.599 154670.777 -109084.777 154652.599 -109101.253 154632.893 -109115.868 154611.85 -109128.48 154589.671 -109138.97 154566.572 -109147.235 154542.773 -109153.196 154518.505 -109156.796 154494.001 -109158 153843.999 -109158 153819.495 -109156.796 153795.227 -109153.196 153771.428 -109147.235 153748.329 -109138.97 153726.15 -109128.48 153705.107 -109115.868 153685.401 -109101.253 153667.223 -109084.777 153650.747 -109066.599 153636.132 -109046.893 153623.52 -109025.85 153613.03 -109003.671 153604.765 -108980.572 153598.804 -108956.773 153595.204 -108932.505 153594 -108908.001 153594 -108007.999 153595.204 -107983.495 153598.804 -107959.227 153604.765 -107935.428 153613.03 -107912.329 153623.52 -107890.15 153636.132 -107869.107 153650.747 -107849.401 153667.223 -107831.223 153685.401 -107814.747 153705.107 -107800.132 153726.15 -107787.52 153748.329 -107777.03 153771.428 -107768.765 153795.227 -107762.804 153819.495 -107759.204 153843.999 -107758 154494.001 -107758 154518.505 -107759.204 154518.505 -107759.204"/><use xlink:href="#o2tRfAC2OeeCPf-jkxp0_pad-12" x="154169" y="-108458"/><path d="M 164040.935 -108854.372 164068.601 -108858.476 164095.731 -108865.272 164122.065 -108874.694 164147.348 -108886.652 164171.338 -108901.031 164193.802 -108917.692 164214.525 -108936.475 164233.308 -108957.198 164249.969 -108979.662 164264.348 -109003.652 164276.306 -109028.935 164285.728 -109055.269 164292.524 -109082.399 164296.628 -109110.065 164298 -109138 164298 -110318 164296.628 -110345.935 164292.524 -110373.601 164285.728 -110400.731 164276.306 -110427.065 164264.348 -110452.348 164249.969 -110476.338 164233.308 -110498.802 164214.525 -110519.525 164193.802 -110538.308 164171.338 -110554.969 164147.348 -110569.348 164122.065 -110581.306 164095.731 -110590.728 164068.601 -110597.524 164040.935 -110601.628 164013 -110603 163158 -110603 163130.065 -110601.628 163102.399 -110597.524 163075.269 -110590.728 163048.935 -110581.306 163023.652 -110569.348 162999.662 -110554.969 162977.198 -110538.308 162956.475 -110519.525 162937.692 -110498.802 162921.031 -110476.338 162906.652 -110452.348 162894.694 -110427.065 162885.272 -110400.731 162878.476 -110373.601 162874.372 -110345.935 162873 -110318 162873 -109138 162874.372 -109110.065 162878.476 -109082.399 162885.272 -109055.269 162894.694 -109028.935 162906.652 -109003.652 162921.031 -108979.662 162937.692 -108957.198 162956.475 -108936.475 162977.198 -108917.692 162999.662 -108901.031 163023.652 -108886.652 163048.935 -108874.694 163075.269 -108865.272 163102.399 -108858.476 163130.065 -108854.372 163158 -108853 164013 -108853 164040.935 -108854.372 164040.935 -108854.372"/><use xlink:href="#o2tRfAC2OeeCPf-jkxp0_pad-11" x="163585.5" y="-109728"/><path d="M 160465.935 -108854.372 160493.601 -108858.476 160520.731 -108865.272 160547.065 -108874.694 160572.348 -108886.652 160596.338 -108901.031 160618.802 -108917.692 160639.525 -108936.475 160658.308 -108957.198 160674.969 -108979.662 160689.348 -109003.652 160701.306 -109028.935 160710.728 -109055.269 160717.524 -109082.399 160721.628 -109110.065 160723 -109138 160723 -110318 160721.628 -110345.935 160717.524 -110373.601 160710.728 -110400.731 160701.306 -110427.065 160689.348 -110452.348 160674.969 -110476.338 160658.308 -110498.802 160639.525 -110519.525 160618.802 -110538.308 160596.338 -110554.969 160572.348 -110569.348 160547.065 -110581.306 160520.731 -110590.728 160493.601 -110597.524 160465.935 -110601.628 160438 -110603 159583 -110603 159555.065 -110601.628 159527.399 -110597.524 159500.269 -110590.728 159473.935 -110581.306 159448.652 -110569.348 159424.662 -110554.969 159402.198 -110538.308 159381.475 -110519.525 159362.692 -110498.802 159346.031 -110476.338 159331.652 -110452.348 159319.694 -110427.065 159310.272 -110400.731 159303.476 -110373.601 159299.372 -110345.935 159298 -110318 159298 -109138 159299.372 -109110.065 159303.476 -109082.399 159310.272 -109055.269 159319.694 -109028.935 159331.652 -109003.652 159346.031 -108979.662 159362.692 -108957.198 159381.475 -108936.475 159402.198 -108917.692 159424.662 -108901.031 159448.652 -108886.652 159473.935 -108874.694 159500.269 -108865.272 159527.399 -108858.476 159555.065 -108854.372 159583 -108853 160438 -108853 160465.935 -108854.372 160465.935 -108854.372"/><use xlink:href="#o2tRfAC2OeeCPf-jkxp0_pad-11" x="160010.5" y="-109728"/><path d="M 160465.935 -111902.372 160493.601 -111906.476 160520.731 -111913.272 160547.065 -111922.694 160572.348 -111934.652 160596.338 -111949.031 160618.802 -111965.692 160639.525 -111984.475 160658.308 -112005.198 160674.969 -112027.662 160689.348 -112051.652 160701.306 -112076.935 160710.728 -112103.269 160717.524 -112130.399 160721.628 -112158.065 160723 -112186 160723 -113366 160721.628 -113393.935 160717.524 -113421.601 160710.728 -113448.731 160701.306 -113475.065 160689.348 -113500.348 160674.969 -113524.338 160658.308 -113546.802 160639.525 -113567.525 160618.802 -113586.308 160596.338 -113602.969 160572.348 -113617.348 160547.065 -113629.306 160520.731 -113638.728 160493.601 -113645.524 160465.935 -113649.628 160438 -113651 159583 -113651 159555.065 -113649.628 159527.399 -113645.524 159500.269 -113638.728 159473.935 -113629.306 159448.652 -113617.348 159424.662 -113602.969 159402.198 -113586.308 159381.475 -113567.525 159362.692 -113546.802 159346.031 -113524.338 159331.652 -113500.348 159319.694 -113475.065 159310.272 -113448.731 159303.476 -113421.601 159299.372 -113393.935 159298 -113366 159298 -112186 159299.372 -112158.065 159303.476 -112130.399 159310.272 -112103.269 159319.694 -112076.935 159331.652 -112051.652 159346.031 -112027.662 159362.692 -112005.198 159381.475 -111984.475 159402.198 -111965.692 159424.662 -111949.031 159448.652 -111934.652 159473.935 -111922.694 159500.269 -111913.272 159527.399 -111906.476 159555.065 -111902.372 159583 -111901 160438 -111901 160465.935 -111902.372 160465.935 -111902.372"/><use xlink:href="#o2tRfAC2OeeCPf-jkxp0_pad-11" x="160010.5" y="-112776"/><path d="M 164040.935 -111902.372 164068.601 -111906.476 164095.731 -111913.272 164122.065 -111922.694 164147.348 -111934.652 164171.338 -111949.031 164193.802 -111965.692 164214.525 -111984.475 164233.308 -112005.198 164249.969 -112027.662 164264.348 -112051.652 164276.306 -112076.935 164285.728 -112103.269 164292.524 -112130.399 164296.628 -112158.065 164298 -112186 164298 -113366 164296.628 -113393.935 164292.524 -113421.601 164285.728 -113448.731 164276.306 -113475.065 164264.348 -113500.348 164249.969 -113524.338 164233.308 -113546.802 164214.525 -113567.525 164193.802 -113586.308 164171.338 -113602.969 164147.348 -113617.348 164122.065 -113629.306 164095.731 -113638.728 164068.601 -113645.524 164040.935 -113649.628 164013 -113651 163158 -113651 163130.065 -113649.628 163102.399 -113645.524 163075.269 -113638.728 163048.935 -113629.306 163023.652 -113617.348 162999.662 -113602.969 162977.198 -113586.308 162956.475 -113567.525 162937.692 -113546.802 162921.031 -113524.338 162906.652 -113500.348 162894.694 -113475.065 162885.272 -113448.731 162878.476 -113421.601 162874.372 -113393.935 162873 -113366 162873 -112186 162874.372 -112158.065 162878.476 -112130.399 162885.272 -112103.269 162894.694 -112076.935 162906.652 -112051.652 162921.031 -112027.662 162937.692 -112005.198 162956.475 -111984.475 162977.198 -111965.692 162999.662 -111949.031 163023.652 -111934.652 163048.935 -111922.694 163075.269 -111913.272 163102.399 -111906.476 163130.065 -111902.372 163158 -111901 164013 -111901 164040.935 -111902.372 164040.935 -111902.372"/><use xlink:href="#o2tRfAC2OeeCPf-jkxp0_pad-11" x="163585.5" y="-112776"/><path d="M 154518.505 -110045.204 154542.773 -110048.804 154566.572 -110054.765 154589.671 -110063.03 154611.85 -110073.52 154632.893 -110086.132 154652.599 -110100.747 154670.777 -110117.223 154687.253 -110135.401 154701.868 -110155.107 154714.48 -110176.15 154724.97 -110198.329 154733.235 -110221.428 154739.196 -110245.227 154742.796 -110269.495 154744 -110293.999 154744 -111194.001 154742.796 -111218.505 154739.196 -111242.773 154733.235 -111266.572 154724.97 -111289.671 154714.48 -111311.85 154701.868 -111332.893 154687.253 -111352.599 154670.777 -111370.777 154652.599 -111387.253 154632.893 -111401.868 154611.85 -111414.48 154589.671 -111424.97 154566.572 -111433.235 154542.773 -111439.196 154518.505 -111442.796 154494.001 -111444 153843.999 -111444 153819.495 -111442.796 153795.227 -111439.196 153771.428 -111433.235 153748.329 -111424.97 153726.15 -111414.48 153705.107 -111401.868 153685.401 -111387.253 153667.223 -111370.777 153650.747 -111352.599 153636.132 -111332.893 153623.52 -111311.85 153613.03 -111289.671 153604.765 -111266.572 153598.804 -111242.773 153595.204 -111218.505 153594 -111194.001 153594 -110293.999 153595.204 -110269.495 153598.804 -110245.227 153604.765 -110221.428 153613.03 -110198.329 153623.52 -110176.15 153636.132 -110155.107 153650.747 -110135.401 153667.223 -110117.223 153685.401 -110100.747 153705.107 -110086.132 153726.15 -110073.52 153748.329 -110063.03 153771.428 -110054.765 153795.227 -110048.804 153819.495 -110045.204 153843.999 -110044 154494.001 -110044 154518.505 -110045.204 154518.505 -110045.204"/><use xlink:href="#o2tRfAC2OeeCPf-jkxp0_pad-12" x="154169" y="-110744"/><path d="M 156568.505 -110045.204 156592.773 -110048.804 156616.572 -110054.765 156639.671 -110063.03 156661.85 -110073.52 156682.893 -110086.132 156702.599 -110100.747 156720.777 -110117.223 156737.253 -110135.401 156751.868 -110155.107 156764.48 -110176.15 156774.97 -110198.329 156783.235 -110221.428 156789.196 -110245.227 156792.796 -110269.495 156794 -110293.999 156794 -111194.001 156792.796 -111218.505 156789.196 -111242.773 156783.235 -111266.572 156774.97 -111289.671 156764.48 -111311.85 156751.868 -111332.893 156737.253 -111352.599 156720.777 -111370.777 156702.599 -111387.253 156682.893 -111401.868 156661.85 -111414.48 156639.671 -111424.97 156616.572 -111433.235 156592.773 -111439.196 156568.505 -111442.796 156544.001 -111444 155893.999 -111444 155869.495 -111442.796 155845.227 -111439.196 155821.428 -111433.235 155798.329 -111424.97 155776.15 -111414.48 155755.107 -111401.868 155735.401 -111387.253 155717.223 -111370.777 155700.747 -111352.599 155686.132 -111332.893 155673.52 -111311.85 155663.03 -111289.671 155654.765 -111266.572 155648.804 -111242.773 155645.204 -111218.505 155644 -111194.001 155644 -110293.999 155645.204 -110269.495 155648.804 -110245.227 155654.765 -110221.428 155663.03 -110198.329 155673.52 -110176.15 155686.132 -110155.107 155700.747 -110135.401 155717.223 -110117.223 155735.401 -110100.747 155755.107 -110086.132 155776.15 -110073.52 155798.329 -110063.03 155821.428 -110054.765 155845.227 -110048.804 155869.495 -110045.204 155893.999 -110044 156544.001 -110044 156568.505 -110045.204 156568.505 -110045.204"/><use xlink:href="#o2tRfAC2OeeCPf-jkxp0_pad-12" x="156219" y="-110744"/><path d="M 156568.505 -112331.204 156592.773 -112334.804 156616.572 -112340.765 156639.671 -112349.03 156661.85 -112359.52 156682.893 -112372.132 156702.599 -112386.747 156720.777 -112403.223 156737.253 -112421.401 156751.868 -112441.107 156764.48 -112462.15 156774.97 -112484.329 156783.235 -112507.428 156789.196 -112531.227 156792.796 -112555.495 156794 -112579.999 156794 -113480.001 156792.796 -113504.505 156789.196 -113528.773 156783.235 -113552.572 156774.97 -113575.671 156764.48 -113597.85 156751.868 -113618.893 156737.253 -113638.599 156720.777 -113656.777 156702.599 -113673.253 156682.893 -113687.868 156661.85 -113700.48 156639.671 -113710.97 156616.572 -113719.235 156592.773 -113725.196 156568.505 -113728.796 156544.001 -113730 155893.999 -113730 155869.495 -113728.796 155845.227 -113725.196 155821.428 -113719.235 155798.329 -113710.97 155776.15 -113700.48 155755.107 -113687.868 155735.401 -113673.253 155717.223 -113656.777 155700.747 -113638.599 155686.132 -113618.893 155673.52 -113597.85 155663.03 -113575.671 155654.765 -113552.572 155648.804 -113528.773 155645.204 -113504.505 155644 -113480.001 155644 -112579.999 155645.204 -112555.495 155648.804 -112531.227 155654.765 -112507.428 155663.03 -112484.329 155673.52 -112462.15 155686.132 -112441.107 155700.747 -112421.401 155717.223 -112403.223 155735.401 -112386.747 155755.107 -112372.132 155776.15 -112359.52 155798.329 -112349.03 155821.428 -112340.765 155845.227 -112334.804 155869.495 -112331.204 155893.999 -112330 156544.001 -112330 156568.505 -112331.204 156568.505 -112331.204"/><use xlink:href="#o2tRfAC2OeeCPf-jkxp0_pad-12" x="156219" y="-113030"/><path d="M 154518.505 -112331.204 154542.773 -112334.804 154566.572 -112340.765 154589.671 -112349.03 154611.85 -112359.52 154632.893 -112372.132 154652.599 -112386.747 154670.777 -112403.223 154687.253 -112421.401 154701.868 -112441.107 154714.48 -112462.15 154724.97 -112484.329 154733.235 -112507.428 154739.196 -112531.227 154742.796 -112555.495 154744 -112579.999 154744 -113480.001 154742.796 -113504.505 154739.196 -113528.773 154733.235 -113552.572 154724.97 -113575.671 154714.48 -113597.85 154701.868 -113618.893 154687.253 -113638.599 154670.777 -113656.777 154652.599 -113673.253 154632.893 -113687.868 154611.85 -113700.48 154589.671 -113710.97 154566.572 -113719.235 154542.773 -113725.196 154518.505 -113728.796 154494.001 -113730 153843.999 -113730 153819.495 -113728.796 153795.227 -113725.196 153771.428 -113719.235 153748.329 -113710.97 153726.15 -113700.48 153705.107 -113687.868 153685.401 -113673.253 153667.223 -113656.777 153650.747 -113638.599 153636.132 -113618.893 153623.52 -113597.85 153613.03 -113575.671 153604.765 -113552.572 153598.804 -113528.773 153595.204 -113504.505 153594 -113480.001 153594 -112579.999 153595.204 -112555.495 153598.804 -112531.227 153604.765 -112507.428 153613.03 -112484.329 153623.52 -112462.15 153636.132 -112441.107 153650.747 -112421.401 153667.223 -112403.223 153685.401 -112386.747 153705.107 -112372.132 153726.15 -112359.52 153748.329 -112349.03 153771.428 -112340.765 153795.227 -112334.804 153819.495 -112331.204 153843.999 -112330 154494.001 -112330 154518.505 -112331.204 154518.505 -112331.204"/><use xlink:href="#o2tRfAC2OeeCPf-jkxp0_pad-12" x="154169" y="-113030"/></g><g id="lCpLQ-624iJw4kLatod0_bottom_drill1" transform="scale(25.4,25.4)"><path d="M 6370 -4188.2 6370 -4211.8 M 6370 -4428.2 6370 -4451.8 M 6370 -4308.2 6370 -4331.8 M 6370 -4068.2 6370 -4091.8" fill="none" stroke-width="70.9"/></g><g id="lCpLQ-624iJw4kLatod0_bottom_drill2" transform="scale(25.4,25.4)"><use xlink:href="#ZC3ly6M5eM9GSjbbF7A4_pad-1" x="6070" y="-4070"/><use xlink:href="#ZC3ly6M5eM9GSjbbF7A4_pad-1" x="6170" y="-4070"/></g><clipPath id="lCpLQ-624iJw4kLatod0_bottom_outline"><path d="M 152400 -114300 152400 -101600 165100 -101600 165100 -114300 152400 -114300" fill="none" stroke-width="2.54"/></clipPath><mask id="lCpLQ-624iJw4kLatod0_bottom_mech-mask"><g fill="#000" stroke="#000"><rect x="152400" y="-114300" width="12700" height="12700" fill="#fff"/><use xlink:href="#lCpLQ-624iJw4kLatod0_bottom_drill1"/><use xlink:href="#lCpLQ-624iJw4kLatod0_bottom_drill2"/></g></mask><mask id="lCpLQ-624iJw4kLatod0_bottom_cf-mask"><g fill="#fff" stroke="#fff"><use xlink:href="#lCpLQ-624iJw4kLatod0_bottom_soldermask"/></g></mask><mask id="lCpLQ-624iJw4kLatod0_bottom_sm-mask"><g fill="#000" stroke="#000"><rect x="152400" y="-114300" width="12700" height="12700" fill="#fff"/><use xlink:href="#lCpLQ-624iJw4kLatod0_bottom_soldermask"/></g></mask></defs><g transform="translate(0,-215900) scale(1,-1)"><g mask="url(#lCpLQ-624iJw4kLatod0_bottom_mech-mask)" clip-path="url(#lCpLQ-624iJw4kLatod0_bottom_outline)" transform="translate(317500,0) scale(-1,1)"><rect x="152400" y="-114300" width="12700" height="12700" fill="currentColor" class="lCpLQ-624iJw4kLatod0_fr4"/><use xlink:href="#lCpLQ-624iJw4kLatod0_bottom_copper" fill="currentColor" stroke="currentColor" class="lCpLQ-624iJw4kLatod0_cu"/><use xlink:href="#lCpLQ-624iJw4kLatod0_bottom_copper" fill="currentColor" stroke="currentColor" class="lCpLQ-624iJw4kLatod0_cf" mask="url(#lCpLQ-624iJw4kLatod0_bottom_cf-mask)"/><g mask="url(#lCpLQ-624iJw4kLatod0_bottom_sm-mask)"><rect x="152400" y="-114300" width="12700" height="12700" fill="currentColor" class="lCpLQ-624iJw4kLatod0_sm"/><use xlink:href="#lCpLQ-624iJw4kLatod0_bottom_silkscreen" fill="currentColor" stroke="currentColor" class="lCpLQ-624iJw4kLatod0_ss"/></g><use xlink:href="#lCpLQ-624iJw4kLatod0_bottom_solderpaste" fill="currentColor" stroke="currentColor" class="lCpLQ-624iJw4kLatod0_sp"/></g></g></svg>