<?xml version="1.0" encoding="UTF-8" standalone="no"?>
<svg
   xmlns:dc="http://purl.org/dc/elements/1.1/"
   xmlns:cc="http://creativecommons.org/ns#"
   xmlns:rdf="http://www.w3.org/1999/02/22-rdf-syntax-ns#"
   xmlns:svg="http://www.w3.org/2000/svg"
   xmlns="http://www.w3.org/2000/svg"
   xmlns:xlink="http://www.w3.org/1999/xlink"
   xmlns:sodipodi="http://sodipodi.sourceforge.net/DTD/sodipodi-0.dtd"
   xmlns:inkscape="http://www.inkscape.org/namespaces/inkscape"
   version="1.1"
   id="lCpLQ-624iJw4kLatod0_bottom"
   viewBox="152400 -114300 127000 127000"
   width="5in"
   height="5in"
   class="w-100 h-100"
   inkscape:version="0.91 r13725"
   sodipodi:docname="bottom.svg"
   style="clip-rule:evenodd;fill-rule:evenodd;stroke-width:0;stroke-linecap:round;stroke-linejoin:round">
  <metadata
     id="metadata4664">
    <rdf:RDF>
      <cc:Work
         rdf:about="">
        <dc:format>image/svg+xml</dc:format>
        <dc:type
           rdf:resource="http://purl.org/dc/dcmitype/StillImage" />
        <dc:title />
      </cc:Work>
    </rdf:RDF>
  </metadata>
  <sodipodi:namedview
     pagecolor="#ffffff"
     bordercolor="#666666"
     borderopacity="1"
     objecttolerance="10"
     gridtolerance="10"
     guidetolerance="10"
     inkscape:pageopacity="0"
     inkscape:pageshadow="2"
     inkscape:window-width="1855"
     inkscape:window-height="1056"
     id="namedview4662"
     showgrid="false"
     units="in"
     fit-margin-top="0"
     fit-margin-left="0"
     fit-margin-right="0"
     fit-margin-bottom="0"
     inkscape:zoom="1.2763889"
     inkscape:cx="173.7969"
     inkscape:cy="195.54396"
     inkscape:window-x="65"
     inkscape:window-y="24"
     inkscape:window-maximized="1"
     inkscape:current-layer="layer2" />
  <defs
     id="defs4429">
    <style
       id="style4431">.lCpLQ-624iJw4kLatod0_fr4 {color: #666666;}
.lCpLQ-624iJw4kLatod0_cu {color: #cccccc;}
.lCpLQ-624iJw4kLatod0_cf {color: #cc9933;}
.lCpLQ-624iJw4kLatod0_sm {color: #4b0082; opacity: 0.75;}
.lCpLQ-624iJw4kLatod0_ss {color: #ffffff;}
.lCpLQ-624iJw4kLatod0_sp {color: #999999;}
.lCpLQ-624iJw4kLatod0_out {color: #000000;}</style>
    <circle
       cx="0"
       cy="0"
       r="712.5"
       id="EG-AlwmFH-GzvUCTtHs0_pad-11" />
    <rect
       x="-850"
       y="-850"
       width="1700"
       height="1700"
       id="EG-AlwmFH-GzvUCTtHs0_pad-12" />
    <rect
       x="-850"
       y="-850"
       width="1700"
       height="1700"
       rx="850"
       ry="850"
       id="EG-AlwmFH-GzvUCTtHs0_pad-13" />
    <circle
       cx="0"
       cy="0"
       r="575"
       id="EG-AlwmFH-GzvUCTtHs0_pad-14" />
    <circle
       cx="0"
       cy="0"
       r="712.5"
       id="o2tRfAC2OeeCPf-jkxp0_pad-11" />
    <circle
       cx="0"
       cy="0"
       r="575"
       id="o2tRfAC2OeeCPf-jkxp0_pad-12" />
    <circle
       cx="0"
       cy="0"
       r="19.700001"
       id="ZC3ly6M5eM9GSjbbF7A4_pad-1" />
    <g
       id="lCpLQ-624iJw4kLatod0_bottom_copper">
      <path
         d="m 164040.94,-102758.37 27.66,-4.11 27.13,-6.79 26.34,-9.42 25.28,-11.96 23.99,-14.38 22.46,-16.66 20.72,-18.79 18.79,-20.72 16.66,-22.46 14.38,-23.99 11.96,-25.29 9.42,-26.33 6.79,-27.13 4.11,-27.67 1.37,-27.93 0,-1180 -1.37,-27.94 -4.11,-27.66 -6.79,-27.13 -9.42,-26.34 -11.96,-25.28 -14.38,-23.99 -16.66,-22.46 -18.79,-20.72 -20.72,-18.79 -22.46,-16.66 -23.99,-14.38 -25.28,-11.96 -26.34,-9.42 -27.13,-6.79 -27.66,-4.11 -27.94,-1.37 -855,0 -27.93,1.37 -27.67,4.11 -27.13,6.79 -26.33,9.42 -25.29,11.96 -23.99,14.38 -22.46,16.66 -20.72,18.79 -18.79,20.72 -16.66,22.46 -14.38,23.99 -11.96,25.28 -9.42,26.34 -6.79,27.13 -4.11,27.66 -1.37,27.94 0,1180 1.37,27.93 4.11,27.67 6.79,27.13 9.42,26.33 11.96,25.29 14.38,23.99 16.66,22.46 18.79,20.72 20.72,18.79 22.46,16.66 23.99,14.38 25.29,11.96 26.33,9.42 27.13,6.79 27.67,4.11 27.93,1.37 855,0 27.94,-1.37 0,0"
         id="path4441"
         inkscape:connector-curvature="0" />
      <use
         xlink:href="#EG-AlwmFH-GzvUCTtHs0_pad-11"
         x="163585.5"
         y="-103632"
         id="use4443"
         width="100%"
         height="100%" />
      <path
         d="m 160465.94,-102758.37 27.66,-4.11 27.13,-6.79 26.34,-9.42 25.28,-11.96 23.99,-14.38 22.46,-16.66 20.72,-18.79 18.79,-20.72 16.66,-22.46 14.38,-23.99 11.96,-25.29 9.42,-26.33 6.79,-27.13 4.11,-27.67 1.37,-27.93 0,-1180 -1.37,-27.94 -4.11,-27.66 -6.79,-27.13 -9.42,-26.34 -11.96,-25.28 -14.38,-23.99 -16.66,-22.46 -18.79,-20.72 -20.72,-18.79 -22.46,-16.66 -23.99,-14.38 -25.28,-11.96 -26.34,-9.42 -27.13,-6.79 -27.66,-4.11 -27.94,-1.37 -855,0 -27.93,1.37 -27.67,4.11 -27.13,6.79 -26.33,9.42 -25.29,11.96 -23.99,14.38 -22.46,16.66 -20.72,18.79 -18.79,20.72 -16.66,22.46 -14.38,23.99 -11.96,25.28 -9.42,26.34 -6.79,27.13 -4.11,27.66 -1.37,27.94 0,1180 1.37,27.93 4.11,27.67 6.79,27.13 9.42,26.33 11.96,25.29 14.38,23.99 16.66,22.46 18.79,20.72 20.72,18.79 22.46,16.66 23.99,14.38 25.29,11.96 26.33,9.42 27.13,6.79 27.67,4.11 27.93,1.37 855,0 27.94,-1.37 0,0"
         id="path4445"
         inkscape:connector-curvature="0" />
      <use
         xlink:href="#EG-AlwmFH-GzvUCTtHs0_pad-11"
         x="160010.5"
         y="-103632"
         id="use4447"
         width="100%"
         height="100%" />
      <path
         d="m 160465.94,-105806.37 27.66,-4.11 27.13,-6.79 26.34,-9.42 25.28,-11.96 23.99,-14.38 22.46,-16.66 20.72,-18.79 18.79,-20.72 16.66,-22.46 14.38,-23.99 11.96,-25.29 9.42,-26.33 6.79,-27.13 4.11,-27.67 1.37,-27.93 0,-1180 -1.37,-27.94 -4.11,-27.66 -6.79,-27.13 -9.42,-26.34 -11.96,-25.28 -14.38,-23.99 -16.66,-22.46 -18.79,-20.72 -20.72,-18.79 -22.46,-16.66 -23.99,-14.38 -25.28,-11.96 -26.34,-9.42 -27.13,-6.79 -27.66,-4.11 -27.94,-1.37 -855,0 -27.93,1.37 -27.67,4.11 -27.13,6.79 -26.33,9.42 -25.29,11.96 -23.99,14.38 -22.46,16.66 -20.72,18.79 -18.79,20.72 -16.66,22.46 -14.38,23.99 -11.96,25.28 -9.42,26.34 -6.79,27.13 -4.11,27.66 -1.37,27.94 0,1180 1.37,27.93 4.11,27.67 6.79,27.13 9.42,26.33 11.96,25.29 14.38,23.99 16.66,22.46 18.79,20.72 20.72,18.79 22.46,16.66 23.99,14.38 25.29,11.96 26.33,9.42 27.13,6.79 27.67,4.11 27.93,1.37 855,0 27.94,-1.37 0,0"
         id="path4449"
         inkscape:connector-curvature="0" />
      <use
         xlink:href="#EG-AlwmFH-GzvUCTtHs0_pad-11"
         x="160010.5"
         y="-106680"
         id="use4451"
         width="100%"
         height="100%" />
      <path
         d="m 164040.94,-105806.37 27.66,-4.11 27.13,-6.79 26.34,-9.42 25.28,-11.96 23.99,-14.38 22.46,-16.66 20.72,-18.79 18.79,-20.72 16.66,-22.46 14.38,-23.99 11.96,-25.29 9.42,-26.33 6.79,-27.13 4.11,-27.67 1.37,-27.93 0,-1180 -1.37,-27.94 -4.11,-27.66 -6.79,-27.13 -9.42,-26.34 -11.96,-25.28 -14.38,-23.99 -16.66,-22.46 -18.79,-20.72 -20.72,-18.79 -22.46,-16.66 -23.99,-14.38 -25.28,-11.96 -26.34,-9.42 -27.13,-6.79 -27.66,-4.11 -27.94,-1.37 -855,0 -27.93,1.37 -27.67,4.11 -27.13,6.79 -26.33,9.42 -25.29,11.96 -23.99,14.38 -22.46,16.66 -20.72,18.79 -18.79,20.72 -16.66,22.46 -14.38,23.99 -11.96,25.28 -9.42,26.34 -6.79,27.13 -4.11,27.66 -1.37,27.94 0,1180 1.37,27.93 4.11,27.67 6.79,27.13 9.42,26.33 11.96,25.29 14.38,23.99 16.66,22.46 18.79,20.72 20.72,18.79 22.46,16.66 23.99,14.38 25.29,11.96 26.33,9.42 27.13,6.79 27.67,4.11 27.93,1.37 855,0 27.94,-1.37 0,0"
         id="path4453"
         inkscape:connector-curvature="0" />
      <use
         xlink:href="#EG-AlwmFH-GzvUCTtHs0_pad-11"
         x="163585.5"
         y="-106680"
         id="use4455"
         width="100%"
         height="100%" />
      <use
         xlink:href="#EG-AlwmFH-GzvUCTtHs0_pad-12"
         x="154178"
         y="-103378"
         id="use4457"
         width="100%"
         height="100%" />
      <use
         xlink:href="#EG-AlwmFH-GzvUCTtHs0_pad-13"
         x="156718"
         y="-103378"
         id="use4459"
         width="100%"
         height="100%" />
      <path
         d="m 154518.51,-105473.2 24.26,-3.6 23.8,-5.97 23.1,-8.26 22.18,-10.49 21.04,-12.61 19.71,-14.62 18.18,-16.47 16.47,-18.18 14.62,-19.71 12.61,-21.04 10.49,-22.18 8.26,-23.1 5.97,-23.8 3.6,-24.27 1.2,-24.5 0,-900 -1.2,-24.51 -3.6,-24.26 -5.97,-23.8 -8.26,-23.1 -10.49,-22.18 -12.61,-21.04 -14.62,-19.71 -16.47,-18.18 -18.18,-16.47 -19.71,-14.62 -21.04,-12.61 -22.18,-10.49 -23.1,-8.27 -23.8,-5.96 -24.26,-3.6 -24.51,-1.2 -650,0 -24.5,1.2 -24.27,3.6 -23.8,5.96 -23.1,8.27 -22.18,10.49 -21.04,12.61 -19.71,14.62 -18.18,16.47 -16.47,18.18 -14.62,19.71 -12.61,21.04 -10.49,22.18 -8.26,23.1 -5.97,23.8 -3.6,24.26 -1.2,24.51 0,900 1.2,24.5 3.6,24.27 5.97,23.8 8.26,23.1 10.49,22.18 12.61,21.04 14.62,19.71 16.47,18.18 18.18,16.47 19.71,14.62 21.04,12.61 22.18,10.49 23.1,8.26 23.8,5.97 24.27,3.6 24.5,1.2 650,0 24.51,-1.2 0,0"
         id="path4461"
         inkscape:connector-curvature="0" />
      <use
         xlink:href="#EG-AlwmFH-GzvUCTtHs0_pad-14"
         x="154169"
         y="-106172"
         id="use4463"
         width="100%"
         height="100%" />
      <path
         d="m 156568.51,-105473.2 24.26,-3.6 23.8,-5.97 23.1,-8.26 22.18,-10.49 21.04,-12.61 19.71,-14.62 18.18,-16.47 16.47,-18.18 14.62,-19.71 12.61,-21.04 10.49,-22.18 8.26,-23.1 5.97,-23.8 3.6,-24.27 1.2,-24.5 0,-900 -1.2,-24.51 -3.6,-24.26 -5.97,-23.8 -8.26,-23.1 -10.49,-22.18 -12.61,-21.04 -14.62,-19.71 -16.47,-18.18 -18.18,-16.47 -19.71,-14.62 -21.04,-12.61 -22.18,-10.49 -23.1,-8.27 -23.8,-5.96 -24.26,-3.6 -24.51,-1.2 -650,0 -24.5,1.2 -24.27,3.6 -23.8,5.96 -23.1,8.27 -22.18,10.49 -21.04,12.61 -19.71,14.62 -18.18,16.47 -16.47,18.18 -14.62,19.71 -12.61,21.04 -10.49,22.18 -8.26,23.1 -5.97,23.8 -3.6,24.26 -1.2,24.51 0,900 1.2,24.5 3.6,24.27 5.97,23.8 8.26,23.1 10.49,22.18 12.61,21.04 14.62,19.71 16.47,18.18 18.18,16.47 19.71,14.62 21.04,12.61 22.18,10.49 23.1,8.26 23.8,5.97 24.27,3.6 24.5,1.2 650,0 24.51,-1.2 0,0"
         id="path4465"
         inkscape:connector-curvature="0" />
      <use
         xlink:href="#EG-AlwmFH-GzvUCTtHs0_pad-14"
         x="156219"
         y="-106172"
         id="use4467"
         width="100%"
         height="100%" />
      <path
         d="m 156568.51,-107759.2 24.26,-3.6 23.8,-5.97 23.1,-8.26 22.18,-10.49 21.04,-12.61 19.71,-14.62 18.18,-16.47 16.47,-18.18 14.62,-19.71 12.61,-21.04 10.49,-22.18 8.26,-23.1 5.97,-23.8 3.6,-24.27 1.2,-24.5 0,-900 -1.2,-24.51 -3.6,-24.26 -5.97,-23.8 -8.26,-23.1 -10.49,-22.18 -12.61,-21.04 -14.62,-19.71 -16.47,-18.18 -18.18,-16.47 -19.71,-14.62 -21.04,-12.61 -22.18,-10.49 -23.1,-8.27 -23.8,-5.96 -24.26,-3.6 -24.51,-1.2 -650,0 -24.5,1.2 -24.27,3.6 -23.8,5.96 -23.1,8.27 -22.18,10.49 -21.04,12.61 -19.71,14.62 -18.18,16.47 -16.47,18.18 -14.62,19.71 -12.61,21.04 -10.49,22.18 -8.26,23.1 -5.97,23.8 -3.6,24.26 -1.2,24.51 0,900 1.2,24.5 3.6,24.27 5.97,23.8 8.26,23.1 10.49,22.18 12.61,21.04 14.62,19.71 16.47,18.18 18.18,16.47 19.71,14.62 21.04,12.61 22.18,10.49 23.1,8.26 23.8,5.97 24.27,3.6 24.5,1.2 650,0 24.51,-1.2 0,0"
         id="path4469"
         inkscape:connector-curvature="0" />
      <use
         xlink:href="#EG-AlwmFH-GzvUCTtHs0_pad-14"
         x="156219"
         y="-108458"
         id="use4471"
         width="100%"
         height="100%" />
      <path
         d="m 154518.51,-107759.2 24.26,-3.6 23.8,-5.97 23.1,-8.26 22.18,-10.49 21.04,-12.61 19.71,-14.62 18.18,-16.47 16.47,-18.18 14.62,-19.71 12.61,-21.04 10.49,-22.18 8.26,-23.1 5.97,-23.8 3.6,-24.27 1.2,-24.5 0,-900 -1.2,-24.51 -3.6,-24.26 -5.97,-23.8 -8.26,-23.1 -10.49,-22.18 -12.61,-21.04 -14.62,-19.71 -16.47,-18.18 -18.18,-16.47 -19.71,-14.62 -21.04,-12.61 -22.18,-10.49 -23.1,-8.27 -23.8,-5.96 -24.26,-3.6 -24.51,-1.2 -650,0 -24.5,1.2 -24.27,3.6 -23.8,5.96 -23.1,8.27 -22.18,10.49 -21.04,12.61 -19.71,14.62 -18.18,16.47 -16.47,18.18 -14.62,19.71 -12.61,21.04 -10.49,22.18 -8.26,23.1 -5.97,23.8 -3.6,24.26 -1.2,24.51 0,900 1.2,24.5 3.6,24.27 5.97,23.8 8.26,23.1 10.49,22.18 12.61,21.04 14.62,19.71 16.47,18.18 18.18,16.47 19.71,14.62 21.04,12.61 22.18,10.49 23.1,8.26 23.8,5.97 24.27,3.6 24.5,1.2 650,0 24.51,-1.2 0,0"
         id="path4473"
         inkscape:connector-curvature="0" />
      <use
         xlink:href="#EG-AlwmFH-GzvUCTtHs0_pad-14"
         x="154169"
         y="-108458"
         id="use4475"
         width="100%"
         height="100%" />
      <path
         d="m 164040.94,-108854.37 27.66,-4.11 27.13,-6.79 26.34,-9.42 25.28,-11.96 23.99,-14.38 22.46,-16.66 20.72,-18.79 18.79,-20.72 16.66,-22.46 14.38,-23.99 11.96,-25.29 9.42,-26.33 6.79,-27.13 4.11,-27.67 1.37,-27.93 0,-1180 -1.37,-27.94 -4.11,-27.66 -6.79,-27.13 -9.42,-26.34 -11.96,-25.28 -14.38,-23.99 -16.66,-22.46 -18.79,-20.72 -20.72,-18.79 -22.46,-16.66 -23.99,-14.38 -25.28,-11.96 -26.34,-9.42 -27.13,-6.79 -27.66,-4.11 -27.94,-1.37 -855,0 -27.93,1.37 -27.67,4.11 -27.13,6.79 -26.33,9.42 -25.29,11.96 -23.99,14.38 -22.46,16.66 -20.72,18.79 -18.79,20.72 -16.66,22.46 -14.38,23.99 -11.96,25.28 -9.42,26.34 -6.79,27.13 -4.11,27.66 -1.37,27.94 0,1180 1.37,27.93 4.11,27.67 6.79,27.13 9.42,26.33 11.96,25.29 14.38,23.99 16.66,22.46 18.79,20.72 20.72,18.79 22.46,16.66 23.99,14.38 25.29,11.96 26.33,9.42 27.13,6.79 27.67,4.11 27.93,1.37 855,0 27.94,-1.37 0,0"
         id="path4477"
         inkscape:connector-curvature="0" />
      <use
         xlink:href="#EG-AlwmFH-GzvUCTtHs0_pad-11"
         x="163585.5"
         y="-109728"
         id="use4479"
         width="100%"
         height="100%" />
      <path
         d="m 160465.94,-108854.37 27.66,-4.11 27.13,-6.79 26.34,-9.42 25.28,-11.96 23.99,-14.38 22.46,-16.66 20.72,-18.79 18.79,-20.72 16.66,-22.46 14.38,-23.99 11.96,-25.29 9.42,-26.33 6.79,-27.13 4.11,-27.67 1.37,-27.93 0,-1180 -1.37,-27.94 -4.11,-27.66 -6.79,-27.13 -9.42,-26.34 -11.96,-25.28 -14.38,-23.99 -16.66,-22.46 -18.79,-20.72 -20.72,-18.79 -22.46,-16.66 -23.99,-14.38 -25.28,-11.96 -26.34,-9.42 -27.13,-6.79 -27.66,-4.11 -27.94,-1.37 -855,0 -27.93,1.37 -27.67,4.11 -27.13,6.79 -26.33,9.42 -25.29,11.96 -23.99,14.38 -22.46,16.66 -20.72,18.79 -18.79,20.72 -16.66,22.46 -14.38,23.99 -11.96,25.28 -9.42,26.34 -6.79,27.13 -4.11,27.66 -1.37,27.94 0,1180 1.37,27.93 4.11,27.67 6.79,27.13 9.42,26.33 11.96,25.29 14.38,23.99 16.66,22.46 18.79,20.72 20.72,18.79 22.46,16.66 23.99,14.38 25.29,11.96 26.33,9.42 27.13,6.79 27.67,4.11 27.93,1.37 855,0 27.94,-1.37 0,0"
         id="path4481"
         inkscape:connector-curvature="0" />
      <use
         xlink:href="#EG-AlwmFH-GzvUCTtHs0_pad-11"
         x="160010.5"
         y="-109728"
         id="use4483"
         width="100%"
         height="100%" />
      <path
         d="m 160465.94,-111902.37 27.66,-4.11 27.13,-6.79 26.34,-9.42 25.28,-11.96 23.99,-14.38 22.46,-16.66 20.72,-18.79 18.79,-20.72 16.66,-22.46 14.38,-23.99 11.96,-25.29 9.42,-26.33 6.79,-27.13 4.11,-27.67 1.37,-27.93 0,-1180 -1.37,-27.94 -4.11,-27.66 -6.79,-27.13 -9.42,-26.34 -11.96,-25.28 -14.38,-23.99 -16.66,-22.46 -18.79,-20.72 -20.72,-18.79 -22.46,-16.66 -23.99,-14.38 -25.28,-11.96 -26.34,-9.42 -27.13,-6.79 -27.66,-4.11 -27.94,-1.37 -855,0 -27.93,1.37 -27.67,4.11 -27.13,6.79 -26.33,9.42 -25.29,11.96 -23.99,14.38 -22.46,16.66 -20.72,18.79 -18.79,20.72 -16.66,22.46 -14.38,23.99 -11.96,25.28 -9.42,26.34 -6.79,27.13 -4.11,27.66 -1.37,27.94 0,1180 1.37,27.93 4.11,27.67 6.79,27.13 9.42,26.33 11.96,25.29 14.38,23.99 16.66,22.46 18.79,20.72 20.72,18.79 22.46,16.66 23.99,14.38 25.29,11.96 26.33,9.42 27.13,6.79 27.67,4.11 27.93,1.37 855,0 27.94,-1.37 0,0"
         id="path4485"
         inkscape:connector-curvature="0" />
      <use
         xlink:href="#EG-AlwmFH-GzvUCTtHs0_pad-11"
         x="160010.5"
         y="-112776"
         id="use4487"
         width="100%"
         height="100%" />
      <path
         d="m 164040.94,-111902.37 27.66,-4.11 27.13,-6.79 26.34,-9.42 25.28,-11.96 23.99,-14.38 22.46,-16.66 20.72,-18.79 18.79,-20.72 16.66,-22.46 14.38,-23.99 11.96,-25.29 9.42,-26.33 6.79,-27.13 4.11,-27.67 1.37,-27.93 0,-1180 -1.37,-27.94 -4.11,-27.66 -6.79,-27.13 -9.42,-26.34 -11.96,-25.28 -14.38,-23.99 -16.66,-22.46 -18.79,-20.72 -20.72,-18.79 -22.46,-16.66 -23.99,-14.38 -25.28,-11.96 -26.34,-9.42 -27.13,-6.79 -27.66,-4.11 -27.94,-1.37 -855,0 -27.93,1.37 -27.67,4.11 -27.13,6.79 -26.33,9.42 -25.29,11.96 -23.99,14.38 -22.46,16.66 -20.72,18.79 -18.79,20.72 -16.66,22.46 -14.38,23.99 -11.96,25.28 -9.42,26.34 -6.79,27.13 -4.11,27.66 -1.37,27.94 0,1180 1.37,27.93 4.11,27.67 6.79,27.13 9.42,26.33 11.96,25.29 14.38,23.99 16.66,22.46 18.79,20.72 20.72,18.79 22.46,16.66 23.99,14.38 25.29,11.96 26.33,9.42 27.13,6.79 27.67,4.11 27.93,1.37 855,0 27.94,-1.37 0,0"
         id="path4489"
         inkscape:connector-curvature="0" />
      <use
         xlink:href="#EG-AlwmFH-GzvUCTtHs0_pad-11"
         x="163585.5"
         y="-112776"
         id="use4491"
         width="100%"
         height="100%" />
      <path
         d="m 154518.51,-110045.2 24.26,-3.6 23.8,-5.97 23.1,-8.26 22.18,-10.49 21.04,-12.61 19.71,-14.62 18.18,-16.47 16.47,-18.18 14.62,-19.71 12.61,-21.04 10.49,-22.18 8.26,-23.1 5.97,-23.8 3.6,-24.27 1.2,-24.5 0,-900 -1.2,-24.51 -3.6,-24.26 -5.97,-23.8 -8.26,-23.1 -10.49,-22.18 -12.61,-21.04 -14.62,-19.71 -16.47,-18.18 -18.18,-16.47 -19.71,-14.62 -21.04,-12.61 -22.18,-10.49 -23.1,-8.27 -23.8,-5.96 -24.26,-3.6 -24.51,-1.2 -650,0 -24.5,1.2 -24.27,3.6 -23.8,5.96 -23.1,8.27 -22.18,10.49 -21.04,12.61 -19.71,14.62 -18.18,16.47 -16.47,18.18 -14.62,19.71 -12.61,21.04 -10.49,22.18 -8.26,23.1 -5.97,23.8 -3.6,24.26 -1.2,24.51 0,900 1.2,24.5 3.6,24.27 5.97,23.8 8.26,23.1 10.49,22.18 12.61,21.04 14.62,19.71 16.47,18.18 18.18,16.47 19.71,14.62 21.04,12.61 22.18,10.49 23.1,8.26 23.8,5.97 24.27,3.6 24.5,1.2 650,0 24.51,-1.2 0,0"
         id="path4493"
         inkscape:connector-curvature="0" />
      <use
         xlink:href="#EG-AlwmFH-GzvUCTtHs0_pad-14"
         x="154169"
         y="-110744"
         id="use4495"
         width="100%"
         height="100%" />
      <path
         d="m 156568.51,-110045.2 24.26,-3.6 23.8,-5.97 23.1,-8.26 22.18,-10.49 21.04,-12.61 19.71,-14.62 18.18,-16.47 16.47,-18.18 14.62,-19.71 12.61,-21.04 10.49,-22.18 8.26,-23.1 5.97,-23.8 3.6,-24.27 1.2,-24.5 0,-900 -1.2,-24.51 -3.6,-24.26 -5.97,-23.8 -8.26,-23.1 -10.49,-22.18 -12.61,-21.04 -14.62,-19.71 -16.47,-18.18 -18.18,-16.47 -19.71,-14.62 -21.04,-12.61 -22.18,-10.49 -23.1,-8.27 -23.8,-5.96 -24.26,-3.6 -24.51,-1.2 -650,0 -24.5,1.2 -24.27,3.6 -23.8,5.96 -23.1,8.27 -22.18,10.49 -21.04,12.61 -19.71,14.62 -18.18,16.47 -16.47,18.18 -14.62,19.71 -12.61,21.04 -10.49,22.18 -8.26,23.1 -5.97,23.8 -3.6,24.26 -1.2,24.51 0,900 1.2,24.5 3.6,24.27 5.97,23.8 8.26,23.1 10.49,22.18 12.61,21.04 14.62,19.71 16.47,18.18 18.18,16.47 19.71,14.62 21.04,12.61 22.18,10.49 23.1,8.26 23.8,5.97 24.27,3.6 24.5,1.2 650,0 24.51,-1.2 0,0"
         id="path4497"
         inkscape:connector-curvature="0" />
      <use
         xlink:href="#EG-AlwmFH-GzvUCTtHs0_pad-14"
         x="156219"
         y="-110744"
         id="use4499"
         width="100%"
         height="100%" />
      <path
         d="m 156568.51,-112331.2 24.26,-3.6 23.8,-5.97 23.1,-8.26 22.18,-10.49 21.04,-12.61 19.71,-14.62 18.18,-16.47 16.47,-18.18 14.62,-19.71 12.61,-21.04 10.49,-22.18 8.26,-23.1 5.97,-23.8 3.6,-24.27 1.2,-24.5 0,-900 -1.2,-24.51 -3.6,-24.26 -5.97,-23.8 -8.26,-23.1 -10.49,-22.18 -12.61,-21.04 -14.62,-19.71 -16.47,-18.18 -18.18,-16.47 -19.71,-14.62 -21.04,-12.61 -22.18,-10.49 -23.1,-8.27 -23.8,-5.96 -24.26,-3.6 -24.51,-1.2 -650,0 -24.5,1.2 -24.27,3.6 -23.8,5.96 -23.1,8.27 -22.18,10.49 -21.04,12.61 -19.71,14.62 -18.18,16.47 -16.47,18.18 -14.62,19.71 -12.61,21.04 -10.49,22.18 -8.26,23.1 -5.97,23.8 -3.6,24.26 -1.2,24.51 0,900 1.2,24.5 3.6,24.27 5.97,23.8 8.26,23.1 10.49,22.18 12.61,21.04 14.62,19.71 16.47,18.18 18.18,16.47 19.71,14.62 21.04,12.61 22.18,10.49 23.1,8.26 23.8,5.97 24.27,3.6 24.5,1.2 650,0 24.51,-1.2 0,0"
         id="path4501"
         inkscape:connector-curvature="0" />
      <use
         xlink:href="#EG-AlwmFH-GzvUCTtHs0_pad-14"
         x="156219"
         y="-113030"
         id="use4503"
         width="100%"
         height="100%" />
      <path
         d="m 154518.51,-112331.2 24.26,-3.6 23.8,-5.97 23.1,-8.26 22.18,-10.49 21.04,-12.61 19.71,-14.62 18.18,-16.47 16.47,-18.18 14.62,-19.71 12.61,-21.04 10.49,-22.18 8.26,-23.1 5.97,-23.8 3.6,-24.27 1.2,-24.5 0,-900 -1.2,-24.51 -3.6,-24.26 -5.97,-23.8 -8.26,-23.1 -10.49,-22.18 -12.61,-21.04 -14.62,-19.71 -16.47,-18.18 -18.18,-16.47 -19.71,-14.62 -21.04,-12.61 -22.18,-10.49 -23.1,-8.27 -23.8,-5.96 -24.26,-3.6 -24.51,-1.2 -650,0 -24.5,1.2 -24.27,3.6 -23.8,5.96 -23.1,8.27 -22.18,10.49 -21.04,12.61 -19.71,14.62 -18.18,16.47 -16.47,18.18 -14.62,19.71 -12.61,21.04 -10.49,22.18 -8.26,23.1 -5.97,23.8 -3.6,24.26 -1.2,24.51 0,900 1.2,24.5 3.6,24.27 5.97,23.8 8.26,23.1 10.49,22.18 12.61,21.04 14.62,19.71 16.47,18.18 18.18,16.47 19.71,14.62 21.04,12.61 22.18,10.49 23.1,8.26 23.8,5.97 24.27,3.6 24.5,1.2 650,0 24.51,-1.2 0,0"
         id="path4505"
         inkscape:connector-curvature="0" />
      <use
         xlink:href="#EG-AlwmFH-GzvUCTtHs0_pad-14"
         x="154169"
         y="-113030"
         id="use4507"
         width="100%"
         height="100%" />
      <path
         d="m 163585.5,-104607 0,-2073 m 0,3048 0,-975 m 0,-2073 0,-3048 0,-3048 m 0,10404.5 0,-1260.5 m -5665.42,254 1395.72,1395.72 3880.48,0 M 156718,-103378 l 1202.08,0 m 5276.2,1395.72 389.22,-389.22 m -7366.5,-3800.5 0,9 m 1261,-9 -1261,0 m 3791.5,2530.5 -2530.5,-2530.5 m 2530.5,2540 0,-9.5 m -1778,-4816.5 1778,1778 m -3791.5,-1778 2013.5,0 m -4063.5,5071 9,9 m 0,-2785 -9,-9 m 9,2794 0,-2785 m -9,-9 0,-2286 0,-2286 0,-2286 m 4825.5,2286 1016,1016 m -3791.5,-1016 2775.5,0 m 762,-2286 -3537.5,0 m 3791.5,254 -254,-254"
         id="path4509"
         inkscape:connector-curvature="0"
         style="fill:none;stroke-width:254" />
    </g>
    <g
       id="lCpLQ-624iJw4kLatod0_bottom_soldermask">
      <path
         d="m 161984.39,-111538.96 137.51,-41.71 41.71,-12.66 82.59,-44.14 82.59,-44.14 144.78,-118.82 118.82,-144.78 24.38,-45.61 13.83,-20.7 17.6,-17.6 20.7,-13.83 23,-9.53 24.42,-4.86 24.9,0 24.42,4.86 23,9.53 20.7,13.83 17.6,17.6 13.83,20.7 20.56,38.45 28.41,34.63 34.63,28.41 39.51,21.12 42.86,13 50.81,5.01 1055.9,0 50.81,-5.01 42.86,-13 39.51,-21.12 34.63,-28.41 28.41,-34.63 21.12,-39.51 13.01,-42.86 5,-50.81 0,-1380.9 -5,-50.81 -13.01,-42.86 -21.12,-39.51 -28.41,-34.63 -34.63,-28.42 -39.51,-21.11 -42.86,-13.01 -50.81,-5 -1055.9,0 -50.81,5 -42.86,13.01 -39.51,21.11 -34.63,28.42 -28.41,34.63 -20.56,38.45 -13.83,20.7 -17.6,17.6 -20.7,13.83 -23,9.53 -24.42,4.86 -24.9,0 -24.42,-4.86 -23,-9.53 -20.7,-13.83 -17.6,-17.6 -13.83,-20.7 -7,-13.08 -17.38,-32.54 -105.18,-128.15 -13.64,-16.62 -144.78,-118.82 -165.17,-88.29 -41.72,-12.65 -137.51,-41.71 -186.39,-18.36 -186.39,18.36 -137.51,41.71 -41.71,12.65 -165.18,88.29 -144.78,118.82 -55.62,67.78 -63.19,77 -24.39,45.61 -13.83,20.7 -17.6,17.6 -20.7,13.83 -23,9.53 -24.42,4.86 -24.9,0 -24.42,-4.86 -23,-9.53 -20.7,-13.83 -17.6,-17.6 -13.83,-20.7 -20.56,-38.45 -28.41,-34.63 -34.63,-28.42 -39.51,-21.11 -42.86,-13.01 -50.81,-5 -1055.9,0 -50.81,5 -42.86,13.01 -39.51,21.11 -34.63,28.42 -28.41,34.63 -21.12,39.51 -13.01,42.86 -5,50.81 0,1380.9 5,50.81 13.01,42.86 21.12,39.51 28.41,34.63 34.63,28.41 39.51,21.12 42.86,13 50.81,5.01 1055.9,0 50.81,-5.01 42.86,-13 39.51,-21.12 34.63,-28.41 28.41,-34.63 20.56,-38.45 13.83,-20.7 17.6,-17.6 20.7,-13.84 23,-9.52 24.42,-4.86 24.9,0 24.42,4.86 23,9.52 20.7,13.84 17.6,17.6 13.83,20.7 11.44,21.4 12.94,24.21 118.82,144.78 144.78,118.82 165.17,88.28 41.72,12.66 137.51,41.71 186.39,18.36 186.39,-18.36 0,0"
         id="path4512"
         inkscape:connector-curvature="0" />
      <path
         d="m 154633.45,-112283.65 37.47,-11.37 34.52,-18.45 30.26,-24.83 24.83,-30.26 18.45,-34.52 11.37,-37.47 4.45,-45.19 0,-1088.52 -4.45,-45.19 -11.37,-37.47 -18.45,-34.52 -24.83,-30.26 -30.26,-24.83 -34.52,-18.45 -37.47,-11.37 -45.19,-4.45 -838.52,0 -45.19,4.45 -37.47,11.37 -34.52,18.45 -30.26,24.83 -24.83,30.26 -18.45,34.52 -11.37,37.47 -4.45,45.19 0,1088.52 4.45,45.19 11.37,37.47 18.45,34.52 24.83,30.26 30.26,24.83 34.52,18.45 37.47,11.37 45.19,4.45 838.52,0 45.19,-4.45 0,0"
         id="path4514"
         inkscape:connector-curvature="0" />
      <path
         d="m 156683.45,-112283.65 37.47,-11.37 34.52,-18.45 30.26,-24.83 24.83,-30.26 18.45,-34.52 11.37,-37.47 4.45,-45.19 0,-1088.52 -4.45,-45.19 -11.37,-37.47 -18.45,-34.52 -24.83,-30.26 -30.26,-24.83 -34.52,-18.45 -37.47,-11.37 -45.19,-4.45 -838.52,0 -45.19,4.45 -37.47,11.37 -34.52,18.45 -30.26,24.83 -24.83,30.26 -18.45,34.52 -11.37,37.47 -4.45,45.19 0,1088.52 4.45,45.19 11.37,37.47 18.45,34.52 24.83,30.26 30.26,24.83 34.52,18.45 37.47,11.37 45.19,4.45 838.52,0 45.19,-4.45 0,0"
         id="path4516"
         inkscape:connector-curvature="0" />
      <path
         d="m 156683.45,-109997.65 37.47,-11.37 34.52,-18.45 30.26,-24.83 24.83,-30.26 18.45,-34.52 11.37,-37.47 4.45,-45.19 0,-1088.52 -4.45,-45.19 -11.37,-37.47 -18.45,-34.52 -24.83,-30.26 -30.26,-24.83 -34.52,-18.45 -37.47,-11.37 -45.19,-4.45 -838.52,0 -45.19,4.45 -37.47,11.37 -34.52,18.45 -30.26,24.83 -24.83,30.26 -18.45,34.52 -11.37,37.47 -4.45,45.19 0,1088.52 4.45,45.19 11.37,37.47 18.45,34.52 24.83,30.26 30.26,24.83 34.52,18.45 37.47,11.37 45.19,4.45 838.52,0 45.19,-4.45 0,0"
         id="path4518"
         inkscape:connector-curvature="0" />
      <path
         d="m 154633.45,-109997.65 37.47,-11.37 34.52,-18.45 30.26,-24.83 24.83,-30.26 18.45,-34.52 11.37,-37.47 4.45,-45.19 0,-1088.52 -4.45,-45.19 -11.37,-37.47 -18.45,-34.52 -24.83,-30.26 -30.26,-24.83 -34.52,-18.45 -37.47,-11.37 -45.19,-4.45 -838.52,0 -45.19,4.45 -37.47,11.37 -34.52,18.45 -30.26,24.83 -24.83,30.26 -18.45,34.52 -11.37,37.47 -4.45,45.19 0,1088.52 4.45,45.19 11.37,37.47 18.45,34.52 24.83,30.26 30.26,24.83 34.52,18.45 37.47,11.37 45.19,4.45 838.52,0 45.19,-4.45 0,0"
         id="path4520"
         inkscape:connector-curvature="0" />
      <path
         d="m 161984.39,-108490.96 137.51,-41.71 41.71,-12.66 82.59,-44.14 82.59,-44.14 144.78,-118.82 118.82,-144.78 24.38,-45.61 13.83,-20.7 17.6,-17.6 20.7,-13.83 23,-9.53 24.42,-4.86 24.9,0 24.42,4.86 23,9.53 20.7,13.83 17.6,17.6 13.83,20.7 20.56,38.45 28.41,34.63 34.63,28.41 39.51,21.12 42.86,13 50.81,5.01 1055.9,0 50.81,-5.01 42.86,-13 39.51,-21.12 34.63,-28.41 28.41,-34.63 21.12,-39.51 13.01,-42.86 5,-50.81 0,-1380.9 -5,-50.81 -13.01,-42.86 -21.12,-39.51 -28.41,-34.63 -34.63,-28.42 -39.51,-21.11 -42.86,-13.01 -50.81,-5 -1055.9,0 -50.81,5 -42.86,13.01 -39.51,21.11 -34.63,28.42 -28.41,34.63 -20.56,38.45 -13.83,20.7 -17.6,17.6 -20.7,13.83 -23,9.53 -24.42,4.86 -24.9,0 -24.42,-4.86 -23,-9.53 -20.7,-13.83 -17.6,-17.6 -13.83,-20.7 -12.93,-24.18 -11.45,-21.44 -118.82,-144.77 -144.78,-118.82 -165.17,-88.29 -41.72,-12.65 -137.51,-41.71 -186.39,-18.36 -186.39,18.36 -137.51,41.71 -41.71,12.65 -165.18,88.29 -144.78,118.82 -55.62,67.78 -63.19,77 -24.39,45.61 -13.83,20.7 -17.6,17.6 -20.7,13.83 -23,9.53 -24.42,4.86 -24.9,0 -24.42,-4.86 -23,-9.53 -20.7,-13.83 -17.6,-17.6 -13.83,-20.7 -20.56,-38.45 -28.41,-34.63 -34.63,-28.42 -39.51,-21.11 -42.86,-13.01 -50.81,-5 -1055.9,0 -50.81,5 -42.86,13.01 -39.51,21.11 -34.63,28.42 -28.41,34.63 -21.12,39.51 -13.01,42.86 -5,50.81 0,1380.9 5,50.81 13.01,42.86 21.12,39.51 28.41,34.63 34.63,28.41 39.51,21.12 42.86,13 50.81,5.01 1055.9,0 50.81,-5.01 42.86,-13 39.51,-21.12 34.63,-28.41 28.41,-34.63 20.56,-38.45 13.83,-20.7 17.6,-17.6 20.7,-13.84 23,-9.52 24.42,-4.86 24.9,0 24.42,4.86 23,9.52 20.7,13.84 17.6,17.6 13.83,20.7 11.44,21.4 12.94,24.21 118.82,144.78 144.78,118.82 165.17,88.28 41.72,12.66 137.51,41.71 186.39,18.36 186.39,-18.36 0,0"
         id="path4522"
         inkscape:connector-curvature="0" />
      <path
         d="m 154633.45,-107711.65 37.47,-11.37 34.52,-18.45 30.26,-24.83 24.83,-30.26 18.45,-34.52 11.37,-37.47 4.45,-45.19 0,-1088.52 -4.45,-45.19 -11.37,-37.47 -18.45,-34.52 -24.83,-30.26 -30.26,-24.83 -34.52,-18.45 -37.47,-11.37 -45.19,-4.45 -838.52,0 -45.19,4.45 -37.47,11.37 -34.52,18.45 -30.26,24.83 -24.83,30.26 -18.45,34.52 -11.37,37.47 -4.45,45.19 0,1088.52 4.45,45.19 11.37,37.47 18.45,34.52 24.83,30.26 30.26,24.83 34.52,18.45 37.47,11.37 45.19,4.45 838.52,0 45.19,-4.45 0,0"
         id="path4524"
         inkscape:connector-curvature="0" />
      <path
         d="m 156683.45,-107711.65 37.47,-11.37 34.52,-18.45 30.26,-24.83 24.83,-30.26 18.45,-34.52 11.37,-37.47 4.45,-45.19 0,-1088.52 -4.45,-45.19 -11.37,-37.47 -18.45,-34.52 -24.83,-30.26 -30.26,-24.83 -34.52,-18.45 -37.47,-11.37 -45.19,-4.45 -838.52,0 -45.19,4.45 -37.47,11.37 -34.52,18.45 -30.26,24.83 -24.83,30.26 -18.45,34.52 -11.37,37.47 -4.45,45.19 0,1088.52 4.45,45.19 11.37,37.47 18.45,34.52 24.83,30.26 30.26,24.83 34.52,18.45 37.47,11.37 45.19,4.45 838.52,0 45.19,-4.45 0,0"
         id="path4526"
         inkscape:connector-curvature="0" />
      <path
         d="m 161984.39,-105442.96 123.11,-37.34 56.11,-17.03 24.77,-13.23 140.41,-75.05 144.78,-118.82 118.82,-144.78 24.38,-45.61 13.83,-20.7 17.6,-17.6 20.7,-13.83 23,-9.53 24.42,-4.86 24.9,0 24.42,4.86 23,9.53 20.7,13.83 17.6,17.6 13.83,20.7 20.56,38.45 28.41,34.63 34.63,28.41 39.51,21.12 42.86,13 50.81,5.01 1055.9,0 50.81,-5.01 42.86,-13 39.51,-21.12 34.63,-28.41 28.41,-34.63 21.12,-39.51 13.01,-42.86 5,-50.81 0,-1380.9 -5,-50.81 -13.01,-42.86 -21.12,-39.51 -28.41,-34.63 -34.63,-28.42 -39.51,-21.11 -42.86,-13.01 -50.81,-5 -1055.9,0 -50.81,5 -42.86,13.01 -39.51,21.11 -34.63,28.42 -28.41,34.63 -20.56,38.45 -13.83,20.7 -17.6,17.6 -20.7,13.83 -23,9.53 -24.42,4.86 -24.9,0 -24.42,-4.86 -23,-9.53 -20.7,-13.83 -17.6,-17.6 -13.83,-20.7 -12.93,-24.18 -11.45,-21.44 -118.82,-144.77 -144.78,-118.82 -165.17,-88.29 -19.37,-5.87 -159.86,-48.49 -186.39,-18.36 -186.39,18.36 -159.86,48.49 -19.36,5.87 -165.18,88.29 -144.78,118.82 -55.62,67.78 -63.19,77 -24.39,45.61 -13.83,20.7 -17.6,17.6 -20.7,13.83 -23,9.53 -24.42,4.86 -24.9,0 -24.42,-4.86 -23,-9.53 -20.7,-13.83 -17.6,-17.6 -13.83,-20.7 -20.56,-38.45 -28.41,-34.63 -34.63,-28.42 -39.51,-21.11 -42.86,-13.01 -50.81,-5 -1055.9,0 -50.81,5 -42.86,13.01 -39.51,21.11 -34.63,28.42 -28.41,34.63 -21.12,39.51 -13.01,42.86 -5,50.81 0,1380.9 5,50.81 13.01,42.86 21.12,39.51 28.41,34.63 34.63,28.41 39.51,21.12 42.86,13 50.81,5.01 1055.9,0 50.81,-5.01 42.86,-13 39.51,-21.12 34.63,-28.41 28.41,-34.63 20.56,-38.45 13.83,-20.7 17.6,-17.6 20.7,-13.84 23,-9.52 24.42,-4.86 24.9,0 24.42,4.86 23,9.52 20.7,13.84 17.6,17.6 13.83,20.7 11.44,21.4 12.94,24.21 118.82,144.78 144.78,118.82 5.73,3.06 159.44,85.22 56.12,17.03 123.11,37.34 186.39,18.36 186.39,-18.36 0,0"
         id="path4528"
         inkscape:connector-curvature="0" />
      <path
         d="m 154633.45,-105425.65 37.47,-11.37 34.52,-18.45 30.26,-24.83 24.83,-30.26 18.45,-34.52 11.37,-37.47 4.45,-45.19 0,-1088.52 -4.45,-45.19 -11.37,-37.47 -18.45,-34.52 -24.83,-30.26 -30.26,-24.83 -34.52,-18.45 -37.47,-11.37 -45.19,-4.45 -838.52,0 -45.19,4.45 -37.47,11.37 -34.52,18.45 -30.26,24.83 -24.83,30.26 -18.45,34.52 -11.37,37.47 -4.45,45.19 0,1088.52 4.45,45.19 11.37,37.47 18.45,34.52 24.83,30.26 30.26,24.83 34.52,18.45 37.47,11.37 45.19,4.45 838.52,0 45.19,-4.45 0,0"
         id="path4530"
         inkscape:connector-curvature="0" />
      <path
         d="m 156683.45,-105425.65 37.47,-11.37 34.52,-18.45 30.26,-24.83 24.83,-30.26 18.45,-34.52 11.37,-37.47 4.45,-45.19 0,-1088.52 -4.45,-45.19 -11.37,-37.47 -18.45,-34.52 -24.83,-30.26 -30.26,-24.83 -34.52,-18.45 -37.47,-11.37 -45.19,-4.45 -838.52,0 -45.19,4.45 -37.47,11.37 -34.52,18.45 -30.26,24.83 -24.83,30.26 -18.45,34.52 -11.37,37.47 -4.45,45.19 0,1088.52 4.45,45.19 11.37,37.47 18.45,34.52 24.83,30.26 30.26,24.83 34.52,18.45 37.47,11.37 45.19,4.45 838.52,0 45.19,-4.45 0,0"
         id="path4532"
         inkscape:connector-curvature="0" />
      <path
         d="m 161984.39,-102394.96 137.51,-41.71 41.71,-12.66 52.16,-27.87 113.02,-60.41 144.78,-118.82 118.82,-144.78 24.38,-45.61 13.83,-20.7 17.6,-17.6 20.7,-13.83 23,-9.53 24.42,-4.86 24.9,0 24.42,4.86 23,9.53 20.7,13.83 17.6,17.6 13.83,20.7 20.56,38.45 28.41,34.63 34.63,28.41 39.51,21.12 42.86,13 50.81,5.01 1055.9,0 50.81,-5.01 42.86,-13 39.51,-21.12 34.63,-28.41 28.41,-34.63 21.12,-39.51 13.01,-42.86 5,-50.81 0,-1380.9 -5,-50.81 -13.01,-42.86 -21.12,-39.51 -28.41,-34.63 -34.63,-28.42 -39.51,-21.11 -42.86,-13.01 -50.81,-5 -1055.9,0 -50.81,5 -42.86,13.01 -39.51,21.11 -34.63,28.42 -28.41,34.63 -20.56,38.45 -13.83,20.7 -17.6,17.6 -20.7,13.83 -23,9.53 -24.42,4.86 -24.9,0 -24.42,-4.86 -23,-9.53 -20.7,-13.83 -17.6,-17.6 -13.83,-20.7 -12.93,-24.18 -11.45,-21.44 -118.82,-144.77 -144.78,-118.82 -165.17,-88.29 -41.72,-12.65 -137.51,-41.71 -186.39,-18.36 -186.39,18.36 -137.51,41.71 -41.71,12.65 -165.18,88.29 -144.78,118.82 -55.62,67.78 -63.19,77 -24.39,45.61 -13.83,20.7 -17.6,17.6 -20.7,13.83 -23,9.53 -24.42,4.86 -24.9,0 -24.42,-4.86 -23,-9.53 -20.7,-13.83 -17.6,-17.6 -13.83,-20.7 -20.56,-38.45 -28.41,-34.63 -34.63,-28.42 -39.51,-21.11 -42.86,-13.01 -50.81,-5 -1055.9,0 -50.81,5 -42.86,13.01 -39.51,21.11 -34.63,28.42 -28.41,34.63 -21.12,39.51 -13.01,42.86 -5,50.81 0,1380.9 5,50.81 13.01,42.86 21.12,39.51 28.41,34.63 34.63,28.41 39.51,21.12 42.86,13 50.81,5.01 1055.9,0 50.81,-5.01 42.86,-13 39.51,-21.12 34.63,-28.41 28.41,-34.63 20.56,-38.45 13.83,-20.7 17.6,-17.6 20.7,-13.84 23,-9.52 24.42,-4.86 24.9,0 24.42,4.86 23,9.52 20.7,13.84 17.6,17.6 13.83,20.7 11.44,21.4 12.94,24.21 118.82,144.78 144.78,118.82 165.17,88.28 41.72,12.66 137.51,41.71 186.39,18.36 186.39,-18.36 0,0"
         id="path4534"
         inkscape:connector-curvature="0" />
      <path
         d="m 156894.59,-102490.23 169.8,-51.51 156.49,-83.65 137.16,-112.57 112.57,-137.16 83.65,-156.5 51.51,-169.79 17.39,-176.59 -17.39,-176.59 -51.51,-169.79 -83.65,-156.5 -112.57,-137.16 -137.16,-112.57 -156.49,-83.65 -169.8,-51.51 -132.33,-13.03 -88.52,0 -132.33,13.03 -169.8,51.51 -156.49,83.65 -137.16,112.57 -112.57,137.16 -83.65,156.5 -51.51,169.79 -17.39,176.59 17.39,176.59 51.51,169.79 83.65,156.5 112.57,137.16 137.16,112.57 156.49,83.65 169.8,51.51 132.33,13.03 88.52,0 132.33,-13.03 0,0"
         id="path4536"
         inkscape:connector-curvature="0" />
      <path
         d="m 155078.8,-104278.8 -1801.6,0 0,1801.6 1801.6,0 0,-1801.6 0,0"
         id="path4538"
         inkscape:connector-curvature="0" />
    </g>
    <g
       id="lCpLQ-624iJw4kLatod0_bottom_silkscreen">
      <path
         d="m 158217.81,-102008.21 0,-217.72 m 508,108.86 -508,0 m 508,-290.29 -24.19,36.29 -24.19,18.14 -48.38,18.14 -145.15,0 -48.38,-18.14 -24.19,-18.14 -24.19,-36.29 0,-54.43 24.19,-36.28 24.19,-18.14 48.38,-18.15 145.15,0 48.38,18.15 24.19,18.14 24.19,36.28 0,54.43 m 0,-290.28 -508,0 m 193.52,0 -24.19,-36.29 0,-72.57 24.19,-36.29 24.19,-18.14 48.38,-18.14 145.15,0 48.38,18.14 24.19,18.14 24.19,36.29 0,72.57 -24.19,36.29 m 24.19,-344.72 -338.67,0 m -169.33,0 24.19,18.15 24.19,-18.15 -24.19,-18.14 -24.19,18.14 48.38,0 m 120.95,-181.43 338.67,0 m -290.29,0 -24.19,-18.14 -24.19,-36.28 0,-54.43 24.19,-36.29 48.38,-18.14 266.1,0 m -241.91,-544.29 241.91,0 m -508,127 266.09,-127 -266.09,-127 m 483.81,-272.14 24.19,36.29 0,72.57 -24.19,36.28 -48.38,18.15 -193.53,0 -48.38,-18.15 -24.19,-36.28 0,-72.57 24.19,-36.29 48.38,-18.14 48.39,0 48.38,181.43 m 169.33,-344.72 -508,0 m 508,-163.28 -266.1,0 -48.38,18.14 -24.19,36.28 0,54.43 24.19,36.29 24.19,18.14 m 290.29,-399.14 -24.19,36.28 -48.38,18.15 -435.43,0 m 483.81,-344.72 24.19,36.29 0,72.57 -24.19,36.29 -48.38,18.14 -193.53,0 -48.38,-18.14 -24.19,-36.29 0,-72.57 24.19,-36.29 48.38,-18.14 48.39,0 48.38,181.43"
         id="path4541"
         inkscape:connector-curvature="0"
         style="fill:none;stroke-width:76.19999695" />
      <path
         d="m 158447.62,-106299 0,362.86 -1016,0 m 483.81,-616.86 0,-254 m 532.19,-108.86 0,362.86 -1016,0 0,-362.86 m 1016,-326.57 -1016,0 0,-181.43 48.38,-108.85 96.76,-72.58 96.76,-36.28 193.53,-36.29 145.14,0 193.52,36.29 96.77,36.28 96.76,72.58 48.38,108.85 0,181.43 m -1016,-1233.71 0,-435.43 m 1016,217.71 -1016,0 m 967.62,-762 48.38,72.57 0,145.15 -48.38,72.57 -96.76,36.28 -387.05,0 -96.76,-36.28 -48.38,-72.57 0,-145.15 48.38,-72.57 96.76,-36.28 96.76,0 96.76,362.85 m 290.29,-653.14 48.38,-72.57 0,-145.14 -48.38,-72.57 -96.76,-36.29 -48.38,0 -96.77,36.29 -48.38,72.57 0,108.85 -48.38,72.58 -96.76,36.28 -48.38,0 -96.76,-36.28 -48.38,-72.58 0,-108.85 48.38,-72.57 m -48.38,-254 0,-290.29 m -338.67,181.43 870.86,0 96.76,-36.29 48.38,-72.57 0,-72.57 m -48.38,-544.29 48.38,72.58 0,145.14 -48.38,72.57 -96.76,36.29 -387.05,0 -96.76,-36.29 -48.38,-72.57 0,-145.14 48.38,-72.58 96.76,-36.28 96.76,0 96.76,362.86 m 338.67,-689.43 -677.33,0 m 193.52,0 -96.76,-36.29 -48.38,-36.28 -48.38,-72.58 0,-72.57 m 0,-762 677.33,-181.43 -677.33,-181.42 m 677.33,-689.43 0,435.43 m 0,-217.72 -1016,0 145.14,72.57 96.76,72.57 48.38,72.58"
         id="path4543"
         inkscape:connector-curvature="0"
         style="fill:none;stroke-width:127" />
      <path
         d="m 159048,-102132 4500,0 m -4500,-3000 0,3000 m 4500,-3000 -4500,0 m 4500,-3048 -4500,0 0,3000 4500,0 m -8615.25,-1702 522.5,0 m -522.5,1420 522.5,0 m -522.5,-2286 522.5,0 m -522.5,-1420 522.5,0 m 3592.75,940 4500,0 m -4500,-3000 0,3000 m 4500,-3000 -4500,0 m 4500,-3048 -4500,0 0,3000 4500,0 m -8615.25,-178 522.5,0 m -522.5,1420 522.5,0 m -522.5,-2286 522.5,0 m -522.5,-1420 522.5,0"
         id="path4545"
         inkscape:connector-curvature="0"
         style="fill:none;stroke-width:120" />
    </g>
    <g
       id="lCpLQ-624iJw4kLatod0_bottom_solderpaste">
      <path
         d="m 164040.94,-102758.37 27.66,-4.11 27.13,-6.79 26.34,-9.42 25.28,-11.96 23.99,-14.38 22.46,-16.66 20.72,-18.79 18.79,-20.72 16.66,-22.46 14.38,-23.99 11.96,-25.29 9.42,-26.33 6.79,-27.13 4.11,-27.67 1.37,-27.93 0,-1180 -1.37,-27.94 -4.11,-27.66 -6.79,-27.13 -9.42,-26.34 -11.96,-25.28 -14.38,-23.99 -16.66,-22.46 -18.79,-20.72 -20.72,-18.79 -22.46,-16.66 -23.99,-14.38 -25.28,-11.96 -26.34,-9.42 -27.13,-6.79 -27.66,-4.11 -27.94,-1.37 -855,0 -27.93,1.37 -27.67,4.11 -27.13,6.79 -26.33,9.42 -25.29,11.96 -23.99,14.38 -22.46,16.66 -20.72,18.79 -18.79,20.72 -16.66,22.46 -14.38,23.99 -11.96,25.28 -9.42,26.34 -6.79,27.13 -4.11,27.66 -1.37,27.94 0,1180 1.37,27.93 4.11,27.67 6.79,27.13 9.42,26.33 11.96,25.29 14.38,23.99 16.66,22.46 18.79,20.72 20.72,18.79 22.46,16.66 23.99,14.38 25.29,11.96 26.33,9.42 27.13,6.79 27.67,4.11 27.93,1.37 855,0 27.94,-1.37 0,0"
         id="path4548"
         inkscape:connector-curvature="0" />
      <use
         xlink:href="#o2tRfAC2OeeCPf-jkxp0_pad-11"
         x="163585.5"
         y="-103632"
         id="use4550"
         width="100%"
         height="100%" />
      <path
         d="m 160465.94,-102758.37 27.66,-4.11 27.13,-6.79 26.34,-9.42 25.28,-11.96 23.99,-14.38 22.46,-16.66 20.72,-18.79 18.79,-20.72 16.66,-22.46 14.38,-23.99 11.96,-25.29 9.42,-26.33 6.79,-27.13 4.11,-27.67 1.37,-27.93 0,-1180 -1.37,-27.94 -4.11,-27.66 -6.79,-27.13 -9.42,-26.34 -11.96,-25.28 -14.38,-23.99 -16.66,-22.46 -18.79,-20.72 -20.72,-18.79 -22.46,-16.66 -23.99,-14.38 -25.28,-11.96 -26.34,-9.42 -27.13,-6.79 -27.66,-4.11 -27.94,-1.37 -855,0 -27.93,1.37 -27.67,4.11 -27.13,6.79 -26.33,9.42 -25.29,11.96 -23.99,14.38 -22.46,16.66 -20.72,18.79 -18.79,20.72 -16.66,22.46 -14.38,23.99 -11.96,25.28 -9.42,26.34 -6.79,27.13 -4.11,27.66 -1.37,27.94 0,1180 1.37,27.93 4.11,27.67 6.79,27.13 9.42,26.33 11.96,25.29 14.38,23.99 16.66,22.46 18.79,20.72 20.72,18.79 22.46,16.66 23.99,14.38 25.29,11.96 26.33,9.42 27.13,6.79 27.67,4.11 27.93,1.37 855,0 27.94,-1.37 0,0"
         id="path4552"
         inkscape:connector-curvature="0" />
      <use
         xlink:href="#o2tRfAC2OeeCPf-jkxp0_pad-11"
         x="160010.5"
         y="-103632"
         id="use4554"
         width="100%"
         height="100%" />
      <path
         d="m 160465.94,-105806.37 27.66,-4.11 27.13,-6.79 26.34,-9.42 25.28,-11.96 23.99,-14.38 22.46,-16.66 20.72,-18.79 18.79,-20.72 16.66,-22.46 14.38,-23.99 11.96,-25.29 9.42,-26.33 6.79,-27.13 4.11,-27.67 1.37,-27.93 0,-1180 -1.37,-27.94 -4.11,-27.66 -6.79,-27.13 -9.42,-26.34 -11.96,-25.28 -14.38,-23.99 -16.66,-22.46 -18.79,-20.72 -20.72,-18.79 -22.46,-16.66 -23.99,-14.38 -25.28,-11.96 -26.34,-9.42 -27.13,-6.79 -27.66,-4.11 -27.94,-1.37 -855,0 -27.93,1.37 -27.67,4.11 -27.13,6.79 -26.33,9.42 -25.29,11.96 -23.99,14.38 -22.46,16.66 -20.72,18.79 -18.79,20.72 -16.66,22.46 -14.38,23.99 -11.96,25.28 -9.42,26.34 -6.79,27.13 -4.11,27.66 -1.37,27.94 0,1180 1.37,27.93 4.11,27.67 6.79,27.13 9.42,26.33 11.96,25.29 14.38,23.99 16.66,22.46 18.79,20.72 20.72,18.79 22.46,16.66 23.99,14.38 25.29,11.96 26.33,9.42 27.13,6.79 27.67,4.11 27.93,1.37 855,0 27.94,-1.37 0,0"
         id="path4556"
         inkscape:connector-curvature="0" />
      <use
         xlink:href="#o2tRfAC2OeeCPf-jkxp0_pad-11"
         x="160010.5"
         y="-106680"
         id="use4558"
         width="100%"
         height="100%" />
      <path
         d="m 164040.94,-105806.37 27.66,-4.11 27.13,-6.79 26.34,-9.42 25.28,-11.96 23.99,-14.38 22.46,-16.66 20.72,-18.79 18.79,-20.72 16.66,-22.46 14.38,-23.99 11.96,-25.29 9.42,-26.33 6.79,-27.13 4.11,-27.67 1.37,-27.93 0,-1180 -1.37,-27.94 -4.11,-27.66 -6.79,-27.13 -9.42,-26.34 -11.96,-25.28 -14.38,-23.99 -16.66,-22.46 -18.79,-20.72 -20.72,-18.79 -22.46,-16.66 -23.99,-14.38 -25.28,-11.96 -26.34,-9.42 -27.13,-6.79 -27.66,-4.11 -27.94,-1.37 -855,0 -27.93,1.37 -27.67,4.11 -27.13,6.79 -26.33,9.42 -25.29,11.96 -23.99,14.38 -22.46,16.66 -20.72,18.79 -18.79,20.72 -16.66,22.46 -14.38,23.99 -11.96,25.28 -9.42,26.34 -6.79,27.13 -4.11,27.66 -1.37,27.94 0,1180 1.37,27.93 4.11,27.67 6.79,27.13 9.42,26.33 11.96,25.29 14.38,23.99 16.66,22.46 18.79,20.72 20.72,18.79 22.46,16.66 23.99,14.38 25.29,11.96 26.33,9.42 27.13,6.79 27.67,4.11 27.93,1.37 855,0 27.94,-1.37 0,0"
         id="path4560"
         inkscape:connector-curvature="0" />
      <use
         xlink:href="#o2tRfAC2OeeCPf-jkxp0_pad-11"
         x="163585.5"
         y="-106680"
         id="use4562"
         width="100%"
         height="100%" />
      <path
         d="m 154518.51,-105473.2 24.26,-3.6 23.8,-5.97 23.1,-8.26 22.18,-10.49 21.04,-12.61 19.71,-14.62 18.18,-16.47 16.47,-18.18 14.62,-19.71 12.61,-21.04 10.49,-22.18 8.26,-23.1 5.97,-23.8 3.6,-24.27 1.2,-24.5 0,-900 -1.2,-24.51 -3.6,-24.26 -5.97,-23.8 -8.26,-23.1 -10.49,-22.18 -12.61,-21.04 -14.62,-19.71 -16.47,-18.18 -18.18,-16.47 -19.71,-14.62 -21.04,-12.61 -22.18,-10.49 -23.1,-8.27 -23.8,-5.96 -24.26,-3.6 -24.51,-1.2 -650,0 -24.5,1.2 -24.27,3.6 -23.8,5.96 -23.1,8.27 -22.18,10.49 -21.04,12.61 -19.71,14.62 -18.18,16.47 -16.47,18.18 -14.62,19.71 -12.61,21.04 -10.49,22.18 -8.26,23.1 -5.97,23.8 -3.6,24.26 -1.2,24.51 0,900 1.2,24.5 3.6,24.27 5.97,23.8 8.26,23.1 10.49,22.18 12.61,21.04 14.62,19.71 16.47,18.18 18.18,16.47 19.71,14.62 21.04,12.61 22.18,10.49 23.1,8.26 23.8,5.97 24.27,3.6 24.5,1.2 650,0 24.51,-1.2 0,0"
         id="path4564"
         inkscape:connector-curvature="0" />
      <use
         xlink:href="#o2tRfAC2OeeCPf-jkxp0_pad-12"
         x="154169"
         y="-106172"
         id="use4566"
         width="100%"
         height="100%" />
      <path
         d="m 156568.51,-105473.2 24.26,-3.6 23.8,-5.97 23.1,-8.26 22.18,-10.49 21.04,-12.61 19.71,-14.62 18.18,-16.47 16.47,-18.18 14.62,-19.71 12.61,-21.04 10.49,-22.18 8.26,-23.1 5.97,-23.8 3.6,-24.27 1.2,-24.5 0,-900 -1.2,-24.51 -3.6,-24.26 -5.97,-23.8 -8.26,-23.1 -10.49,-22.18 -12.61,-21.04 -14.62,-19.71 -16.47,-18.18 -18.18,-16.47 -19.71,-14.62 -21.04,-12.61 -22.18,-10.49 -23.1,-8.27 -23.8,-5.96 -24.26,-3.6 -24.51,-1.2 -650,0 -24.5,1.2 -24.27,3.6 -23.8,5.96 -23.1,8.27 -22.18,10.49 -21.04,12.61 -19.71,14.62 -18.18,16.47 -16.47,18.18 -14.62,19.71 -12.61,21.04 -10.49,22.18 -8.26,23.1 -5.97,23.8 -3.6,24.26 -1.2,24.51 0,900 1.2,24.5 3.6,24.27 5.97,23.8 8.26,23.1 10.49,22.18 12.61,21.04 14.62,19.71 16.47,18.18 18.18,16.47 19.71,14.62 21.04,12.61 22.18,10.49 23.1,8.26 23.8,5.97 24.27,3.6 24.5,1.2 650,0 24.51,-1.2 0,0"
         id="path4568"
         inkscape:connector-curvature="0" />
      <use
         xlink:href="#o2tRfAC2OeeCPf-jkxp0_pad-12"
         x="156219"
         y="-106172"
         id="use4570"
         width="100%"
         height="100%" />
      <path
         d="m 156568.51,-107759.2 24.26,-3.6 23.8,-5.97 23.1,-8.26 22.18,-10.49 21.04,-12.61 19.71,-14.62 18.18,-16.47 16.47,-18.18 14.62,-19.71 12.61,-21.04 10.49,-22.18 8.26,-23.1 5.97,-23.8 3.6,-24.27 1.2,-24.5 0,-900 -1.2,-24.51 -3.6,-24.26 -5.97,-23.8 -8.26,-23.1 -10.49,-22.18 -12.61,-21.04 -14.62,-19.71 -16.47,-18.18 -18.18,-16.47 -19.71,-14.62 -21.04,-12.61 -22.18,-10.49 -23.1,-8.27 -23.8,-5.96 -24.26,-3.6 -24.51,-1.2 -650,0 -24.5,1.2 -24.27,3.6 -23.8,5.96 -23.1,8.27 -22.18,10.49 -21.04,12.61 -19.71,14.62 -18.18,16.47 -16.47,18.18 -14.62,19.71 -12.61,21.04 -10.49,22.18 -8.26,23.1 -5.97,23.8 -3.6,24.26 -1.2,24.51 0,900 1.2,24.5 3.6,24.27 5.97,23.8 8.26,23.1 10.49,22.18 12.61,21.04 14.62,19.71 16.47,18.18 18.18,16.47 19.71,14.62 21.04,12.61 22.18,10.49 23.1,8.26 23.8,5.97 24.27,3.6 24.5,1.2 650,0 24.51,-1.2 0,0"
         id="path4572"
         inkscape:connector-curvature="0" />
      <use
         xlink:href="#o2tRfAC2OeeCPf-jkxp0_pad-12"
         x="156219"
         y="-108458"
         id="use4574"
         width="100%"
         height="100%" />
      <path
         d="m 154518.51,-107759.2 24.26,-3.6 23.8,-5.97 23.1,-8.26 22.18,-10.49 21.04,-12.61 19.71,-14.62 18.18,-16.47 16.47,-18.18 14.62,-19.71 12.61,-21.04 10.49,-22.18 8.26,-23.1 5.97,-23.8 3.6,-24.27 1.2,-24.5 0,-900 -1.2,-24.51 -3.6,-24.26 -5.97,-23.8 -8.26,-23.1 -10.49,-22.18 -12.61,-21.04 -14.62,-19.71 -16.47,-18.18 -18.18,-16.47 -19.71,-14.62 -21.04,-12.61 -22.18,-10.49 -23.1,-8.27 -23.8,-5.96 -24.26,-3.6 -24.51,-1.2 -650,0 -24.5,1.2 -24.27,3.6 -23.8,5.96 -23.1,8.27 -22.18,10.49 -21.04,12.61 -19.71,14.62 -18.18,16.47 -16.47,18.18 -14.62,19.71 -12.61,21.04 -10.49,22.18 -8.26,23.1 -5.97,23.8 -3.6,24.26 -1.2,24.51 0,900 1.2,24.5 3.6,24.27 5.97,23.8 8.26,23.1 10.49,22.18 12.61,21.04 14.62,19.71 16.47,18.18 18.18,16.47 19.71,14.62 21.04,12.61 22.18,10.49 23.1,8.26 23.8,5.97 24.27,3.6 24.5,1.2 650,0 24.51,-1.2 0,0"
         id="path4576"
         inkscape:connector-curvature="0" />
      <use
         xlink:href="#o2tRfAC2OeeCPf-jkxp0_pad-12"
         x="154169"
         y="-108458"
         id="use4578"
         width="100%"
         height="100%" />
      <path
         d="m 164040.94,-108854.37 27.66,-4.11 27.13,-6.79 26.34,-9.42 25.28,-11.96 23.99,-14.38 22.46,-16.66 20.72,-18.79 18.79,-20.72 16.66,-22.46 14.38,-23.99 11.96,-25.29 9.42,-26.33 6.79,-27.13 4.11,-27.67 1.37,-27.93 0,-1180 -1.37,-27.94 -4.11,-27.66 -6.79,-27.13 -9.42,-26.34 -11.96,-25.28 -14.38,-23.99 -16.66,-22.46 -18.79,-20.72 -20.72,-18.79 -22.46,-16.66 -23.99,-14.38 -25.28,-11.96 -26.34,-9.42 -27.13,-6.79 -27.66,-4.11 -27.94,-1.37 -855,0 -27.93,1.37 -27.67,4.11 -27.13,6.79 -26.33,9.42 -25.29,11.96 -23.99,14.38 -22.46,16.66 -20.72,18.79 -18.79,20.72 -16.66,22.46 -14.38,23.99 -11.96,25.28 -9.42,26.34 -6.79,27.13 -4.11,27.66 -1.37,27.94 0,1180 1.37,27.93 4.11,27.67 6.79,27.13 9.42,26.33 11.96,25.29 14.38,23.99 16.66,22.46 18.79,20.72 20.72,18.79 22.46,16.66 23.99,14.38 25.29,11.96 26.33,9.42 27.13,6.79 27.67,4.11 27.93,1.37 855,0 27.94,-1.37 0,0"
         id="path4580"
         inkscape:connector-curvature="0" />
      <use
         xlink:href="#o2tRfAC2OeeCPf-jkxp0_pad-11"
         x="163585.5"
         y="-109728"
         id="use4582"
         width="100%"
         height="100%" />
      <path
         d="m 160465.94,-108854.37 27.66,-4.11 27.13,-6.79 26.34,-9.42 25.28,-11.96 23.99,-14.38 22.46,-16.66 20.72,-18.79 18.79,-20.72 16.66,-22.46 14.38,-23.99 11.96,-25.29 9.42,-26.33 6.79,-27.13 4.11,-27.67 1.37,-27.93 0,-1180 -1.37,-27.94 -4.11,-27.66 -6.79,-27.13 -9.42,-26.34 -11.96,-25.28 -14.38,-23.99 -16.66,-22.46 -18.79,-20.72 -20.72,-18.79 -22.46,-16.66 -23.99,-14.38 -25.28,-11.96 -26.34,-9.42 -27.13,-6.79 -27.66,-4.11 -27.94,-1.37 -855,0 -27.93,1.37 -27.67,4.11 -27.13,6.79 -26.33,9.42 -25.29,11.96 -23.99,14.38 -22.46,16.66 -20.72,18.79 -18.79,20.72 -16.66,22.46 -14.38,23.99 -11.96,25.28 -9.42,26.34 -6.79,27.13 -4.11,27.66 -1.37,27.94 0,1180 1.37,27.93 4.11,27.67 6.79,27.13 9.42,26.33 11.96,25.29 14.38,23.99 16.66,22.46 18.79,20.72 20.72,18.79 22.46,16.66 23.99,14.38 25.29,11.96 26.33,9.42 27.13,6.79 27.67,4.11 27.93,1.37 855,0 27.94,-1.37 0,0"
         id="path4584"
         inkscape:connector-curvature="0" />
      <use
         xlink:href="#o2tRfAC2OeeCPf-jkxp0_pad-11"
         x="160010.5"
         y="-109728"
         id="use4586"
         width="100%"
         height="100%" />
      <path
         d="m 160465.94,-111902.37 27.66,-4.11 27.13,-6.79 26.34,-9.42 25.28,-11.96 23.99,-14.38 22.46,-16.66 20.72,-18.79 18.79,-20.72 16.66,-22.46 14.38,-23.99 11.96,-25.29 9.42,-26.33 6.79,-27.13 4.11,-27.67 1.37,-27.93 0,-1180 -1.37,-27.94 -4.11,-27.66 -6.79,-27.13 -9.42,-26.34 -11.96,-25.28 -14.38,-23.99 -16.66,-22.46 -18.79,-20.72 -20.72,-18.79 -22.46,-16.66 -23.99,-14.38 -25.28,-11.96 -26.34,-9.42 -27.13,-6.79 -27.66,-4.11 -27.94,-1.37 -855,0 -27.93,1.37 -27.67,4.11 -27.13,6.79 -26.33,9.42 -25.29,11.96 -23.99,14.38 -22.46,16.66 -20.72,18.79 -18.79,20.72 -16.66,22.46 -14.38,23.99 -11.96,25.28 -9.42,26.34 -6.79,27.13 -4.11,27.66 -1.37,27.94 0,1180 1.37,27.93 4.11,27.67 6.79,27.13 9.42,26.33 11.96,25.29 14.38,23.99 16.66,22.46 18.79,20.72 20.72,18.79 22.46,16.66 23.99,14.38 25.29,11.96 26.33,9.42 27.13,6.79 27.67,4.11 27.93,1.37 855,0 27.94,-1.37 0,0"
         id="path4588"
         inkscape:connector-curvature="0" />
      <use
         xlink:href="#o2tRfAC2OeeCPf-jkxp0_pad-11"
         x="160010.5"
         y="-112776"
         id="use4590"
         width="100%"
         height="100%" />
      <path
         d="m 164040.94,-111902.37 27.66,-4.11 27.13,-6.79 26.34,-9.42 25.28,-11.96 23.99,-14.38 22.46,-16.66 20.72,-18.79 18.79,-20.72 16.66,-22.46 14.38,-23.99 11.96,-25.29 9.42,-26.33 6.79,-27.13 4.11,-27.67 1.37,-27.93 0,-1180 -1.37,-27.94 -4.11,-27.66 -6.79,-27.13 -9.42,-26.34 -11.96,-25.28 -14.38,-23.99 -16.66,-22.46 -18.79,-20.72 -20.72,-18.79 -22.46,-16.66 -23.99,-14.38 -25.28,-11.96 -26.34,-9.42 -27.13,-6.79 -27.66,-4.11 -27.94,-1.37 -855,0 -27.93,1.37 -27.67,4.11 -27.13,6.79 -26.33,9.42 -25.29,11.96 -23.99,14.38 -22.46,16.66 -20.72,18.79 -18.79,20.72 -16.66,22.46 -14.38,23.99 -11.96,25.28 -9.42,26.34 -6.79,27.13 -4.11,27.66 -1.37,27.94 0,1180 1.37,27.93 4.11,27.67 6.79,27.13 9.42,26.33 11.96,25.29 14.38,23.99 16.66,22.46 18.79,20.72 20.72,18.79 22.46,16.66 23.99,14.38 25.29,11.96 26.33,9.42 27.13,6.79 27.67,4.11 27.93,1.37 855,0 27.94,-1.37 0,0"
         id="path4592"
         inkscape:connector-curvature="0" />
      <use
         xlink:href="#o2tRfAC2OeeCPf-jkxp0_pad-11"
         x="163585.5"
         y="-112776"
         id="use4594"
         width="100%"
         height="100%" />
      <path
         d="m 154518.51,-110045.2 24.26,-3.6 23.8,-5.97 23.1,-8.26 22.18,-10.49 21.04,-12.61 19.71,-14.62 18.18,-16.47 16.47,-18.18 14.62,-19.71 12.61,-21.04 10.49,-22.18 8.26,-23.1 5.97,-23.8 3.6,-24.27 1.2,-24.5 0,-900 -1.2,-24.51 -3.6,-24.26 -5.97,-23.8 -8.26,-23.1 -10.49,-22.18 -12.61,-21.04 -14.62,-19.71 -16.47,-18.18 -18.18,-16.47 -19.71,-14.62 -21.04,-12.61 -22.18,-10.49 -23.1,-8.27 -23.8,-5.96 -24.26,-3.6 -24.51,-1.2 -650,0 -24.5,1.2 -24.27,3.6 -23.8,5.96 -23.1,8.27 -22.18,10.49 -21.04,12.61 -19.71,14.62 -18.18,16.47 -16.47,18.18 -14.62,19.71 -12.61,21.04 -10.49,22.18 -8.26,23.1 -5.97,23.8 -3.6,24.26 -1.2,24.51 0,900 1.2,24.5 3.6,24.27 5.97,23.8 8.26,23.1 10.49,22.18 12.61,21.04 14.62,19.71 16.47,18.18 18.18,16.47 19.71,14.62 21.04,12.61 22.18,10.49 23.1,8.26 23.8,5.97 24.27,3.6 24.5,1.2 650,0 24.51,-1.2 0,0"
         id="path4596"
         inkscape:connector-curvature="0" />
      <use
         xlink:href="#o2tRfAC2OeeCPf-jkxp0_pad-12"
         x="154169"
         y="-110744"
         id="use4598"
         width="100%"
         height="100%" />
      <path
         d="m 156568.51,-110045.2 24.26,-3.6 23.8,-5.97 23.1,-8.26 22.18,-10.49 21.04,-12.61 19.71,-14.62 18.18,-16.47 16.47,-18.18 14.62,-19.71 12.61,-21.04 10.49,-22.18 8.26,-23.1 5.97,-23.8 3.6,-24.27 1.2,-24.5 0,-900 -1.2,-24.51 -3.6,-24.26 -5.97,-23.8 -8.26,-23.1 -10.49,-22.18 -12.61,-21.04 -14.62,-19.71 -16.47,-18.18 -18.18,-16.47 -19.71,-14.62 -21.04,-12.61 -22.18,-10.49 -23.1,-8.27 -23.8,-5.96 -24.26,-3.6 -24.51,-1.2 -650,0 -24.5,1.2 -24.27,3.6 -23.8,5.96 -23.1,8.27 -22.18,10.49 -21.04,12.61 -19.71,14.62 -18.18,16.47 -16.47,18.18 -14.62,19.71 -12.61,21.04 -10.49,22.18 -8.26,23.1 -5.97,23.8 -3.6,24.26 -1.2,24.51 0,900 1.2,24.5 3.6,24.27 5.97,23.8 8.26,23.1 10.49,22.18 12.61,21.04 14.62,19.71 16.47,18.18 18.18,16.47 19.71,14.62 21.04,12.61 22.18,10.49 23.1,8.26 23.8,5.97 24.27,3.6 24.5,1.2 650,0 24.51,-1.2 0,0"
         id="path4600"
         inkscape:connector-curvature="0" />
      <use
         xlink:href="#o2tRfAC2OeeCPf-jkxp0_pad-12"
         x="156219"
         y="-110744"
         id="use4602"
         width="100%"
         height="100%" />
      <path
         d="m 156568.51,-112331.2 24.26,-3.6 23.8,-5.97 23.1,-8.26 22.18,-10.49 21.04,-12.61 19.71,-14.62 18.18,-16.47 16.47,-18.18 14.62,-19.71 12.61,-21.04 10.49,-22.18 8.26,-23.1 5.97,-23.8 3.6,-24.27 1.2,-24.5 0,-900 -1.2,-24.51 -3.6,-24.26 -5.97,-23.8 -8.26,-23.1 -10.49,-22.18 -12.61,-21.04 -14.62,-19.71 -16.47,-18.18 -18.18,-16.47 -19.71,-14.62 -21.04,-12.61 -22.18,-10.49 -23.1,-8.27 -23.8,-5.96 -24.26,-3.6 -24.51,-1.2 -650,0 -24.5,1.2 -24.27,3.6 -23.8,5.96 -23.1,8.27 -22.18,10.49 -21.04,12.61 -19.71,14.62 -18.18,16.47 -16.47,18.18 -14.62,19.71 -12.61,21.04 -10.49,22.18 -8.26,23.1 -5.97,23.8 -3.6,24.26 -1.2,24.51 0,900 1.2,24.5 3.6,24.27 5.97,23.8 8.26,23.1 10.49,22.18 12.61,21.04 14.62,19.71 16.47,18.18 18.18,16.47 19.71,14.62 21.04,12.61 22.18,10.49 23.1,8.26 23.8,5.97 24.27,3.6 24.5,1.2 650,0 24.51,-1.2 0,0"
         id="path4604"
         inkscape:connector-curvature="0" />
      <use
         xlink:href="#o2tRfAC2OeeCPf-jkxp0_pad-12"
         x="156219"
         y="-113030"
         id="use4606"
         width="100%"
         height="100%" />
      <path
         d="m 154518.51,-112331.2 24.26,-3.6 23.8,-5.97 23.1,-8.26 22.18,-10.49 21.04,-12.61 19.71,-14.62 18.18,-16.47 16.47,-18.18 14.62,-19.71 12.61,-21.04 10.49,-22.18 8.26,-23.1 5.97,-23.8 3.6,-24.27 1.2,-24.5 0,-900 -1.2,-24.51 -3.6,-24.26 -5.97,-23.8 -8.26,-23.1 -10.49,-22.18 -12.61,-21.04 -14.62,-19.71 -16.47,-18.18 -18.18,-16.47 -19.71,-14.62 -21.04,-12.61 -22.18,-10.49 -23.1,-8.27 -23.8,-5.96 -24.26,-3.6 -24.51,-1.2 -650,0 -24.5,1.2 -24.27,3.6 -23.8,5.96 -23.1,8.27 -22.18,10.49 -21.04,12.61 -19.71,14.62 -18.18,16.47 -16.47,18.18 -14.62,19.71 -12.61,21.04 -10.49,22.18 -8.26,23.1 -5.97,23.8 -3.6,24.26 -1.2,24.51 0,900 1.2,24.5 3.6,24.27 5.97,23.8 8.26,23.1 10.49,22.18 12.61,21.04 14.62,19.71 16.47,18.18 18.18,16.47 19.71,14.62 21.04,12.61 22.18,10.49 23.1,8.26 23.8,5.97 24.27,3.6 24.5,1.2 650,0 24.51,-1.2 0,0"
         id="path4608"
         inkscape:connector-curvature="0" />
      <use
         xlink:href="#o2tRfAC2OeeCPf-jkxp0_pad-12"
         x="154169"
         y="-113030"
         id="use4610"
         width="100%"
         height="100%" />
    </g>
    <g
       id="lCpLQ-624iJw4kLatod0_bottom_drill1"
       transform="scale(25.4,25.4)">
      <path
         d="m 6370,-4188.2 0,-23.6 m 0,-216.4 0,-23.6 m 0,143.6 0,-23.6 m 0,263.6 0,-23.6"
         id="path4613"
         inkscape:connector-curvature="0"
         style="fill:none;stroke-width:70.90000153" />
    </g>
    <g
       id="lCpLQ-624iJw4kLatod0_bottom_drill2"
       transform="scale(25.4,25.4)">
      <use
         xlink:href="#ZC3ly6M5eM9GSjbbF7A4_pad-1"
         x="6070"
         y="-4070"
         id="use4616"
         width="100%"
         height="100%" />
      <use
         xlink:href="#ZC3ly6M5eM9GSjbbF7A4_pad-1"
         x="6170"
         y="-4070"
         id="use4618"
         width="100%"
         height="100%" />
    </g>
    <clipPath
       id="lCpLQ-624iJw4kLatod0_bottom_outline">
      <path
         d="m 152400,-114300 0,12700 12700,0 0,-12700 -12700,0"
         id="path4621"
         inkscape:connector-curvature="0"
         style="fill:none;stroke-width:2.53999996" />
    </clipPath>
    <mask
       id="lCpLQ-624iJw4kLatod0_bottom_mech-mask">
      <g
         id="g4624"
         style="fill:#000000;stroke:#000000">
        <rect
           x="152400"
           y="-114300"
           width="12700"
           height="12700"
           id="rect4626"
           style="fill:#ffffff" />
        <use
           xlink:href="#lCpLQ-624iJw4kLatod0_bottom_drill1"
           id="use4628"
           x="0"
           y="0"
           width="100%"
           height="100%" />
        <use
           xlink:href="#lCpLQ-624iJw4kLatod0_bottom_drill2"
           id="use4630"
           x="0"
           y="0"
           width="100%"
           height="100%" />
      </g>
    </mask>
    <mask
       id="lCpLQ-624iJw4kLatod0_bottom_cf-mask">
      <g
         id="g4633"
         style="fill:#ffffff;stroke:#ffffff">
        <use
           xlink:href="#lCpLQ-624iJw4kLatod0_bottom_soldermask"
           id="use4635"
           x="0"
           y="0"
           width="100%"
           height="100%" />
      </g>
    </mask>
    <mask
       id="lCpLQ-624iJw4kLatod0_bottom_sm-mask">
      <g
         id="g4638"
         style="fill:#000000;stroke:#000000">
        <rect
           x="152400"
           y="-114300"
           width="12700"
           height="12700"
           id="rect4640"
           style="fill:#ffffff" />
        <use
           xlink:href="#lCpLQ-624iJw4kLatod0_bottom_soldermask"
           id="use4642"
           x="0"
           y="0"
           width="100%"
           height="100%" />
      </g>
    </mask>
  </defs>
  <g
     inkscape:groupmode="layer"
     id="layer2"
     inkscape:label="background"
     sodipodi:insensitive="true">
    <rect
       style="opacity:1;fill:#222222;fill-opacity:1;stroke:none;stroke-width:0.89999998;stroke-linejoin:miter;stroke-miterlimit:4;stroke-dasharray:none;stroke-opacity:0.8"
       id="rect4275"
       width="127000"
       height="127000"
       x="152400"
       y="-114300" />
  </g>
  <g
     inkscape:groupmode="layer"
     id="layer1"
     inkscape:label="board"
     sodipodi:insensitive="true">
    <g
       style="clip-rule:evenodd;fill-rule:evenodd;stroke-width:0;stroke-linecap:round;stroke-linejoin:round"
       transform="matrix(9.9999998,0,0,-9.9999998,-1371600,-1130300)"
       id="g4644">
      <g
         mask="url(#lCpLQ-624iJw4kLatod0_bottom_mech-mask)"
         clip-path="url(#lCpLQ-624iJw4kLatod0_bottom_outline)"
         transform="matrix(-1,0,0,1,317500,0)"
         id="g4646">
        <rect
           x="152400"
           y="-114300"
           width="12700"
           height="12700"
           class="lCpLQ-624iJw4kLatod0_fr4"
           id="rect4648"
           style="color:#666666;fill:currentColor" />
        <use
           xlink:href="#lCpLQ-624iJw4kLatod0_bottom_copper"
           class="lCpLQ-624iJw4kLatod0_cu"
           id="use4650"
           style="color:#cccccc;fill:currentColor;stroke:currentColor"
           x="0"
           y="0"
           width="100%"
           height="100%" />
        <use
           xlink:href="#lCpLQ-624iJw4kLatod0_bottom_copper"
           class="lCpLQ-624iJw4kLatod0_cf"
           mask="url(#lCpLQ-624iJw4kLatod0_bottom_cf-mask)"
           id="use4652"
           style="color:#cc9933;fill:currentColor;stroke:currentColor"
           x="0"
           y="0"
           width="100%"
           height="100%" />
        <g
           mask="url(#lCpLQ-624iJw4kLatod0_bottom_sm-mask)"
           id="g4654">
          <rect
             x="152400"
             y="-114300"
             width="12700"
             height="12700"
             class="lCpLQ-624iJw4kLatod0_sm"
             id="rect4656"
             style="color:#4b0082;opacity:0.75;fill:currentColor" />
          <use
             xlink:href="#lCpLQ-624iJw4kLatod0_bottom_silkscreen"
             class="lCpLQ-624iJw4kLatod0_ss"
             id="use4658"
             style="color:#ffffff;fill:currentColor;stroke:currentColor"
             x="0"
             y="0"
             width="100%"
             height="100%" />
        </g>
        <use
           xlink:href="#lCpLQ-624iJw4kLatod0_bottom_solderpaste"
           class="lCpLQ-624iJw4kLatod0_sp"
           id="use4660"
           style="color:#999999;fill:currentColor;stroke:currentColor"
           x="0"
           y="0"
           width="100%"
           height="100%" />
      </g>
    </g>
  </g>
</svg>
