<svg version="1.1" xmlns="http://www.w3.org/2000/svg" xmlns:xlink="http://www.w3.org/1999/xlink" stroke-linecap="round" stroke-linejoin="round" stroke-width="0" fill-rule="evenodd" clip-rule="evenodd" id="lCpLQ-624iJw4kLatod0_top" viewBox="152400 -114300 12700 12700" width="12.7mm" height="12.7mm" class="w-100 h-100"><defs><style>.lCpLQ-624iJw4kLatod0_fr4 {color: #666666;}
.lCpLQ-624iJw4kLatod0_cu {color: #cccccc;}
.lCpLQ-624iJw4kLatod0_cf {color: #cc9933;}
.lCpLQ-624iJw4kLatod0_sm {color: #4b0082; opacity: 0.75;}
.lCpLQ-624iJw4kLatod0_ss {color: #ffffff;}
.lCpLQ-624iJw4kLatod0_sp {color: #999999;}
.lCpLQ-624iJw4kLatod0_out {color: #000000;}</style><rect x="-850" y="-850" width="1700" height="1700" id="ak1nRUbe4rgh80QSNL2Z_pad-11"/><rect x="-850" y="-850" width="1700" height="1700" rx="850" ry="850" id="ak1nRUbe4rgh80QSNL2Z_pad-12"/><circle cx="0" cy="0" r="19.7" id="ZC3ly6M5eM9GSjbbF7A4_pad-1"/><g id="lCpLQ-624iJw4kLatod0_top_copper"><path d="M 160020 -111760 159639 -111760 M 160401 -111760 160020 -111760 M 160909 -111506 160401 -111760 M 161163 -111379 160909 -111506 M 161290 -110998 161163 -111379 M 161290 -110617 161290 -110998 M 161163 -110236 161290 -110617 M 160909 -109728 161163 -110236 M 160655 -109347 160909 -109728 M 160147 -108839 160655 -109347 M 159512 -108585 160147 -108839 M 158877 -108458 159512 -108585 M 158369 -108458 158877 -108458 M 157734 -108712 158369 -108458 M 157099 -109093 157734 -108712 M 156591 -109601 157099 -109093 M 156337 -110236 156591 -109601 M 156210 -110744 156337 -110236 M 156210 -110998 156210 -110744 M 157607 -111760 157988 -111760 M 156972 -111633 157607 -111760 M 156464 -111506 156972 -111633 M 156337 -111252 156464 -111506 M 156210 -110998 156337 -111252 M 157734 -112522 157734 -111760 M 157734 -112903 157734 -112522 M 158877 -113538 158496 -113538 M 159385 -113411 158877 -113538 M 159766 -113284 159385 -113411 M 159893 -112903 159766 -113284 M 159893 -112522 159893 -112903 M 159893 -111760 159893 -112522 M 158115 -113411 158496 -113538 M 157861 -113157 158115 -113411 M 157734 -112903 157861 -113157 M 158496 -111379 158750 -110617 M 159004 -111379 158496 -111379 M 158750 -110617 159004 -111379 M 160049.981 -110617 A 283.981 283.981 0 0 1 159482.019 -110617 283.981 283.981 0 0 1 160049.981 -110617 M 158017.981 -110617 A 283.981 283.981 0 0 1 157450.019 -110617 283.981 283.981 0 0 1 158017.981 -110617 M 158242 -112649 158242 -112141 M 159385 -112649 158242 -112649 M 159385 -112141 159385 -112649 M 158242 -112141 159385 -112141 M 158877 -112268 158877 -112522 M 161036 -109347 161671 -108839 161671 -108331 M 161671 -108839 162179 -108712 M 157099 -112141 156083 -113030 155702 -113030 M 156083 -113030 156083 -113538 M 156337 -109347 155829 -108966 155829 -108585 M 155829 -108966 155448 -109093 M 161417 -113030 161671 -113030 M 160528 -112141 161417 -113030 M 161417 -113411 161544 -113411 M 161417 -113030 161417 -113411" fill="none" stroke-width="381"/><use xlink:href="#ak1nRUbe4rgh80QSNL2Z_pad-11" x="154178" y="-103378"/><use xlink:href="#ak1nRUbe4rgh80QSNL2Z_pad-12" x="156718" y="-103378"/></g><g id="lCpLQ-624iJw4kLatod0_top_silkscreen"><path d="M 153488.571 -105156 153416 -105107.619 153307.142 -105107.619 153198.285 -105156 153125.714 -105252.761 153089.428 -105349.523 153053.142 -105543.047 153053.142 -105688.19 153089.428 -105881.714 153125.714 -105978.476 153198.285 -106075.238 153307.142 -106123.619 153379.714 -106123.619 153488.571 -106075.238 153524.857 -106026.857 153524.857 -105688.19 153379.714 -105688.19 M 153851.428 -106123.619 153851.428 -105107.619 154286.857 -106123.619 154286.857 -105107.619 M 154649.714 -106123.619 154649.714 -105107.619 154831.142 -105107.619 154940 -105156 155012.571 -105252.761 155048.857 -105349.523 155085.142 -105543.047 155085.142 -105688.19 155048.857 -105881.714 155012.571 -105978.476 154940 -106075.238 154831.142 -106123.619 154649.714 -106123.619 M 155883.428 -105107.619 156137.428 -106123.619 156391.428 -105107.619 M 157080.857 -106026.857 157044.571 -106075.238 156935.714 -106123.619 156863.142 -106123.619 156754.285 -106075.238 156681.714 -105978.476 156645.428 -105881.714 156609.142 -105688.19 156609.142 -105543.047 156645.428 -105349.523 156681.714 -105252.761 156754.285 -105156 156863.142 -105107.619 156935.714 -105107.619 157044.571 -105156 157080.857 -105204.38 M 157842.857 -106026.857 157806.571 -106075.238 157697.714 -106123.619 157625.142 -106123.619 157516.285 -106075.238 157443.714 -105978.476 157407.428 -105881.714 157371.142 -105688.19 157371.142 -105543.047 157407.428 -105349.523 157443.714 -105252.761 157516.285 -105156 157625.142 -105107.619 157697.714 -105107.619 157806.571 -105156 157842.857 -105204.38" fill="none" stroke-width="127"/><path d="M 158048 -104708 158048 -102048 M 155448 -104708 158048 -104708 M 155448 -102048 158048 -102048 M 155448 -104708 155448 -102048 M 154178 -104708 152848 -104708 152848 -103378" fill="none" stroke-width="120"/><path d="M 160885.91 -102398.348 160964.454 -102398.778 161021.298 -102399.942 161060.105 -102402.207 161084.538 -102405.94 161098.262 -102411.506 161104.94 -102419.273 161108.236 -102429.605 161108.556 -102430.943 161113.562 -102455.079 161122.829 -102502.701 161135.392 -102568.741 161150.287 -102648.128 161166.551 -102735.796 161167.119 -102738.875 161183.41 -102824.789 161198.652 -102900.696 161211.861 -102962.045 161222.054 -103004.282 161228.248 -103022.855 161228.543 -103023.184 161246.788 -103032.253 161284.405 -103047.367 161333.271 -103065.262 161333.543 -103065.358 161395.093 -103088.493 161467.657 -103117.965 161536.057 -103147.597 161539.294 -103149.062 161650.702 -103199.626 161897.399 -103031.16 161973.077 -102979.803 162041.631 -102933.889 162099.088 -102896.03 162141.476 -102868.837 162164.825 -102854.921 162167.042 -102853.889 162184.01 -102858.484 162215.701 -102880.655 162263.352 -102921.447 162328.198 -102981.905 162394.397 -103046.227 162458.214 -103109.612 162515.329 -103167.451 162562.305 -103216.175 162595.703 -103252.21 162612.085 -103271.984 162612.694 -103273.002 162614.505 -103286.572 162607.683 -103308.733 162590.54 -103342.478 162561.393 -103390.8 162518.555 -103456.692 162461.448 -103541.517 162410.766 -103616.177 162365.461 -103683.14 162328.15 -103738.516 162301.452 -103778.42 162287.985 -103798.962 162287.137 -103800.356 162288.781 -103820.038 162301.245 -103858.293 162322.048 -103907.889 162329.462 -103923.728 162361.814 -103994.29 162396.328 -104074.353 162424.365 -104143.629 162444.568 -104195.045 162460.615 -104234.119 162469.888 -104254.541 162471.041 -104256.114 162488.096 -104258.721 162528.298 -104265.863 162586.302 -104276.523 162656.763 -104289.685 162734.335 -104304.333 162813.672 -104319.449 162889.431 -104334.018 162956.264 -104347.022 163008.828 -104357.445 163041.776 -104364.27 163049.857 -104366.199 163058.205 -104370.962 163064.506 -104381.718 163069.045 -104402.098 163072.104 -104435.734 163073.967 -104486.255 163074.918 -104557.292 163075.24 -104652.476 163075.257 -104691.492 163075.257 -105008.799 162999.057 -105023.839 162956.663 -105031.995 162893.4 -105043.899 162816.962 -105058.116 162735.043 -105073.21 162712.4 -105077.355 162636.806 -105092.053 162570.953 -105106.505 162520.366 -105119.375 162490.574 -105129.322 162485.612 -105132.287 162473.426 -105153.283 162455.953 -105193.967 162436.577 -105246.322 162432.734 -105257.6 162407.339 -105327.523 162375.817 -105406.418 162344.969 -105477.266 162344.817 -105477.595 162293.447 -105588.733 162462.399 -105837.253 162631.352 -106085.772 162414.429 -106303.058 162348.819 -106367.726 162288.979 -106424.733 162238.267 -106471.033 162200.046 -106503.584 162177.675 -106519.343 162174.466 -106520.343 162155.626 -106512.469 162117.18 -106490.578 162063.33 -106457.267 161998.276 -106415.131 161927.94 -106367.943 161856.555 -106319.81 161792.908 -106277.928 161741.041 -106244.871 161704.995 -106223.218 161688.867 -106215.543 161669.189 -106222.037 161631.875 -106239.15 161584.621 -106263.326 161579.612 -106266.013 161515.977 -106297.927 161472.341 -106313.579 161445.202 -106313.745 161431.057 -106299.204 161430.975 -106299 161423.905 -106281.779 161407.042 -106240.899 161381.695 -106179.525 161349.171 -106100.819 161310.778 -106007.947 161267.822 -105904.072 161226.222 -105803.502 161180.504 -105692.516 161138.526 -105589.703 161101.548 -105498.215 161070.827 -105421.201 161047.622 -105361.815 161033.19 -105323.209 161028.743 -105308.8 161039.896 -105292.272 161069.069 -105265.93 161107.971 -105236.887 161218.757 -105145.039 161305.351 -105039.759 161366.716 -104923.266 161401.815 -104797.776 161409.608 -104665.507 161403.943 -104604.457 161373.078 -104477.795 161319.92 -104365.941 161247.767 -104270.001 161159.917 -104191.076 161059.665 -104130.27 160950.31 -104088.687 160835.147 -104067.428 160717.475 -104067.599 160600.59 -104090.301 160487.789 -104136.638 160382.369 -104207.713 160338.368 -104247.911 160253.979 -104351.129 160195.222 -104463.925 160161.704 -104583.01 160153.035 -104705.095 160168.823 -104826.893 160208.678 -104945.116 160272.207 -105056.475 160359.021 -105157.684 160456.029 -105236.887 160496.437 -105267.162 160524.982 -105293.219 160535.257 -105308.825 160529.877 -105325.843 160514.575 -105366.5 160490.612 -105427.642 160459.244 -105506.119 160421.732 -105598.78 160379.333 -105702.472 160337.663 -105803.526 160291.69 -105914.607 160249.107 -106017.541 160211.221 -106109.165 160179.34 -106186.316 160154.771 -106245.831 160138.82 -106284.544 160132.91 -106299 160118.948 -106313.685 160091.94 -106313.642 160048.413 -106298.099 159984.89 -106266.284 159984.388 -106266.013 159936.56 -106241.323 159897.897 -106223.338 159876.095 -106215.614 159875.133 -106215.543 159858.721 -106223.378 159822.487 -106245.165 159770.474 -106278.328 159706.725 -106320.291 159636.06 -106367.943 159564.116 -106416.191 159499.274 -106458.151 159445.735 -106491.227 159407.697 -106512.821 159389.533 -106520.343 159372.808 -106510.457 159339.18 -106482.826 159292.01 -106440.495 159234.658 -106386.505 159170.484 -106323.899 159149.497 -106302.983 158932.499 -106085.623 159097.668 -105843.22 159147.864 -105768.781 159191.919 -105701.972 159227.362 -105646.665 159251.719 -105606.729 159262.522 -105586.036 159262.838 -105584.563 159257.143 -105565.058 159241.826 -105525.822 159219.537 -105473.43 159203.893 -105438.355 159174.641 -105371.201 159147.094 -105303.358 159125.737 -105246.034 159119.935 -105228.572 159103.452 -105181.938 159087.34 -105145.905 159078.49 -105132.287 159058.96 -105123.952 159016.334 -105112.137 158956.145 -105098.181 158883.922 -105083.422 158851.6 -105077.355 158769.522 -105062.273 158690.795 -105047.669 158623.109 -105034.98 158574.16 -105025.642 158564.943 -105023.839 158488.743 -105008.799 158488.743 -104691.492 158488.914 -104587.154 158489.616 -104508.213 158491.134 -104451.038 158493.749 -104411.999 158497.746 -104387.465 158503.409 -104373.805 158511.02 -104367.389 158514.143 -104366.199 158532.978 -104361.98 158574.588 -104353.562 158633.63 -104341.961 158704.757 -104328.195 158782.625 -104313.28 158861.887 -104298.232 158937.198 -104284.069 159003.213 -104271.806 159054.587 -104262.461 159085.975 -104257.05 159092.959 -104256.114 159099.285 -104243.596 159113.29 -104210.246 159132.355 -104162.377 159139.634 -104143.629 159168.996 -104071.195 159203.571 -103991.17 159234.537 -103923.728 159257.323 -103872.159 159272.482 -103829.785 159277.542 -103803.834 159276.736 -103800.356 159266.041 -103783.936 159241.62 -103747.417 159206.095 -103694.687 159162.087 -103629.635 159112.217 -103556.151 159102.356 -103541.645 159044.492 -103455.704 159001.956 -103390.261 158973.054 -103342.304 158956.09 -103308.82 158949.367 -103286.795 158951.19 -103273.217 158951.236 -103273.131 158965.586 -103255.297 158997.323 -103220.817 159043.01 -103173.268 159099.204 -103116.222 159162.468 -103053.255 159169.602 -103046.227 159249.33 -102969.02 159310.857 -102912.33 159355.421 -102875.11 159384.257 -102856.315 159396.958 -102853.889 159415.494 -102864.471 159453.961 -102888.916 159508.386 -102924.612 159574.798 -102968.947 159649.225 -103019.311 159666.601 -103031.16 159913.297 -103199.626 160024.706 -103149.062 160092.457 -103119.595 160165.183 -103089.959 160227.703 -103066.33 160230.457 -103065.358 160279.36 -103047.457 160317.057 -103032.32 160335.425 -103023.21 160335.456 -103023.184 160341.285 -103006.717 160351.192 -102966.219 160364.195 -102906.242 160379.309 -102831.34 160395.552 -102746.064 160396.881 -102738.875 160413.175 -102651.014 160428.133 -102571.26 160440.791 -102504.681 160450.186 -102456.347 160455.354 -102431.325 160455.444 -102430.943 160458.589 -102420.299 160464.704 -102412.262 160477.453 -102406.467 160500.5 -102402.547 160537.509 -102400.135 160592.144 -102398.865 160668.067 -102398.371 160768.944 -102398.286 160782 -102398.286 160885.91 -102398.348 160885.91 -102398.348"/><path d="M 160885.91 -102398.348 160964.454 -102398.778 161021.298 -102399.942 161060.105 -102402.207 161084.538 -102405.94 161098.262 -102411.506 161104.94 -102419.273 161108.236 -102429.605 161108.556 -102430.943 161113.562 -102455.079 161122.829 -102502.701 161135.392 -102568.741 161150.287 -102648.128 161166.551 -102735.796 161167.119 -102738.875 161183.41 -102824.789 161198.652 -102900.696 161211.861 -102962.045 161222.054 -103004.282 161228.248 -103022.855 161228.543 -103023.184 161246.788 -103032.253 161284.405 -103047.367 161333.271 -103065.262 161333.543 -103065.358 161395.093 -103088.493 161467.657 -103117.965 161536.057 -103147.597 161539.294 -103149.062 161650.702 -103199.626 161897.399 -103031.16 161973.077 -102979.803 162041.631 -102933.889 162099.088 -102896.03 162141.476 -102868.837 162164.825 -102854.921 162167.042 -102853.889 162184.01 -102858.484 162215.701 -102880.655 162263.352 -102921.447 162328.198 -102981.905 162394.397 -103046.227 162458.214 -103109.612 162515.329 -103167.451 162562.305 -103216.175 162595.703 -103252.21 162612.085 -103271.984 162612.694 -103273.002 162614.505 -103286.572 162607.683 -103308.733 162590.54 -103342.478 162561.393 -103390.8 162518.555 -103456.692 162461.448 -103541.517 162410.766 -103616.177 162365.461 -103683.14 162328.15 -103738.516 162301.452 -103778.42 162287.985 -103798.962 162287.137 -103800.356 162288.781 -103820.038 162301.245 -103858.293 162322.048 -103907.889 162329.462 -103923.728 162361.814 -103994.29 162396.328 -104074.353 162424.365 -104143.629 162444.568 -104195.045 162460.615 -104234.119 162469.888 -104254.541 162471.041 -104256.114 162488.096 -104258.721 162528.298 -104265.863 162586.302 -104276.523 162656.763 -104289.685 162734.335 -104304.333 162813.672 -104319.449 162889.431 -104334.018 162956.264 -104347.022 163008.828 -104357.445 163041.776 -104364.27 163049.857 -104366.199 163058.205 -104370.962 163064.506 -104381.718 163069.045 -104402.098 163072.104 -104435.734 163073.967 -104486.255 163074.918 -104557.292 163075.24 -104652.476 163075.257 -104691.492 163075.257 -105008.799 162999.057 -105023.839 162956.663 -105031.995 162893.4 -105043.899 162816.962 -105058.116 162735.043 -105073.21 162712.4 -105077.355 162636.806 -105092.053 162570.953 -105106.505 162520.366 -105119.375 162490.574 -105129.322 162485.612 -105132.287 162473.426 -105153.283 162455.953 -105193.967 162436.577 -105246.322 162432.734 -105257.6 162407.339 -105327.523 162375.817 -105406.418 162344.969 -105477.266 162344.817 -105477.595 162293.447 -105588.733 162462.399 -105837.253 162631.352 -106085.772 162414.429 -106303.058 162348.819 -106367.726 162288.979 -106424.733 162238.267 -106471.033 162200.046 -106503.584 162177.675 -106519.343 162174.466 -106520.343 162155.626 -106512.469 162117.18 -106490.578 162063.33 -106457.267 161998.276 -106415.131 161927.94 -106367.943 161856.555 -106319.81 161792.908 -106277.928 161741.041 -106244.871 161704.995 -106223.218 161688.867 -106215.543 161669.189 -106222.037 161631.875 -106239.15 161584.621 -106263.326 161579.612 -106266.013 161515.977 -106297.927 161472.341 -106313.579 161445.202 -106313.745 161431.057 -106299.204 161430.975 -106299 161423.905 -106281.779 161407.042 -106240.899 161381.695 -106179.525 161349.171 -106100.819 161310.778 -106007.947 161267.822 -105904.072 161226.222 -105803.502 161180.504 -105692.516 161138.526 -105589.703 161101.548 -105498.215 161070.827 -105421.201 161047.622 -105361.815 161033.19 -105323.209 161028.743 -105308.8 161039.896 -105292.272 161069.069 -105265.93 161107.971 -105236.887 161218.757 -105145.039 161305.351 -105039.759 161366.716 -104923.266 161401.815 -104797.776 161409.608 -104665.507 161403.943 -104604.457 161373.078 -104477.795 161319.92 -104365.941 161247.767 -104270.001 161159.917 -104191.076 161059.665 -104130.27 160950.31 -104088.687 160835.147 -104067.428 160717.475 -104067.599 160600.59 -104090.301 160487.789 -104136.638 160382.369 -104207.713 160338.368 -104247.911 160253.979 -104351.129 160195.222 -104463.925 160161.704 -104583.01 160153.035 -104705.095 160168.823 -104826.893 160208.678 -104945.116 160272.207 -105056.475 160359.021 -105157.684 160456.029 -105236.887 160496.437 -105267.162 160524.982 -105293.219 160535.257 -105308.825 160529.877 -105325.843 160514.575 -105366.5 160490.612 -105427.642 160459.244 -105506.119 160421.732 -105598.78 160379.333 -105702.472 160337.663 -105803.526 160291.69 -105914.607 160249.107 -106017.541 160211.221 -106109.165 160179.34 -106186.316 160154.771 -106245.831 160138.82 -106284.544 160132.91 -106299 160118.948 -106313.685 160091.94 -106313.642 160048.413 -106298.099 159984.89 -106266.284 159984.388 -106266.013 159936.56 -106241.323 159897.897 -106223.338 159876.095 -106215.614 159875.133 -106215.543 159858.721 -106223.378 159822.487 -106245.165 159770.474 -106278.328 159706.725 -106320.291 159636.06 -106367.943 159564.116 -106416.191 159499.274 -106458.151 159445.735 -106491.227 159407.697 -106512.821 159389.533 -106520.343 159372.808 -106510.457 159339.18 -106482.826 159292.01 -106440.495 159234.658 -106386.505 159170.484 -106323.899 159149.497 -106302.983 158932.499 -106085.623 159097.668 -105843.22 159147.864 -105768.781 159191.919 -105701.972 159227.362 -105646.665 159251.719 -105606.729 159262.522 -105586.036 159262.838 -105584.563 159257.143 -105565.058 159241.826 -105525.822 159219.537 -105473.43 159203.893 -105438.355 159174.641 -105371.201 159147.094 -105303.358 159125.737 -105246.034 159119.935 -105228.572 159103.452 -105181.938 159087.34 -105145.905 159078.49 -105132.287 159058.96 -105123.952 159016.334 -105112.137 158956.145 -105098.181 158883.922 -105083.422 158851.6 -105077.355 158769.522 -105062.273 158690.795 -105047.669 158623.109 -105034.98 158574.16 -105025.642 158564.943 -105023.839 158488.743 -105008.799 158488.743 -104691.492 158488.914 -104587.154 158489.616 -104508.213 158491.134 -104451.038 158493.749 -104411.999 158497.746 -104387.465 158503.409 -104373.805 158511.02 -104367.389 158514.143 -104366.199 158532.978 -104361.98 158574.588 -104353.562 158633.63 -104341.961 158704.757 -104328.195 158782.625 -104313.28 158861.887 -104298.232 158937.198 -104284.069 159003.213 -104271.806 159054.587 -104262.461 159085.975 -104257.05 159092.959 -104256.114 159099.285 -104243.596 159113.29 -104210.246 159132.355 -104162.377 159139.634 -104143.629 159168.996 -104071.195 159203.571 -103991.17 159234.537 -103923.728 159257.323 -103872.159 159272.482 -103829.785 159277.542 -103803.834 159276.736 -103800.356 159266.041 -103783.936 159241.62 -103747.417 159206.095 -103694.687 159162.087 -103629.635 159112.217 -103556.151 159102.356 -103541.645 159044.492 -103455.704 159001.956 -103390.261 158973.054 -103342.304 158956.09 -103308.82 158949.367 -103286.795 158951.19 -103273.217 158951.236 -103273.131 158965.586 -103255.297 158997.323 -103220.817 159043.01 -103173.268 159099.204 -103116.222 159162.468 -103053.255 159169.602 -103046.227 159249.33 -102969.02 159310.857 -102912.33 159355.421 -102875.11 159384.257 -102856.315 159396.958 -102853.889 159415.494 -102864.471 159453.961 -102888.916 159508.386 -102924.612 159574.798 -102968.947 159649.225 -103019.311 159666.601 -103031.16 159913.297 -103199.626 160024.706 -103149.062 160092.457 -103119.595 160165.183 -103089.959 160227.703 -103066.33 160230.457 -103065.358 160279.36 -103047.457 160317.057 -103032.32 160335.425 -103023.21 160335.456 -103023.184 160341.285 -103006.717 160351.192 -102966.219 160364.195 -102906.242 160379.309 -102831.34 160395.552 -102746.064 160396.881 -102738.875 160413.175 -102651.014 160428.133 -102571.26 160440.791 -102504.681 160450.186 -102456.347 160455.354 -102431.325 160455.444 -102430.943 160458.589 -102420.299 160464.704 -102412.262 160477.453 -102406.467 160500.5 -102402.547 160537.509 -102400.135 160592.144 -102398.865 160668.067 -102398.371 160768.944 -102398.286 160782 -102398.286 160885.91 -102398.348" fill="none" stroke-width="10"/><path d="M 163935.595 -107122.966 163993.021 -107160.497 164020.719 -107194.096 164042.662 -107255.064 164044.405 -107303.308 164040.457 -107367.816 163891.686 -107432.934 163819.349 -107466.202 163772.084 -107492.964 163747.507 -107516.144 163743.237 -107538.667 163756.889 -107563.455 163771.943 -107579.886 163815.746 -107606.235 163863.389 -107608.081 163907.145 -107587.546 163939.289 -107546.752 163945.038 -107532.347 163972.576 -107487.356 164004.258 -107468.182 164047.714 -107451.779 164047.714 -107513.966 164043.872 -107556.283 164028.823 -107591.969 163997.28 -107632.943 163992.592 -107638.267 163957.506 -107674.72 163927.347 -107694.283 163889.615 -107703.283 163858.335 -107706.23 163802.385 -107706.965 163762.555 -107697.66 163737.708 -107683.846 163698.656 -107653.467 163671.625 -107620.613 163654.517 -107579.294 163645.238 -107523.521 163641.693 -107447.305 163641.41 -107408.622 163642.372 -107362.247 163730.007 -107362.247 163731.023 -107387.126 163733.556 -107391.2 163750.274 -107385.665 163786.249 -107371.017 163834.331 -107350.19 163844.386 -107345.714 163905.152 -107314.814 163938.632 -107287.657 163945.99 -107262.22 163928.391 -107236.481 163913.856 -107225.109 163861.41 -107202.364 163812.322 -107206.122 163771.227 -107233.884 163742.758 -107283.152 163733.631 -107322.257 163730.007 -107362.247 163642.372 -107362.247 163643.285 -107318.249 163650.196 -107251.384 163663.884 -107202.695 163686.096 -107166.849 163718.574 -107138.513 163732.733 -107129.355 163797.053 -107105.507 163867.473 -107104.006 163935.595 -107122.966 163935.595 -107122.966"/><path d="M 163935.595 -107122.966 163993.021 -107160.497 164020.719 -107194.096 164042.662 -107255.064 164044.405 -107303.308 164040.457 -107367.816 163891.686 -107432.934 163819.349 -107466.202 163772.084 -107492.964 163747.507 -107516.144 163743.237 -107538.667 163756.889 -107563.455 163771.943 -107579.886 163815.746 -107606.235 163863.389 -107608.081 163907.145 -107587.546 163939.289 -107546.752 163945.038 -107532.347 163972.576 -107487.356 164004.258 -107468.182 164047.714 -107451.779 164047.714 -107513.966 164043.872 -107556.283 164028.823 -107591.969 163997.28 -107632.943 163992.592 -107638.267 163957.506 -107674.72 163927.347 -107694.283 163889.615 -107703.283 163858.335 -107706.23 163802.385 -107706.965 163762.555 -107697.66 163737.708 -107683.846 163698.656 -107653.467 163671.625 -107620.613 163654.517 -107579.294 163645.238 -107523.521 163641.693 -107447.305 163641.41 -107408.622 163642.372 -107362.247 163730.007 -107362.247 163731.023 -107387.126 163733.556 -107391.2 163750.274 -107385.665 163786.249 -107371.017 163834.331 -107350.19 163844.386 -107345.714 163905.152 -107314.814 163938.632 -107287.657 163945.99 -107262.22 163928.391 -107236.481 163913.856 -107225.109 163861.41 -107202.364 163812.322 -107206.122 163771.227 -107233.884 163742.758 -107283.152 163733.631 -107322.257 163730.007 -107362.247 163642.372 -107362.247 163643.285 -107318.249 163650.196 -107251.384 163663.884 -107202.695 163686.096 -107166.849 163718.574 -107138.513 163732.733 -107129.355 163797.053 -107105.507 163867.473 -107104.006 163935.595 -107122.966" fill="none" stroke-width="10"/><path d="M 163434.6 -107114.752 163451.948 -107122.334 163493.356 -107155.128 163528.765 -107202.547 163550.664 -107253.151 163554.229 -107278.098 163542.279 -107312.927 163516.067 -107331.357 163487.964 -107342.516 163475.095 -107344.572 163468.829 -107329.649 163456.456 -107297.175 163451.028 -107282.502 163420.59 -107231.744 163376.52 -107206.427 163320.01 -107207.206 163315.825 -107208.203 163285.655 -107222.507 163263.476 -107250.393 163248.327 -107295.287 163239.25 -107360.615 163235.286 -107449.804 163234.914 -107497.261 163234.73 -107572.071 163233.522 -107623.069 163230.309 -107655.471 163224.109 -107674.495 163213.94 -107685.356 163198.819 -107693.272 163197.946 -107693.67 163168.828 -107705.981 163154.403 -107710.514 163152.186 -107696.809 163150.289 -107658.925 163148.847 -107601.715 163147.998 -107530.027 163147.829 -107477.565 163148.692 -107376.047 163152.07 -107299.032 163159.142 -107242.023 163171.088 -107200.526 163189.09 -107170.043 163214.327 -107146.08 163239.247 -107129.355 163299.171 -107107.097 163368.911 -107102.076 163434.6 -107114.752 163434.6 -107114.752"/><path d="M 163434.6 -107114.752 163451.948 -107122.334 163493.356 -107155.128 163528.765 -107202.547 163550.664 -107253.151 163554.229 -107278.098 163542.279 -107312.927 163516.067 -107331.357 163487.964 -107342.516 163475.095 -107344.572 163468.829 -107329.649 163456.456 -107297.175 163451.028 -107282.502 163420.59 -107231.744 163376.52 -107206.427 163320.01 -107207.206 163315.825 -107208.203 163285.655 -107222.507 163263.476 -107250.393 163248.327 -107295.287 163239.25 -107360.615 163235.286 -107449.804 163234.914 -107497.261 163234.73 -107572.071 163233.522 -107623.069 163230.309 -107655.471 163224.109 -107674.495 163213.94 -107685.356 163198.819 -107693.272 163197.946 -107693.67 163168.828 -107705.981 163154.403 -107710.514 163152.186 -107696.809 163150.289 -107658.925 163148.847 -107601.715 163147.998 -107530.027 163147.829 -107477.565 163148.692 -107376.047 163152.07 -107299.032 163159.142 -107242.023 163171.088 -107200.526 163189.09 -107170.043 163214.327 -107146.08 163239.247 -107129.355 163299.171 -107107.097 163368.911 -107102.076 163434.6 -107114.752" fill="none" stroke-width="10"/><path d="M 162926.876 -107112.335 162968.667 -107131.344 163001.469 -107154.378 163025.503 -107180.133 163042.097 -107213.358 163052.577 -107258.8 163058.271 -107321.207 163060.507 -107405.327 163060.743 -107460.721 163060.743 -107676.826 163023.774 -107693.67 162994.656 -107705.981 162980.231 -107710.514 162977.472 -107697.025 162975.282 -107660.653 162973.942 -107607.542 162973.657 -107565.372 162972.434 -107504.447 162969.136 -107456.115 162964.321 -107426.518 162960.496 -107420.229 162934.783 -107426.652 162894.418 -107443.125 162847.679 -107465.458 162802.845 -107489.457 162768.193 -107510.93 162752.002 -107525.685 162751.938 -107525.845 162753.33 -107553.152 162765.818 -107579.219 162787.743 -107600.392 162819.743 -107607.474 162847.092 -107606.649 162885.826 -107606.042 162906.158 -107615.116 162918.369 -107639.092 162919.909 -107643.613 162925.203 -107677.806 162911.047 -107698.568 162874.148 -107708.462 162834.289 -107710.292 162762.562 -107696.727 162725.432 -107677.355 162679.576 -107631.845 162655.256 -107575.983 162653.073 -107516.957 162673.629 -107461.953 162704.549 -107427.486 162735.42 -107408.189 162783.942 -107383.759 162840.485 -107358.985 162849.91 -107355.199 162912.019 -107327.791 162947.822 -107303.634 162959.337 -107279.619 162948.58 -107252.635 162930.114 -107231.543 162886.469 -107205.572 162838.446 -107203.624 162794.406 -107223.637 162762.709 -107263.551 162758.549 -107273.848 162734.327 -107311.724 162698.965 -107339.842 162654.343 -107362.917 162654.343 -107297.485 162656.969 -107257.506 162668.23 -107225.997 162693.199 -107192.378 162717.169 -107166.484 162754.441 -107129.817 162783.401 -107110.121 162814.505 -107102.22 162849.713 -107100.914 162926.876 -107112.335 162926.876 -107112.335"/><path d="M 162926.876 -107112.335 162968.667 -107131.344 163001.469 -107154.378 163025.503 -107180.133 163042.097 -107213.358 163052.577 -107258.8 163058.271 -107321.207 163060.507 -107405.327 163060.743 -107460.721 163060.743 -107676.826 163023.774 -107693.67 162994.656 -107705.981 162980.231 -107710.514 162977.472 -107697.025 162975.282 -107660.653 162973.942 -107607.542 162973.657 -107565.372 162972.434 -107504.447 162969.136 -107456.115 162964.321 -107426.518 162960.496 -107420.229 162934.783 -107426.652 162894.418 -107443.125 162847.679 -107465.458 162802.845 -107489.457 162768.193 -107510.93 162752.002 -107525.685 162751.938 -107525.845 162753.33 -107553.152 162765.818 -107579.219 162787.743 -107600.392 162819.743 -107607.474 162847.092 -107606.649 162885.826 -107606.042 162906.158 -107615.116 162918.369 -107639.092 162919.909 -107643.613 162925.203 -107677.806 162911.047 -107698.568 162874.148 -107708.462 162834.289 -107710.292 162762.562 -107696.727 162725.432 -107677.355 162679.576 -107631.845 162655.256 -107575.983 162653.073 -107516.957 162673.629 -107461.953 162704.549 -107427.486 162735.42 -107408.189 162783.942 -107383.759 162840.485 -107358.985 162849.91 -107355.199 162912.019 -107327.791 162947.822 -107303.634 162959.337 -107279.619 162948.58 -107252.635 162930.114 -107231.543 162886.469 -107205.572 162838.446 -107203.624 162794.406 -107223.637 162762.709 -107263.551 162758.549 -107273.848 162734.327 -107311.724 162698.965 -107339.842 162654.343 -107362.917 162654.343 -107297.485 162656.969 -107257.506 162668.23 -107225.997 162693.199 -107192.378 162717.169 -107166.484 162754.441 -107129.817 162783.401 -107110.121 162814.505 -107102.22 162849.713 -107100.914 162926.876 -107112.335" fill="none" stroke-width="10"/><path d="M 162561.833 -107114.663 162564.048 -107152.85 162565.784 -107210.886 162566.899 -107284.18 162567.257 -107361.055 162567.257 -107621.196 162521.326 -107667.127 162489.675 -107695.429 162461.89 -107706.893 162423.915 -107706.168 162408.84 -107704.321 162361.726 -107698.948 162322.756 -107695.869 162313.257 -107695.585 162281.233 -107697.445 162235.432 -107702.114 162217.674 -107704.321 162174.057 -107707.735 162144.745 -107700.32 162115.68 -107677.427 162105.188 -107667.127 162059.257 -107621.196 162059.257 -107134.602 162096.226 -107117.758 162128.059 -107105.282 162146.683 -107100.914 162151.458 -107114.718 162155.921 -107153.286 162159.775 -107212.356 162162.722 -107287.663 162164.143 -107351.286 162168.114 -107601.657 162202.759 -107606.556 162234.268 -107603.131 162249.708 -107592.041 162254.023 -107571.308 162257.708 -107527.145 162260.469 -107465.146 162262.012 -107390.909 162262.235 -107352.706 162262.457 -107132.783 162308.166 -107116.849 162340.518 -107106.015 162358.115 -107100.962 162358.623 -107100.914 162360.388 -107114.648 162362.329 -107152.73 162364.282 -107210.482 162366.084 -107283.227 162367.343 -107351.286 162371.314 -107601.657 162458.4 -107601.657 162462.396 -107373.24 162466.392 -107144.822 162508.847 -107122.868 162540.192 -107107.793 162558.744 -107100.951 162559.279 -107100.914 162561.833 -107114.663 162561.833 -107114.663"/><path d="M 162561.833 -107114.663 162564.048 -107152.85 162565.784 -107210.886 162566.899 -107284.18 162567.257 -107361.055 162567.257 -107621.196 162521.326 -107667.127 162489.675 -107695.429 162461.89 -107706.893 162423.915 -107706.168 162408.84 -107704.321 162361.726 -107698.948 162322.756 -107695.869 162313.257 -107695.585 162281.233 -107697.445 162235.432 -107702.114 162217.674 -107704.321 162174.057 -107707.735 162144.745 -107700.32 162115.68 -107677.427 162105.188 -107667.127 162059.257 -107621.196 162059.257 -107134.602 162096.226 -107117.758 162128.059 -107105.282 162146.683 -107100.914 162151.458 -107114.718 162155.921 -107153.286 162159.775 -107212.356 162162.722 -107287.663 162164.143 -107351.286 162168.114 -107601.657 162202.759 -107606.556 162234.268 -107603.131 162249.708 -107592.041 162254.023 -107571.308 162257.708 -107527.145 162260.469 -107465.146 162262.012 -107390.909 162262.235 -107352.706 162262.457 -107132.783 162308.166 -107116.849 162340.518 -107106.015 162358.115 -107100.962 162358.623 -107100.914 162360.388 -107114.648 162362.329 -107152.73 162364.282 -107210.482 162366.084 -107283.227 162367.343 -107351.286 162371.314 -107601.657 162458.4 -107601.657 162462.396 -107373.24 162466.392 -107144.822 162508.847 -107122.868 162540.192 -107107.793 162558.744 -107100.951 162559.279 -107100.914 162561.833 -107114.663" fill="none" stroke-width="10"/><path d="M 161972.117 -107221.358 161971.933 -107329.837 161971.219 -107413.287 161969.675 -107475.704 161967.001 -107521.085 161962.894 -107553.429 161957.055 -107576.733 161949.182 -107594.995 161943.221 -107605.418 161893.855 -107661.945 161831.264 -107697.377 161762.013 -107710.09 161692.668 -107698.463 161651.375 -107677.568 161608.025 -107641.422 161578.481 -107597.276 161560.655 -107539.462 161552.463 -107462.313 161551.302 -107405.714 161551.458 -107401.647 161652.857 -107401.647 161653.476 -107466.55 161656.314 -107509.514 161662.84 -107537.622 161674.523 -107557.953 161688.483 -107573.288 161735.365 -107602.89 161785.701 -107605.419 161833.276 -107580.705 161836.979 -107577.356 161852.783 -107559.935 161862.693 -107539.209 161868.058 -107508.362 161870.228 -107460.577 161870.571 -107407.748 161869.827 -107341.381 161866.748 -107297.106 161860.061 -107268.009 161848.496 -107247.173 161839.013 -107236.107 161794.96 -107208.198 161744.224 -107204.843 161695.796 -107226.159 161686.45 -107234.073 161670.54 -107251.647 161660.61 -107272.587 161655.278 -107303.782 161653.163 -107352.122 161652.857 -107401.647 161551.458 -107401.647 161554.81 -107314.568 161566.726 -107246.086 161589.135 -107194.6 161624.124 -107154.443 161651.375 -107133.861 161700.907 -107111.625 161758.316 -107101.304 161811.682 -107104.067 161841.543 -107115.212 161853.261 -107118.383 161861.037 -107106.557 161866.465 -107074.866 161870.571 -107026.593 161875.067 -106972.829 161881.313 -106940.482 161892.676 -106921.985 161912.528 -106909.77 161925 -106904.362 161972.171 -106884.601 161972.117 -107221.358 161972.117 -107221.358"/><path d="M 161972.117 -107221.358 161971.933 -107329.837 161971.219 -107413.287 161969.675 -107475.704 161967.001 -107521.085 161962.894 -107553.429 161957.055 -107576.733 161949.182 -107594.995 161943.221 -107605.418 161893.855 -107661.945 161831.264 -107697.377 161762.013 -107710.09 161692.668 -107698.463 161651.375 -107677.568 161608.025 -107641.422 161578.481 -107597.276 161560.655 -107539.462 161552.463 -107462.313 161551.302 -107405.714 161551.458 -107401.647 161652.857 -107401.647 161653.476 -107466.55 161656.314 -107509.514 161662.84 -107537.622 161674.523 -107557.953 161688.483 -107573.288 161735.365 -107602.89 161785.701 -107605.419 161833.276 -107580.705 161836.979 -107577.356 161852.783 -107559.935 161862.693 -107539.209 161868.058 -107508.362 161870.228 -107460.577 161870.571 -107407.748 161869.827 -107341.381 161866.748 -107297.106 161860.061 -107268.009 161848.496 -107247.173 161839.013 -107236.107 161794.96 -107208.198 161744.224 -107204.843 161695.796 -107226.159 161686.45 -107234.073 161670.54 -107251.647 161660.61 -107272.587 161655.278 -107303.782 161653.163 -107352.122 161652.857 -107401.647 161551.458 -107401.647 161554.81 -107314.568 161566.726 -107246.086 161589.135 -107194.6 161624.124 -107154.443 161651.375 -107133.861 161700.907 -107111.625 161758.316 -107101.304 161811.682 -107104.067 161841.543 -107115.212 161853.261 -107118.383 161861.037 -107106.557 161866.465 -107074.866 161870.571 -107026.593 161875.067 -106972.829 161881.313 -106940.482 161892.676 -106921.985 161912.528 -106909.77 161925 -106904.362 161972.171 -106884.601 161972.117 -107221.358" fill="none" stroke-width="10"/><path d="M 161311.926 -107105.755 161377.858 -107130.084 161431.273 -107173.117 161452.164 -107203.409 161474.939 -107258.994 161474.466 -107299.186 161450.562 -107326.217 161441.717 -107330.813 161403.53 -107345.144 161384.028 -107341.472 161377.422 -107317.407 161377.086 -107304.114 161364.992 -107255.21 161333.471 -107220.999 161289.659 -107204.476 161240.695 -107208.634 161200.894 -107230.227 161187.45 -107242.544 161177.921 -107257.487 161171.485 -107280.075 161167.317 -107315.328 161164.597 -107368.266 161162.502 -107443.907 161161.96 -107467.857 161159.981 -107549.79 161157.731 -107607.455 161154.357 -107645.608 161149.006 -107669.004 161140.824 -107682.398 161128.959 -107690.545 161121.362 -107694.144 161089.102 -107706.452 161070.111 -107710.514 161063.836 -107696.948 161060.006 -107655.934 161058.6 -107586.999 161059.598 -107489.669 161059.908 -107474.657 161062.101 -107385.859 161064.693 -107321.019 161068.382 -107275.067 161073.864 -107242.935 161081.835 -107219.553 161092.993 -107199.852 161098.83 -107191.41 161132.296 -107154.057 161169.727 -107125.003 161174.309 -107122.467 161241.426 -107102.443 161311.926 -107105.755 161311.926 -107105.755"/><path d="M 161311.926 -107105.755 161377.858 -107130.084 161431.273 -107173.117 161452.164 -107203.409 161474.939 -107258.994 161474.466 -107299.186 161450.562 -107326.217 161441.717 -107330.813 161403.53 -107345.144 161384.028 -107341.472 161377.422 -107317.407 161377.086 -107304.114 161364.992 -107255.21 161333.471 -107220.999 161289.659 -107204.476 161240.695 -107208.634 161200.894 -107230.227 161187.45 -107242.544 161177.921 -107257.487 161171.485 -107280.075 161167.317 -107315.328 161164.597 -107368.266 161162.502 -107443.907 161161.96 -107467.857 161159.981 -107549.79 161157.731 -107607.455 161154.357 -107645.608 161149.006 -107669.004 161140.824 -107682.398 161128.959 -107690.545 161121.362 -107694.144 161089.102 -107706.452 161070.111 -107710.514 161063.836 -107696.948 161060.006 -107655.934 161058.6 -107586.999 161059.598 -107489.669 161059.908 -107474.657 161062.101 -107385.859 161064.693 -107321.019 161068.382 -107275.067 161073.864 -107242.935 161081.835 -107219.553 161092.993 -107199.852 161098.83 -107191.41 161132.296 -107154.057 161169.727 -107125.003 161174.309 -107122.467 161241.426 -107102.443 161311.926 -107105.755" fill="none" stroke-width="10"/><path d="M 160821.744 -107106.968 160878.616 -107128.087 160879.267 -107128.493 160914.44 -107154.38 160940.407 -107184.633 160958.67 -107224.058 160970.732 -107277.462 160978.096 -107349.651 160982.264 -107445.432 160982.629 -107459.078 160987.876 -107664.842 160943.716 -107687.678 160911.763 -107703.11 160892.47 -107710.423 160891.578 -107710.514 160888.239 -107697.022 160885.587 -107660.626 160883.956 -107607.452 160883.6 -107564.393 160883.592 -107494.641 160880.403 -107450.837 160869.288 -107429.944 160845.501 -107428.925 160804.296 -107444.741 160742.086 -107473.815 160696.341 -107497.963 160672.813 -107518.913 160665.896 -107541.747 160665.886 -107542.877 160677.299 -107582.212 160711.092 -107603.462 160762.809 -107606.539 160800.061 -107606.006 160819.703 -107616.735 160831.952 -107642.505 160839.002 -107675.337 160828.842 -107693.966 160825.017 -107696.632 160789.001 -107707.34 160738.566 -107708.856 160686.626 -107701.759 160649.822 -107688.788 160598.938 -107645.585 160570.014 -107585.446 160564.286 -107538.462 160568.657 -107496.082 160584.475 -107461.488 160615.797 -107430.763 160666.678 -107399.99 160741.176 -107365.252 160745.714 -107363.288 160812.821 -107332.287 160854.232 -107306.862 160871.981 -107284.014 160868.107 -107260.745 160844.643 -107234.056 160837.627 -107227.914 160790.63 -107204.1 160741.933 -107205.103 160699.522 -107228.451 160671.384 -107271.675 160668.769 -107280.16 160643.308 -107321.308 160611.001 -107341.128 160564.286 -107360.77 160564.286 -107309.95 160578.496 -107236.082 160620.675 -107168.327 160642.624 -107145.661 160692.517 -107116.569 160755.967 -107103.4 160821.744 -107106.968 160821.744 -107106.968"/><path d="M 160821.744 -107106.968 160878.616 -107128.087 160879.267 -107128.493 160914.44 -107154.38 160940.407 -107184.633 160958.67 -107224.058 160970.732 -107277.462 160978.096 -107349.651 160982.264 -107445.432 160982.629 -107459.078 160987.876 -107664.842 160943.716 -107687.678 160911.763 -107703.11 160892.47 -107710.423 160891.578 -107710.514 160888.239 -107697.022 160885.587 -107660.626 160883.956 -107607.452 160883.6 -107564.393 160883.592 -107494.641 160880.403 -107450.837 160869.288 -107429.944 160845.501 -107428.925 160804.296 -107444.741 160742.086 -107473.815 160696.341 -107497.963 160672.813 -107518.913 160665.896 -107541.747 160665.886 -107542.877 160677.299 -107582.212 160711.092 -107603.462 160762.809 -107606.539 160800.061 -107606.006 160819.703 -107616.735 160831.952 -107642.505 160839.002 -107675.337 160828.842 -107693.966 160825.017 -107696.632 160789.001 -107707.34 160738.566 -107708.856 160686.626 -107701.759 160649.822 -107688.788 160598.938 -107645.585 160570.014 -107585.446 160564.286 -107538.462 160568.657 -107496.082 160584.475 -107461.488 160615.797 -107430.763 160666.678 -107399.99 160741.176 -107365.252 160745.714 -107363.288 160812.821 -107332.287 160854.232 -107306.862 160871.981 -107284.014 160868.107 -107260.745 160844.643 -107234.056 160837.627 -107227.914 160790.63 -107204.1 160741.933 -107205.103 160699.522 -107228.451 160671.384 -107271.675 160668.769 -107280.16 160643.308 -107321.308 160611.001 -107341.128 160564.286 -107360.77 160564.286 -107309.95 160578.496 -107236.082 160620.675 -107168.327 160642.624 -107145.661 160692.517 -107116.569 160755.967 -107103.4 160821.744 -107106.968" fill="none" stroke-width="10"/><path d="M 160157.886 -107007.289 160162.139 -107066.613 160167.025 -107101.572 160173.795 -107116.82 160183.702 -107117.015 160186.914 -107115.195 160229.644 -107102.015 160285.227 -107102.785 160341.737 -107116.333 160377.082 -107133.861 160413.321 -107161.861 160439.813 -107193.549 160457.999 -107233.813 160469.322 -107287.543 160475.222 -107359.626 160477.143 -107454.951 160477.177 -107473.237 160477.2 -107678.646 160431.491 -107694.58 160399.027 -107705.42 160381.215 -107710.468 160380.691 -107710.514 160378.937 -107696.828 160377.444 -107659.076 160376.326 -107602.224 160375.697 -107531.234 160375.6 -107488.073 160375.398 -107402.973 160374.358 -107341.981 160371.831 -107300.177 160367.164 -107272.642 160359.707 -107254.456 160348.811 -107240.698 160342.007 -107234.073 160295.272 -107207.375 160244.272 -107205.375 160198.001 -107227.955 160189.444 -107236.107 160176.893 -107251.436 160168.188 -107269.618 160162.631 -107295.909 160159.526 -107335.562 160158.176 -107393.832 160157.886 -107474.173 160157.886 -107678.646 160112.177 -107694.58 160079.713 -107705.42 160061.901 -107710.468 160061.377 -107710.514 160060.037 -107696.623 160058.828 -107657.439 160057.801 -107596.7 160057.002 -107518.141 160056.481 -107425.498 160056.286 -107322.509 160056.286 -106925.342 160103.457 -106905.444 160150.629 -106885.547 160157.886 -107007.289 160157.886 -107007.289"/><path d="M 160157.886 -107007.289 160162.139 -107066.613 160167.025 -107101.572 160173.795 -107116.82 160183.702 -107117.015 160186.914 -107115.195 160229.644 -107102.015 160285.227 -107102.785 160341.737 -107116.333 160377.082 -107133.861 160413.321 -107161.861 160439.813 -107193.549 160457.999 -107233.813 160469.322 -107287.543 160475.222 -107359.626 160477.143 -107454.951 160477.177 -107473.237 160477.2 -107678.646 160431.491 -107694.58 160399.027 -107705.42 160381.215 -107710.468 160380.691 -107710.514 160378.937 -107696.828 160377.444 -107659.076 160376.326 -107602.224 160375.697 -107531.234 160375.6 -107488.073 160375.398 -107402.973 160374.358 -107341.981 160371.831 -107300.177 160367.164 -107272.642 160359.707 -107254.456 160348.811 -107240.698 160342.007 -107234.073 160295.272 -107207.375 160244.272 -107205.375 160198.001 -107227.955 160189.444 -107236.107 160176.893 -107251.436 160168.188 -107269.618 160162.631 -107295.909 160159.526 -107335.562 160158.176 -107393.832 160157.886 -107474.173 160157.886 -107678.646 160112.177 -107694.58 160079.713 -107705.42 160061.901 -107710.468 160061.377 -107710.514 160060.037 -107696.623 160058.828 -107657.439 160057.801 -107596.7 160057.002 -107518.141 160056.481 -107425.498 160056.286 -107322.509 160056.286 -106925.342 160103.457 -106905.444 160150.629 -106885.547 160157.886 -107007.289" fill="none" stroke-width="10"/><path d="M 158950.303 -107087.239 159007.527 -107125.735 159051.749 -107181.335 159078.167 -107252.086 159083.51 -107304.162 159082.903 -107325.893 159077.822 -107342.531 159063.855 -107357.437 159036.589 -107373.973 158991.612 -107395.498 158924.511 -107425.374 158924.171 -107425.524 158862.407 -107453.813 158811.759 -107478.933 158777.404 -107498.179 158764.518 -107508.848 158764.514 -107508.934 158775.872 -107532.166 158802.431 -107557.774 158832.923 -107576.221 158848.37 -107579.886 158890.515 -107567.212 158926.808 -107535.471 158944.517 -107500.572 158961.552 -107474.845 158994.922 -107445.546 159034.149 -107420.235 159068.756 -107406.471 159075.993 -107405.714 159084.139 -107418.16 159084.63 -107449.972 159078.643 -107492.866 159067.357 -107538.558 159051.95 -107578.761 159051.171 -107580.322 159004.804 -107645.062 158944.711 -107689.097 158876.465 -107710.711 158805.638 -107708.185 158737.804 -107679.804 158734.788 -107677.808 158681.427 -107629.448 158646.34 -107566.352 158626.922 -107483.387 158624.316 -107460.078 158619.701 -107350.055 158625.233 -107298.748 158764.514 -107298.748 158766.324 -107330.753 158776.222 -107340.093 158800.898 -107333.105 158839.795 -107316.587 158883.275 -107295.881 158884.356 -107295.333 158921.209 -107275.949 158936 -107263.013 158932.353 -107249.451 158916.995 -107231.632 158877.923 -107205.845 158835.846 -107203.95 158798.103 -107222.717 158772.034 -107258.915 158764.514 -107298.748 158625.233 -107298.748 158629.194 -107262.027 158653.55 -107192.212 158687.456 -107143.302 158748.653 -107093.878 158816.063 -107069.359 158884.88 -107067.797 158950.303 -107087.239 158950.303 -107087.239"/><path d="M 158950.303 -107087.239 159007.527 -107125.735 159051.749 -107181.335 159078.167 -107252.086 159083.51 -107304.162 159082.903 -107325.893 159077.822 -107342.531 159063.855 -107357.437 159036.589 -107373.973 158991.612 -107395.498 158924.511 -107425.374 158924.171 -107425.524 158862.407 -107453.813 158811.759 -107478.933 158777.404 -107498.179 158764.518 -107508.848 158764.514 -107508.934 158775.872 -107532.166 158802.431 -107557.774 158832.923 -107576.221 158848.37 -107579.886 158890.515 -107567.212 158926.808 -107535.471 158944.517 -107500.572 158961.552 -107474.845 158994.922 -107445.546 159034.149 -107420.235 159068.756 -107406.471 159075.993 -107405.714 159084.139 -107418.16 159084.63 -107449.972 159078.643 -107492.866 159067.357 -107538.558 159051.95 -107578.761 159051.171 -107580.322 159004.804 -107645.062 158944.711 -107689.097 158876.465 -107710.711 158805.638 -107708.185 158737.804 -107679.804 158734.788 -107677.808 158681.427 -107629.448 158646.34 -107566.352 158626.922 -107483.387 158624.316 -107460.078 158619.701 -107350.055 158625.233 -107298.748 158764.514 -107298.748 158766.324 -107330.753 158776.222 -107340.093 158800.898 -107333.105 158839.795 -107316.587 158883.275 -107295.881 158884.356 -107295.333 158921.209 -107275.949 158936 -107263.013 158932.353 -107249.451 158916.995 -107231.632 158877.923 -107205.845 158835.846 -107203.95 158798.103 -107222.717 158772.034 -107258.915 158764.514 -107298.748 158625.233 -107298.748 158629.194 -107262.027 158653.55 -107192.212 158687.456 -107143.302 158748.653 -107093.878 158816.063 -107069.359 158884.88 -107067.797 158950.303 -107087.239" fill="none" stroke-width="10"/><path d="M 157823.115 -107077.962 157891.145 -107113.733 157941.351 -107171.301 157959.185 -107208.312 157973.063 -107263.882 157980.167 -107334.096 157980.84 -107410.727 157975.427 -107485.552 157964.27 -107550.342 157947.714 -107596.873 157942.626 -107604.887 157882.355 -107664.707 157810.769 -107700.535 157733.092 -107711.02 157654.548 -107694.81 157632.689 -107685.092 157590.122 -107655.143 157552.763 -107615.433 157549.232 -107610.397 157534.881 -107586.124 157525.394 -107560.178 157519.79 -107526.022 157517.086 -107477.119 157516.299 -107406.935 157516.286 -107391.2 157516.322 -107386.192 157661.429 -107386.192 157662.273 -107452.43 157665.596 -107496.386 157672.583 -107524.779 157684.416 -107544.325 157690.457 -107550.857 157725.186 -107575.68 157758.903 -107574.548 157792.995 -107553.016 157813.329 -107530.029 157825.371 -107496.478 157832.134 -107443.569 157832.598 -107437.399 157833.752 -107341.513 157821.688 -107270.299 157796.57 -107224.194 157758.56 -107203.635 157744.992 -107202.514 157709.364 -107208.152 157684.994 -107227.686 157670.093 -107265.042 157662.875 -107324.15 157661.429 -107386.192 157516.322 -107386.192 157516.826 -107316.413 157519.096 -107264.159 157524.068 -107227.949 157532.713 -107201.299 157546.005 -107177.722 157548.943 -107173.338 157598.313 -107114.249 157652.109 -107079.947 157717.602 -107066.331 157739.842 -107065.665 157823.115 -107077.962 157823.115 -107077.962"/><path d="M 157823.115 -107077.962 157891.145 -107113.733 157941.351 -107171.301 157959.185 -107208.312 157973.063 -107263.882 157980.167 -107334.096 157980.84 -107410.727 157975.427 -107485.552 157964.27 -107550.342 157947.714 -107596.873 157942.626 -107604.887 157882.355 -107664.707 157810.769 -107700.535 157733.092 -107711.02 157654.548 -107694.81 157632.689 -107685.092 157590.122 -107655.143 157552.763 -107615.433 157549.232 -107610.397 157534.881 -107586.124 157525.394 -107560.178 157519.79 -107526.022 157517.086 -107477.119 157516.299 -107406.935 157516.286 -107391.2 157516.322 -107386.192 157661.429 -107386.192 157662.273 -107452.43 157665.596 -107496.386 157672.583 -107524.779 157684.416 -107544.325 157690.457 -107550.857 157725.186 -107575.68 157758.903 -107574.548 157792.995 -107553.016 157813.329 -107530.029 157825.371 -107496.478 157832.134 -107443.569 157832.598 -107437.399 157833.752 -107341.513 157821.688 -107270.299 157796.57 -107224.194 157758.56 -107203.635 157744.992 -107202.514 157709.364 -107208.152 157684.994 -107227.686 157670.093 -107265.042 157662.875 -107324.15 157661.429 -107386.192 157516.322 -107386.192 157516.826 -107316.413 157519.096 -107264.159 157524.068 -107227.949 157532.713 -107201.299 157546.005 -107177.722 157548.943 -107173.338 157598.313 -107114.249 157652.109 -107079.947 157717.602 -107066.331 157739.842 -107065.665 157823.115 -107077.962" fill="none" stroke-width="10"/><path d="M 159498.093 -107083.78 159544.672 -107110.723 159577.057 -107137.466 159600.742 -107165.484 159617.059 -107199.748 159627.339 -107245.227 159632.914 -107306.892 159635.116 -107389.711 159635.371 -107449.246 159635.371 -107668.391 159573.686 -107696.044 159512 -107723.697 159504.743 -107483.67 159501.744 -107394.028 159498.598 -107328.962 159494.701 -107284.026 159489.447 -107254.77 159482.231 -107236.748 159472.45 -107225.511 159469.312 -107223.079 159421.761 -107204.083 159373.697 -107211.6 159345.086 -107231.543 159333.447 -107245.675 159325.391 -107264.22 159320.271 -107292.334 159317.441 -107335.173 159316.256 -107397.895 159316.057 -107463.261 159316.018 -107545.268 159314.614 -107603.316 159309.914 -107642.465 159299.987 -107667.78 159282.903 -107684.323 159256.732 -107697.156 159221.775 -107710.491 159183.596 -107725.007 159188.141 -107467.389 159189.971 -107374.519 159192.112 -107305.889 159195.181 -107256.711 159199.794 -107222.198 159206.568 -107197.562 159216.119 -107178.016 159227.634 -107160.77 159283.19 -107105.68 159350.98 -107073.822 159424.713 -107066.191 159498.093 -107083.78 159498.093 -107083.78"/><path d="M 159498.093 -107083.78 159544.672 -107110.723 159577.057 -107137.466 159600.742 -107165.484 159617.059 -107199.748 159627.339 -107245.227 159632.914 -107306.892 159635.116 -107389.711 159635.371 -107449.246 159635.371 -107668.391 159573.686 -107696.044 159512 -107723.697 159504.743 -107483.67 159501.744 -107394.028 159498.598 -107328.962 159494.701 -107284.026 159489.447 -107254.77 159482.231 -107236.748 159472.45 -107225.511 159469.312 -107223.079 159421.761 -107204.083 159373.697 -107211.6 159345.086 -107231.543 159333.447 -107245.675 159325.391 -107264.22 159320.271 -107292.334 159317.441 -107335.173 159316.256 -107397.895 159316.057 -107463.261 159316.018 -107545.268 159314.614 -107603.316 159309.914 -107642.465 159299.987 -107667.78 159282.903 -107684.323 159256.732 -107697.156 159221.775 -107710.491 159183.596 -107725.007 159188.141 -107467.389 159189.971 -107374.519 159192.112 -107305.889 159195.181 -107256.711 159199.794 -107222.198 159206.568 -107197.562 159216.119 -107178.016 159227.634 -107160.77 159283.19 -107105.68 159350.98 -107073.822 159424.713 -107066.191 159498.093 -107083.78" fill="none" stroke-width="10"/><path d="M 158381.744 -107075.918 158437.201 -107103.568 158486.148 -107154.48 158499.629 -107173.338 158514.314 -107198.015 158523.842 -107224.816 158529.293 -107260.587 158531.747 -107312.169 158532.286 -107380.267 158529.852 -107473.588 158521.394 -107543.657 158505.174 -107595.931 158479.454 -107635.869 158442.497 -107668.929 158439.782 -107670.886 158403.36 -107690.908 158359.502 -107700.815 158303.724 -107703.257 158213.048 -107703.257 158213.01 -107791.283 158212.166 -107840.308 158207.024 -107869.065 158193.587 -107886.311 158167.858 -107900.808 158161.679 -107903.769 158132.764 -107917.648 158110.376 -107926.414 158093.729 -107927.171 158082.036 -107917.023 158074.51 -107893.073 158070.366 -107852.426 158068.815 -107792.186 158069.071 -107709.455 158070.349 -107601.339 158070.748 -107569 158072.185 -107457.524 158073.472 -107384.603 158212.971 -107384.603 158213.755 -107446.499 158217.24 -107486.997 158225.124 -107513.708 158239.105 -107534.244 158248.597 -107544.26 158287.404 -107573.567 158321.763 -107575.952 158357.216 -107551.75 158358.114 -107550.857 158372.539 -107532.153 158381.313 -107506.732 158385.739 -107467.584 158387.118 -107407.697 158387.143 -107394.43 158383.812 -107311.901 158372.969 -107254.691 158353.34 -107219.766 158323.65 -107204.094 158306.491 -107202.514 158265.766 -107209.926 158237.832 -107234.33 158221.017 -107278.98 158213.65 -107347.13 158212.971 -107384.603 158073.472 -107384.603 158073.708 -107371.245 158075.677 -107306.333 158078.45 -107258.958 158082.388 -107225.29 158087.849 -107201.498 158095.192 -107183.753 158104.777 -107168.224 158108.887 -107162.381 158163.405 -107107.185 158232.336 -107075.89 158312.072 -107067.165 158381.744 -107075.918 158381.744 -107075.918"/><path d="M 158381.744 -107075.918 158437.201 -107103.568 158486.148 -107154.48 158499.629 -107173.338 158514.314 -107198.015 158523.842 -107224.816 158529.293 -107260.587 158531.747 -107312.169 158532.286 -107380.267 158529.852 -107473.588 158521.394 -107543.657 158505.174 -107595.931 158479.454 -107635.869 158442.497 -107668.929 158439.782 -107670.886 158403.36 -107690.908 158359.502 -107700.815 158303.724 -107703.257 158213.048 -107703.257 158213.01 -107791.283 158212.166 -107840.308 158207.024 -107869.065 158193.587 -107886.311 158167.858 -107900.808 158161.679 -107903.769 158132.764 -107917.648 158110.376 -107926.414 158093.729 -107927.171 158082.036 -107917.023 158074.51 -107893.073 158070.366 -107852.426 158068.815 -107792.186 158069.071 -107709.455 158070.349 -107601.339 158070.748 -107569 158072.185 -107457.524 158073.472 -107384.603 158212.971 -107384.603 158213.755 -107446.499 158217.24 -107486.997 158225.124 -107513.708 158239.105 -107534.244 158248.597 -107544.26 158287.404 -107573.567 158321.763 -107575.952 158357.216 -107551.75 158358.114 -107550.857 158372.539 -107532.153 158381.313 -107506.732 158385.739 -107467.584 158387.118 -107407.697 158387.143 -107394.43 158383.812 -107311.901 158372.969 -107254.691 158353.34 -107219.766 158323.65 -107204.094 158306.491 -107202.514 158265.766 -107209.926 158237.832 -107234.33 158221.017 -107278.98 158213.65 -107347.13 158212.971 -107384.603 158073.472 -107384.603 158073.708 -107371.245 158075.677 -107306.333 158078.45 -107258.958 158082.388 -107225.29 158087.849 -107201.498 158095.192 -107183.753 158104.777 -107168.224 158108.887 -107162.381 158163.405 -107107.185 158232.336 -107075.89 158312.072 -107067.165 158381.744 -107075.918" fill="none" stroke-width="10"/></g><g id="lCpLQ-624iJw4kLatod0_top_soldermask"><path d="M 161984.388 -111538.957 162121.901 -111580.671 162163.615 -111593.325 162246.204 -111637.47 162328.793 -111681.614 162473.57 -111800.43 162592.386 -111945.208 162680.675 -112110.384 162690.94 -112144.223 162735.043 -112289.61 162748.8 -112429.286 162748.8 -113122.713 162735.043 -113262.389 162701.204 -113373.939 162680.675 -113441.616 162621.816 -113551.733 162592.386 -113606.793 162473.57 -113751.57 162328.792 -113870.386 162163.616 -113958.675 162121.902 -113971.329 161984.389 -114013.043 161798 -114031.401 161611.612 -114013.043 161474.099 -113971.329 161432.385 -113958.675 161267.209 -113870.386 161122.431 -113751.57 161003.615 -113606.792 160915.326 -113441.616 160915.325 -113441.614 160860.957 -113262.388 160847.2 -113122.714 160847.2 -112429.287 160860.957 -112289.611 160915.325 -112110.386 160915.325 -112110.385 160959.469 -112027.797 161003.614 -111945.207 161122.43 -111800.43 161267.208 -111681.614 161432.384 -111593.325 161474.098 -111580.671 161611.611 -111538.957 161798 -111520.599 161984.388 -111538.957 161984.388 -111538.957"/><path d="M 161984.388 -108490.957 162121.901 -108532.671 162163.615 -108545.325 162246.204 -108589.47 162328.793 -108633.614 162473.57 -108752.43 162592.386 -108897.208 162680.675 -109062.384 162690.94 -109096.223 162735.043 -109241.61 162748.8 -109381.286 162748.8 -110074.713 162735.043 -110214.389 162701.204 -110325.939 162680.675 -110393.616 162621.816 -110503.733 162592.386 -110558.793 162473.57 -110703.57 162328.792 -110822.386 162163.616 -110910.675 162121.902 -110923.329 161984.389 -110965.043 161798 -110983.401 161611.612 -110965.043 161474.099 -110923.329 161432.385 -110910.675 161267.209 -110822.386 161122.431 -110703.57 161003.615 -110558.792 160915.326 -110393.616 160915.325 -110393.614 160860.957 -110214.388 160847.2 -110074.714 160847.2 -109381.287 160860.957 -109241.611 160915.325 -109062.386 160915.325 -109062.385 160959.47 -108979.796 161003.614 -108897.207 161122.43 -108752.43 161267.208 -108633.614 161432.384 -108545.325 161474.098 -108532.671 161611.611 -108490.957 161798 -108472.599 161984.388 -108490.957 161984.388 -108490.957"/><path d="M 161984.388 -105442.957 162121.901 -105484.671 162163.615 -105497.325 162246.204 -105541.47 162328.793 -105585.614 162473.57 -105704.43 162592.386 -105849.208 162680.675 -106014.384 162690.94 -106048.223 162735.043 -106193.61 162748.8 -106333.286 162748.8 -107026.713 162735.043 -107166.389 162701.204 -107277.939 162680.675 -107345.616 162621.816 -107455.733 162592.386 -107510.793 162473.57 -107655.57 162328.792 -107774.386 162163.616 -107862.675 162121.902 -107875.329 161984.389 -107917.043 161798 -107935.401 161611.612 -107917.043 161474.099 -107875.329 161432.385 -107862.675 161267.209 -107774.386 161122.431 -107655.57 161003.615 -107510.792 160915.326 -107345.616 160915.325 -107345.614 160860.957 -107166.388 160847.2 -107026.714 160847.2 -106333.287 160860.957 -106193.611 160915.325 -106014.386 160915.325 -106014.385 160959.47 -105931.796 161003.614 -105849.207 161122.43 -105704.43 161267.208 -105585.614 161432.384 -105497.325 161474.098 -105484.671 161611.611 -105442.957 161798 -105424.599 161984.388 -105442.957 161984.388 -105442.957"/><path d="M 161984.388 -102394.957 162121.901 -102436.671 162163.615 -102449.325 162215.765 -102477.2 162328.793 -102537.614 162473.57 -102656.43 162592.386 -102801.208 162680.675 -102966.384 162690.94 -103000.223 162735.043 -103145.61 162748.8 -103285.286 162748.8 -103978.713 162735.043 -104118.389 162705.961 -104214.257 162680.675 -104297.616 162621.816 -104407.733 162592.386 -104462.793 162473.57 -104607.57 162328.792 -104726.386 162163.616 -104814.675 162121.902 -104827.329 161984.389 -104869.043 161798 -104887.401 161611.612 -104869.043 161474.099 -104827.329 161432.385 -104814.675 161267.209 -104726.386 161122.431 -104607.57 161003.615 -104462.792 160915.326 -104297.616 160890.039 -104214.257 160860.957 -104118.388 160847.2 -103978.714 160847.2 -103285.287 160860.957 -103145.611 160915.325 -102966.386 160915.325 -102966.385 160964.107 -102875.121 161003.614 -102801.207 161122.43 -102656.43 161267.208 -102537.614 161432.384 -102449.325 161474.098 -102436.671 161611.611 -102394.957 161798 -102376.599 161984.388 -102394.957 161984.388 -102394.957"/><path d="M 156894.588 -102490.233 157064.385 -102541.741 157220.878 -102625.388 157358.044 -102737.956 157470.612 -102875.122 157554.259 -103031.615 157605.767 -103201.412 157623.159 -103378 157605.767 -103554.588 157554.259 -103724.385 157470.612 -103880.878 157358.044 -104018.044 157220.878 -104130.612 157064.385 -104214.259 156894.588 -104265.767 156762.259 -104278.8 156673.741 -104278.8 156541.412 -104265.767 156371.615 -104214.259 156215.122 -104130.612 156077.956 -104018.044 155965.388 -103880.878 155881.741 -103724.385 155830.233 -103554.588 155812.841 -103378 155830.233 -103201.412 155881.741 -103031.615 155965.388 -102875.122 156077.956 -102737.956 156215.122 -102625.388 156371.615 -102541.741 156541.412 -102490.233 156673.741 -102477.2 156762.259 -102477.2 156894.588 -102490.233 156894.588 -102490.233"/><path d="M 155078.8 -104278.8 153277.2 -104278.8 153277.2 -102477.2 155078.8 -102477.2 155078.8 -104278.8 155078.8 -104278.8"/></g><g id="lCpLQ-624iJw4kLatod0_top_drill1" transform="scale(25.4,25.4)"><path d="M 6370 -4188.2 6370 -4211.8 M 6370 -4428.2 6370 -4451.8 M 6370 -4308.2 6370 -4331.8 M 6370 -4068.2 6370 -4091.8" fill="none" stroke-width="70.9"/></g><g id="lCpLQ-624iJw4kLatod0_top_drill2" transform="scale(25.4,25.4)"><use xlink:href="#ZC3ly6M5eM9GSjbbF7A4_pad-1" x="6070" y="-4070"/><use xlink:href="#ZC3ly6M5eM9GSjbbF7A4_pad-1" x="6170" y="-4070"/></g><clipPath id="lCpLQ-624iJw4kLatod0_top_outline"><path d="M 152400 -114300 152400 -101600 165100 -101600 165100 -114300 152400 -114300" fill="none" stroke-width="2.54"/></clipPath><mask id="lCpLQ-624iJw4kLatod0_top_mech-mask"><g fill="#000" stroke="#000"><rect x="152400" y="-114300" width="12700" height="12700" fill="#fff"/><use xlink:href="#lCpLQ-624iJw4kLatod0_top_drill1"/><use xlink:href="#lCpLQ-624iJw4kLatod0_top_drill2"/></g></mask><mask id="lCpLQ-624iJw4kLatod0_top_cf-mask"><g fill="#fff" stroke="#fff"><use xlink:href="#lCpLQ-624iJw4kLatod0_top_soldermask"/></g></mask><mask id="lCpLQ-624iJw4kLatod0_top_sm-mask"><g fill="#000" stroke="#000"><rect x="152400" y="-114300" width="12700" height="12700" fill="#fff"/><use xlink:href="#lCpLQ-624iJw4kLatod0_top_soldermask"/></g></mask></defs><g transform="translate(0,-215900) scale(1,-1)"><g mask="url(#lCpLQ-624iJw4kLatod0_top_mech-mask)" clip-path="url(#lCpLQ-624iJw4kLatod0_top_outline)"><rect x="152400" y="-114300" width="12700" height="12700" fill="currentColor" class="lCpLQ-624iJw4kLatod0_fr4"/><use xlink:href="#lCpLQ-624iJw4kLatod0_top_copper" fill="currentColor" stroke="currentColor" class="lCpLQ-624iJw4kLatod0_cu"/><use xlink:href="#lCpLQ-624iJw4kLatod0_top_copper" fill="currentColor" stroke="currentColor" class="lCpLQ-624iJw4kLatod0_cf" mask="url(#lCpLQ-624iJw4kLatod0_top_cf-mask)"/><g mask="url(#lCpLQ-624iJw4kLatod0_top_sm-mask)"><rect x="152400" y="-114300" width="12700" height="12700" fill="currentColor" class="lCpLQ-624iJw4kLatod0_sm"/><use xlink:href="#lCpLQ-624iJw4kLatod0_top_silkscreen" fill="currentColor" stroke="currentColor" class="lCpLQ-624iJw4kLatod0_ss"/></g></g></g></svg>