G04 #@! TF.GenerationSoftware,KiCad,Pcbnew,5.0.2-bee76a0~70~ubuntu16.04.1*
G04 #@! TF.CreationDate,2019-07-09T20:02:22-07:00*
G04 #@! TF.ProjectId,reverse-mount-led-test,72657665-7273-4652-9d6d-6f756e742d6c,rev?*
G04 #@! TF.SameCoordinates,Original*
G04 #@! TF.FileFunction,Soldermask,Top*
G04 #@! TF.FilePolarity,Negative*
%FSLAX46Y46*%
G04 Gerber Fmt 4.6, Leading zero omitted, Abs format (unit mm)*
G04 Created by KiCad (PCBNEW 5.0.2-bee76a0~70~ubuntu16.04.1) date Tue 09 Jul 2019 08:02:22 PM PDT*
%MOMM*%
%LPD*%
G01*
G04 APERTURE LIST*
%ADD10C,0.100000*%
G04 APERTURE END LIST*
D10*
G36*
X161984388Y-111538957D02*
X162121901Y-111580671D01*
X162163615Y-111593325D01*
X162246204Y-111637470D01*
X162328793Y-111681614D01*
X162473570Y-111800430D01*
X162592386Y-111945208D01*
X162680675Y-112110384D01*
X162690940Y-112144223D01*
X162735043Y-112289610D01*
X162748800Y-112429286D01*
X162748800Y-113122713D01*
X162735043Y-113262389D01*
X162701204Y-113373939D01*
X162680675Y-113441616D01*
X162621816Y-113551733D01*
X162592386Y-113606793D01*
X162473570Y-113751570D01*
X162328792Y-113870386D01*
X162163616Y-113958675D01*
X162121902Y-113971329D01*
X161984389Y-114013043D01*
X161798000Y-114031401D01*
X161611612Y-114013043D01*
X161474099Y-113971329D01*
X161432385Y-113958675D01*
X161267209Y-113870386D01*
X161122431Y-113751570D01*
X161003615Y-113606792D01*
X160915326Y-113441616D01*
X160915325Y-113441614D01*
X160860957Y-113262388D01*
X160847200Y-113122714D01*
X160847200Y-112429287D01*
X160860957Y-112289611D01*
X160915325Y-112110386D01*
X160915325Y-112110385D01*
X160959469Y-112027797D01*
X161003614Y-111945207D01*
X161122430Y-111800430D01*
X161267208Y-111681614D01*
X161432384Y-111593325D01*
X161474098Y-111580671D01*
X161611611Y-111538957D01*
X161798000Y-111520599D01*
X161984388Y-111538957D01*
X161984388Y-111538957D01*
G37*
G36*
X161984388Y-108490957D02*
X162121901Y-108532671D01*
X162163615Y-108545325D01*
X162246204Y-108589470D01*
X162328793Y-108633614D01*
X162473570Y-108752430D01*
X162592386Y-108897208D01*
X162680675Y-109062384D01*
X162690940Y-109096223D01*
X162735043Y-109241610D01*
X162748800Y-109381286D01*
X162748800Y-110074713D01*
X162735043Y-110214389D01*
X162701204Y-110325939D01*
X162680675Y-110393616D01*
X162621816Y-110503733D01*
X162592386Y-110558793D01*
X162473570Y-110703570D01*
X162328792Y-110822386D01*
X162163616Y-110910675D01*
X162121902Y-110923329D01*
X161984389Y-110965043D01*
X161798000Y-110983401D01*
X161611612Y-110965043D01*
X161474099Y-110923329D01*
X161432385Y-110910675D01*
X161267209Y-110822386D01*
X161122431Y-110703570D01*
X161003615Y-110558792D01*
X160915326Y-110393616D01*
X160915325Y-110393614D01*
X160860957Y-110214388D01*
X160847200Y-110074714D01*
X160847200Y-109381287D01*
X160860957Y-109241611D01*
X160915325Y-109062386D01*
X160915325Y-109062385D01*
X160959470Y-108979796D01*
X161003614Y-108897207D01*
X161122430Y-108752430D01*
X161267208Y-108633614D01*
X161432384Y-108545325D01*
X161474098Y-108532671D01*
X161611611Y-108490957D01*
X161798000Y-108472599D01*
X161984388Y-108490957D01*
X161984388Y-108490957D01*
G37*
G36*
X161984388Y-105442957D02*
X162121901Y-105484671D01*
X162163615Y-105497325D01*
X162246204Y-105541470D01*
X162328793Y-105585614D01*
X162473570Y-105704430D01*
X162592386Y-105849208D01*
X162680675Y-106014384D01*
X162690940Y-106048223D01*
X162735043Y-106193610D01*
X162748800Y-106333286D01*
X162748800Y-107026713D01*
X162735043Y-107166389D01*
X162701204Y-107277939D01*
X162680675Y-107345616D01*
X162621816Y-107455733D01*
X162592386Y-107510793D01*
X162473570Y-107655570D01*
X162328792Y-107774386D01*
X162163616Y-107862675D01*
X162121902Y-107875329D01*
X161984389Y-107917043D01*
X161798000Y-107935401D01*
X161611612Y-107917043D01*
X161474099Y-107875329D01*
X161432385Y-107862675D01*
X161267209Y-107774386D01*
X161122431Y-107655570D01*
X161003615Y-107510792D01*
X160915326Y-107345616D01*
X160915325Y-107345614D01*
X160860957Y-107166388D01*
X160847200Y-107026714D01*
X160847200Y-106333287D01*
X160860957Y-106193611D01*
X160915325Y-106014386D01*
X160915325Y-106014385D01*
X160959470Y-105931796D01*
X161003614Y-105849207D01*
X161122430Y-105704430D01*
X161267208Y-105585614D01*
X161432384Y-105497325D01*
X161474098Y-105484671D01*
X161611611Y-105442957D01*
X161798000Y-105424599D01*
X161984388Y-105442957D01*
X161984388Y-105442957D01*
G37*
G36*
X161984388Y-102394957D02*
X162121901Y-102436671D01*
X162163615Y-102449325D01*
X162215765Y-102477200D01*
X162328793Y-102537614D01*
X162473570Y-102656430D01*
X162592386Y-102801208D01*
X162680675Y-102966384D01*
X162690940Y-103000223D01*
X162735043Y-103145610D01*
X162748800Y-103285286D01*
X162748800Y-103978713D01*
X162735043Y-104118389D01*
X162705961Y-104214257D01*
X162680675Y-104297616D01*
X162621816Y-104407733D01*
X162592386Y-104462793D01*
X162473570Y-104607570D01*
X162328792Y-104726386D01*
X162163616Y-104814675D01*
X162121902Y-104827329D01*
X161984389Y-104869043D01*
X161798000Y-104887401D01*
X161611612Y-104869043D01*
X161474099Y-104827329D01*
X161432385Y-104814675D01*
X161267209Y-104726386D01*
X161122431Y-104607570D01*
X161003615Y-104462792D01*
X160915326Y-104297616D01*
X160890039Y-104214257D01*
X160860957Y-104118388D01*
X160847200Y-103978714D01*
X160847200Y-103285287D01*
X160860957Y-103145611D01*
X160915325Y-102966386D01*
X160915325Y-102966385D01*
X160964107Y-102875121D01*
X161003614Y-102801207D01*
X161122430Y-102656430D01*
X161267208Y-102537614D01*
X161432384Y-102449325D01*
X161474098Y-102436671D01*
X161611611Y-102394957D01*
X161798000Y-102376599D01*
X161984388Y-102394957D01*
X161984388Y-102394957D01*
G37*
G36*
X156894588Y-102490233D02*
X157064385Y-102541741D01*
X157220878Y-102625388D01*
X157358044Y-102737956D01*
X157470612Y-102875122D01*
X157554259Y-103031615D01*
X157605767Y-103201412D01*
X157623159Y-103378000D01*
X157605767Y-103554588D01*
X157554259Y-103724385D01*
X157470612Y-103880878D01*
X157358044Y-104018044D01*
X157220878Y-104130612D01*
X157064385Y-104214259D01*
X156894588Y-104265767D01*
X156762259Y-104278800D01*
X156673741Y-104278800D01*
X156541412Y-104265767D01*
X156371615Y-104214259D01*
X156215122Y-104130612D01*
X156077956Y-104018044D01*
X155965388Y-103880878D01*
X155881741Y-103724385D01*
X155830233Y-103554588D01*
X155812841Y-103378000D01*
X155830233Y-103201412D01*
X155881741Y-103031615D01*
X155965388Y-102875122D01*
X156077956Y-102737956D01*
X156215122Y-102625388D01*
X156371615Y-102541741D01*
X156541412Y-102490233D01*
X156673741Y-102477200D01*
X156762259Y-102477200D01*
X156894588Y-102490233D01*
X156894588Y-102490233D01*
G37*
G36*
X155078800Y-104278800D02*
X153277200Y-104278800D01*
X153277200Y-102477200D01*
X155078800Y-102477200D01*
X155078800Y-104278800D01*
X155078800Y-104278800D01*
G37*
M02*
