G04 #@! TF.GenerationSoftware,KiCad,Pcbnew,5.0.2-bee76a0~70~ubuntu16.04.1*
G04 #@! TF.CreationDate,2019-07-09T20:02:22-07:00*
G04 #@! TF.ProjectId,reverse-mount-led-test,72657665-7273-4652-9d6d-6f756e742d6c,rev?*
G04 #@! TF.SameCoordinates,Original*
G04 #@! TF.FileFunction,Other,Fab,Bot*
%FSLAX46Y46*%
G04 Gerber Fmt 4.6, Leading zero omitted, Abs format (unit mm)*
G04 Created by KiCad (PCBNEW 5.0.2-bee76a0~70~ubuntu16.04.1) date Tue 09 Jul 2019 08:02:22 PM PDT*
%MOMM*%
%LPD*%
G01*
G04 APERTURE LIST*
%ADD10C,0.100000*%
%ADD11C,0.150000*%
%ADD12C,0.120000*%
%ADD13C,0.080000*%
G04 APERTURE END LIST*
D10*
G04 #@! TO.C,D1*
X163398000Y-102832000D02*
X163398000Y-104432000D01*
X160198000Y-102832000D02*
X163398000Y-102832000D01*
X160198000Y-104032000D02*
X160198000Y-102832000D01*
X160598000Y-104432000D02*
X160198000Y-104032000D01*
X163398000Y-104432000D02*
X160598000Y-104432000D01*
G04 #@! TO.C,D2*
X163398000Y-107480000D02*
X160598000Y-107480000D01*
X160598000Y-107480000D02*
X160198000Y-107080000D01*
X160198000Y-107080000D02*
X160198000Y-105880000D01*
X160198000Y-105880000D02*
X163398000Y-105880000D01*
X163398000Y-105880000D02*
X163398000Y-107480000D01*
G04 #@! TO.C,R1*
X154194000Y-105572000D02*
X154194000Y-106772000D01*
X154194000Y-106772000D02*
X156194000Y-106772000D01*
X156194000Y-106772000D02*
X156194000Y-105572000D01*
X156194000Y-105572000D02*
X154194000Y-105572000D01*
G04 #@! TO.C,R2*
X156194000Y-107858000D02*
X154194000Y-107858000D01*
X156194000Y-109058000D02*
X156194000Y-107858000D01*
X154194000Y-109058000D02*
X156194000Y-109058000D01*
X154194000Y-107858000D02*
X154194000Y-109058000D01*
G04 #@! TO.C,D3*
X163398000Y-108928000D02*
X163398000Y-110528000D01*
X160198000Y-108928000D02*
X163398000Y-108928000D01*
X160198000Y-110128000D02*
X160198000Y-108928000D01*
X160598000Y-110528000D02*
X160198000Y-110128000D01*
X163398000Y-110528000D02*
X160598000Y-110528000D01*
G04 #@! TO.C,D4*
X163398000Y-113576000D02*
X160598000Y-113576000D01*
X160598000Y-113576000D02*
X160198000Y-113176000D01*
X160198000Y-113176000D02*
X160198000Y-111976000D01*
X160198000Y-111976000D02*
X163398000Y-111976000D01*
X163398000Y-111976000D02*
X163398000Y-113576000D01*
G04 #@! TO.C,R3*
X154194000Y-110144000D02*
X154194000Y-111344000D01*
X154194000Y-111344000D02*
X156194000Y-111344000D01*
X156194000Y-111344000D02*
X156194000Y-110144000D01*
X156194000Y-110144000D02*
X154194000Y-110144000D01*
G04 #@! TO.C,R4*
X156194000Y-112430000D02*
X154194000Y-112430000D01*
X156194000Y-113630000D02*
X156194000Y-112430000D01*
X154194000Y-113630000D02*
X156194000Y-113630000D01*
X154194000Y-112430000D02*
X154194000Y-113630000D01*
G04 #@! TD*
G04 #@! TO.C,D1*
D11*
X165996857Y-104084380D02*
X166473047Y-104084380D01*
X166473047Y-103084380D01*
X165663523Y-103560571D02*
X165330190Y-103560571D01*
X165187333Y-104084380D02*
X165663523Y-104084380D01*
X165663523Y-103084380D01*
X165187333Y-103084380D01*
X164758761Y-104084380D02*
X164758761Y-103084380D01*
X164520666Y-103084380D01*
X164377809Y-103132000D01*
X164282571Y-103227238D01*
X164234952Y-103322476D01*
X164187333Y-103512952D01*
X164187333Y-103655809D01*
X164234952Y-103846285D01*
X164282571Y-103941523D01*
X164377809Y-104036761D01*
X164520666Y-104084380D01*
X164758761Y-104084380D01*
D12*
X162388476Y-103993904D02*
X162388476Y-103193904D01*
X162198000Y-103193904D01*
X162083714Y-103232000D01*
X162007523Y-103308190D01*
X161969428Y-103384380D01*
X161931333Y-103536761D01*
X161931333Y-103651047D01*
X161969428Y-103803428D01*
X162007523Y-103879619D01*
X162083714Y-103955809D01*
X162198000Y-103993904D01*
X162388476Y-103993904D01*
X161169428Y-103993904D02*
X161626571Y-103993904D01*
X161398000Y-103993904D02*
X161398000Y-103193904D01*
X161474190Y-103308190D01*
X161550380Y-103384380D01*
X161626571Y-103422476D01*
G04 #@! TO.C,D2*
D11*
X165996857Y-107132380D02*
X166473047Y-107132380D01*
X166473047Y-106132380D01*
X165663523Y-106608571D02*
X165330190Y-106608571D01*
X165187333Y-107132380D02*
X165663523Y-107132380D01*
X165663523Y-106132380D01*
X165187333Y-106132380D01*
X164758761Y-107132380D02*
X164758761Y-106132380D01*
X164520666Y-106132380D01*
X164377809Y-106180000D01*
X164282571Y-106275238D01*
X164234952Y-106370476D01*
X164187333Y-106560952D01*
X164187333Y-106703809D01*
X164234952Y-106894285D01*
X164282571Y-106989523D01*
X164377809Y-107084761D01*
X164520666Y-107132380D01*
X164758761Y-107132380D01*
D12*
X162388476Y-107041904D02*
X162388476Y-106241904D01*
X162198000Y-106241904D01*
X162083714Y-106280000D01*
X162007523Y-106356190D01*
X161969428Y-106432380D01*
X161931333Y-106584761D01*
X161931333Y-106699047D01*
X161969428Y-106851428D01*
X162007523Y-106927619D01*
X162083714Y-107003809D01*
X162198000Y-107041904D01*
X162388476Y-107041904D01*
X161626571Y-106318095D02*
X161588476Y-106280000D01*
X161512285Y-106241904D01*
X161321809Y-106241904D01*
X161245619Y-106280000D01*
X161207523Y-106318095D01*
X161169428Y-106394285D01*
X161169428Y-106470476D01*
X161207523Y-106584761D01*
X161664666Y-107041904D01*
X161169428Y-107041904D01*
G04 #@! TO.C,R1*
D11*
X152963428Y-106624380D02*
X153296761Y-106148190D01*
X153534857Y-106624380D02*
X153534857Y-105624380D01*
X153153904Y-105624380D01*
X153058666Y-105672000D01*
X153011047Y-105719619D01*
X152963428Y-105814857D01*
X152963428Y-105957714D01*
X153011047Y-106052952D01*
X153058666Y-106100571D01*
X153153904Y-106148190D01*
X153534857Y-106148190D01*
X152772952Y-106719619D02*
X152011047Y-106719619D01*
X151772952Y-105624380D02*
X151772952Y-106433904D01*
X151725333Y-106529142D01*
X151677714Y-106576761D01*
X151582476Y-106624380D01*
X151392000Y-106624380D01*
X151296761Y-106576761D01*
X151249142Y-106529142D01*
X151201523Y-106433904D01*
X151201523Y-105624380D01*
X150772952Y-106576761D02*
X150630095Y-106624380D01*
X150392000Y-106624380D01*
X150296761Y-106576761D01*
X150249142Y-106529142D01*
X150201523Y-106433904D01*
X150201523Y-106338666D01*
X150249142Y-106243428D01*
X150296761Y-106195809D01*
X150392000Y-106148190D01*
X150582476Y-106100571D01*
X150677714Y-106052952D01*
X150725333Y-106005333D01*
X150772952Y-105910095D01*
X150772952Y-105814857D01*
X150725333Y-105719619D01*
X150677714Y-105672000D01*
X150582476Y-105624380D01*
X150344380Y-105624380D01*
X150201523Y-105672000D01*
D13*
X155277333Y-106398190D02*
X155444000Y-106160095D01*
X155563047Y-106398190D02*
X155563047Y-105898190D01*
X155372571Y-105898190D01*
X155324952Y-105922000D01*
X155301142Y-105945809D01*
X155277333Y-105993428D01*
X155277333Y-106064857D01*
X155301142Y-106112476D01*
X155324952Y-106136285D01*
X155372571Y-106160095D01*
X155563047Y-106160095D01*
X154801142Y-106398190D02*
X155086857Y-106398190D01*
X154944000Y-106398190D02*
X154944000Y-105898190D01*
X154991619Y-105969619D01*
X155039238Y-106017238D01*
X155086857Y-106041047D01*
G04 #@! TO.C,R2*
D11*
X152963428Y-108910380D02*
X153296761Y-108434190D01*
X153534857Y-108910380D02*
X153534857Y-107910380D01*
X153153904Y-107910380D01*
X153058666Y-107958000D01*
X153011047Y-108005619D01*
X152963428Y-108100857D01*
X152963428Y-108243714D01*
X153011047Y-108338952D01*
X153058666Y-108386571D01*
X153153904Y-108434190D01*
X153534857Y-108434190D01*
X152772952Y-109005619D02*
X152011047Y-109005619D01*
X151772952Y-107910380D02*
X151772952Y-108719904D01*
X151725333Y-108815142D01*
X151677714Y-108862761D01*
X151582476Y-108910380D01*
X151392000Y-108910380D01*
X151296761Y-108862761D01*
X151249142Y-108815142D01*
X151201523Y-108719904D01*
X151201523Y-107910380D01*
X150772952Y-108862761D02*
X150630095Y-108910380D01*
X150392000Y-108910380D01*
X150296761Y-108862761D01*
X150249142Y-108815142D01*
X150201523Y-108719904D01*
X150201523Y-108624666D01*
X150249142Y-108529428D01*
X150296761Y-108481809D01*
X150392000Y-108434190D01*
X150582476Y-108386571D01*
X150677714Y-108338952D01*
X150725333Y-108291333D01*
X150772952Y-108196095D01*
X150772952Y-108100857D01*
X150725333Y-108005619D01*
X150677714Y-107958000D01*
X150582476Y-107910380D01*
X150344380Y-107910380D01*
X150201523Y-107958000D01*
D13*
X155277333Y-108684190D02*
X155444000Y-108446095D01*
X155563047Y-108684190D02*
X155563047Y-108184190D01*
X155372571Y-108184190D01*
X155324952Y-108208000D01*
X155301142Y-108231809D01*
X155277333Y-108279428D01*
X155277333Y-108350857D01*
X155301142Y-108398476D01*
X155324952Y-108422285D01*
X155372571Y-108446095D01*
X155563047Y-108446095D01*
X155086857Y-108231809D02*
X155063047Y-108208000D01*
X155015428Y-108184190D01*
X154896380Y-108184190D01*
X154848761Y-108208000D01*
X154824952Y-108231809D01*
X154801142Y-108279428D01*
X154801142Y-108327047D01*
X154824952Y-108398476D01*
X155110666Y-108684190D01*
X154801142Y-108684190D01*
G04 #@! TO.C,D3*
D11*
X165996857Y-110180380D02*
X166473047Y-110180380D01*
X166473047Y-109180380D01*
X165663523Y-109656571D02*
X165330190Y-109656571D01*
X165187333Y-110180380D02*
X165663523Y-110180380D01*
X165663523Y-109180380D01*
X165187333Y-109180380D01*
X164758761Y-110180380D02*
X164758761Y-109180380D01*
X164520666Y-109180380D01*
X164377809Y-109228000D01*
X164282571Y-109323238D01*
X164234952Y-109418476D01*
X164187333Y-109608952D01*
X164187333Y-109751809D01*
X164234952Y-109942285D01*
X164282571Y-110037523D01*
X164377809Y-110132761D01*
X164520666Y-110180380D01*
X164758761Y-110180380D01*
D12*
X162388476Y-110089904D02*
X162388476Y-109289904D01*
X162198000Y-109289904D01*
X162083714Y-109328000D01*
X162007523Y-109404190D01*
X161969428Y-109480380D01*
X161931333Y-109632761D01*
X161931333Y-109747047D01*
X161969428Y-109899428D01*
X162007523Y-109975619D01*
X162083714Y-110051809D01*
X162198000Y-110089904D01*
X162388476Y-110089904D01*
X161664666Y-109289904D02*
X161169428Y-109289904D01*
X161436095Y-109594666D01*
X161321809Y-109594666D01*
X161245619Y-109632761D01*
X161207523Y-109670857D01*
X161169428Y-109747047D01*
X161169428Y-109937523D01*
X161207523Y-110013714D01*
X161245619Y-110051809D01*
X161321809Y-110089904D01*
X161550380Y-110089904D01*
X161626571Y-110051809D01*
X161664666Y-110013714D01*
G04 #@! TO.C,D4*
D11*
X165996857Y-113228380D02*
X166473047Y-113228380D01*
X166473047Y-112228380D01*
X165663523Y-112704571D02*
X165330190Y-112704571D01*
X165187333Y-113228380D02*
X165663523Y-113228380D01*
X165663523Y-112228380D01*
X165187333Y-112228380D01*
X164758761Y-113228380D02*
X164758761Y-112228380D01*
X164520666Y-112228380D01*
X164377809Y-112276000D01*
X164282571Y-112371238D01*
X164234952Y-112466476D01*
X164187333Y-112656952D01*
X164187333Y-112799809D01*
X164234952Y-112990285D01*
X164282571Y-113085523D01*
X164377809Y-113180761D01*
X164520666Y-113228380D01*
X164758761Y-113228380D01*
D12*
X162388476Y-113137904D02*
X162388476Y-112337904D01*
X162198000Y-112337904D01*
X162083714Y-112376000D01*
X162007523Y-112452190D01*
X161969428Y-112528380D01*
X161931333Y-112680761D01*
X161931333Y-112795047D01*
X161969428Y-112947428D01*
X162007523Y-113023619D01*
X162083714Y-113099809D01*
X162198000Y-113137904D01*
X162388476Y-113137904D01*
X161245619Y-112604571D02*
X161245619Y-113137904D01*
X161436095Y-112299809D02*
X161626571Y-112871238D01*
X161131333Y-112871238D01*
G04 #@! TO.C,R3*
D11*
X152963428Y-111196380D02*
X153296761Y-110720190D01*
X153534857Y-111196380D02*
X153534857Y-110196380D01*
X153153904Y-110196380D01*
X153058666Y-110244000D01*
X153011047Y-110291619D01*
X152963428Y-110386857D01*
X152963428Y-110529714D01*
X153011047Y-110624952D01*
X153058666Y-110672571D01*
X153153904Y-110720190D01*
X153534857Y-110720190D01*
X152772952Y-111291619D02*
X152011047Y-111291619D01*
X151772952Y-110196380D02*
X151772952Y-111005904D01*
X151725333Y-111101142D01*
X151677714Y-111148761D01*
X151582476Y-111196380D01*
X151392000Y-111196380D01*
X151296761Y-111148761D01*
X151249142Y-111101142D01*
X151201523Y-111005904D01*
X151201523Y-110196380D01*
X150772952Y-111148761D02*
X150630095Y-111196380D01*
X150392000Y-111196380D01*
X150296761Y-111148761D01*
X150249142Y-111101142D01*
X150201523Y-111005904D01*
X150201523Y-110910666D01*
X150249142Y-110815428D01*
X150296761Y-110767809D01*
X150392000Y-110720190D01*
X150582476Y-110672571D01*
X150677714Y-110624952D01*
X150725333Y-110577333D01*
X150772952Y-110482095D01*
X150772952Y-110386857D01*
X150725333Y-110291619D01*
X150677714Y-110244000D01*
X150582476Y-110196380D01*
X150344380Y-110196380D01*
X150201523Y-110244000D01*
D13*
X155277333Y-110970190D02*
X155444000Y-110732095D01*
X155563047Y-110970190D02*
X155563047Y-110470190D01*
X155372571Y-110470190D01*
X155324952Y-110494000D01*
X155301142Y-110517809D01*
X155277333Y-110565428D01*
X155277333Y-110636857D01*
X155301142Y-110684476D01*
X155324952Y-110708285D01*
X155372571Y-110732095D01*
X155563047Y-110732095D01*
X155110666Y-110470190D02*
X154801142Y-110470190D01*
X154967809Y-110660666D01*
X154896380Y-110660666D01*
X154848761Y-110684476D01*
X154824952Y-110708285D01*
X154801142Y-110755904D01*
X154801142Y-110874952D01*
X154824952Y-110922571D01*
X154848761Y-110946380D01*
X154896380Y-110970190D01*
X155039238Y-110970190D01*
X155086857Y-110946380D01*
X155110666Y-110922571D01*
G04 #@! TO.C,R4*
D11*
X152963428Y-113482380D02*
X153296761Y-113006190D01*
X153534857Y-113482380D02*
X153534857Y-112482380D01*
X153153904Y-112482380D01*
X153058666Y-112530000D01*
X153011047Y-112577619D01*
X152963428Y-112672857D01*
X152963428Y-112815714D01*
X153011047Y-112910952D01*
X153058666Y-112958571D01*
X153153904Y-113006190D01*
X153534857Y-113006190D01*
X152772952Y-113577619D02*
X152011047Y-113577619D01*
X151772952Y-112482380D02*
X151772952Y-113291904D01*
X151725333Y-113387142D01*
X151677714Y-113434761D01*
X151582476Y-113482380D01*
X151392000Y-113482380D01*
X151296761Y-113434761D01*
X151249142Y-113387142D01*
X151201523Y-113291904D01*
X151201523Y-112482380D01*
X150772952Y-113434761D02*
X150630095Y-113482380D01*
X150392000Y-113482380D01*
X150296761Y-113434761D01*
X150249142Y-113387142D01*
X150201523Y-113291904D01*
X150201523Y-113196666D01*
X150249142Y-113101428D01*
X150296761Y-113053809D01*
X150392000Y-113006190D01*
X150582476Y-112958571D01*
X150677714Y-112910952D01*
X150725333Y-112863333D01*
X150772952Y-112768095D01*
X150772952Y-112672857D01*
X150725333Y-112577619D01*
X150677714Y-112530000D01*
X150582476Y-112482380D01*
X150344380Y-112482380D01*
X150201523Y-112530000D01*
D13*
X155277333Y-113256190D02*
X155444000Y-113018095D01*
X155563047Y-113256190D02*
X155563047Y-112756190D01*
X155372571Y-112756190D01*
X155324952Y-112780000D01*
X155301142Y-112803809D01*
X155277333Y-112851428D01*
X155277333Y-112922857D01*
X155301142Y-112970476D01*
X155324952Y-112994285D01*
X155372571Y-113018095D01*
X155563047Y-113018095D01*
X154848761Y-112922857D02*
X154848761Y-113256190D01*
X154967809Y-112732380D02*
X155086857Y-113089523D01*
X154777333Y-113089523D01*
G04 #@! TD*
M02*
