G04 #@! TF.GenerationSoftware,KiCad,Pcbnew,5.0.2-bee76a0~70~ubuntu16.04.1*
G04 #@! TF.CreationDate,2019-07-09T20:02:22-07:00*
G04 #@! TF.ProjectId,reverse-mount-led-test,72657665-7273-4652-9d6d-6f756e742d6c,rev?*
G04 #@! TF.SameCoordinates,Original*
G04 #@! TF.FileFunction,Copper,L2,Bot*
G04 #@! TF.FilePolarity,Positive*
%FSLAX46Y46*%
G04 Gerber Fmt 4.6, Leading zero omitted, Abs format (unit mm)*
G04 Created by KiCad (PCBNEW 5.0.2-bee76a0~70~ubuntu16.04.1) date Tue 09 Jul 2019 08:02:22 PM PDT*
%MOMM*%
%LPD*%
G01*
G04 APERTURE LIST*
G04 #@! TA.AperFunction,Conductor*
%ADD10C,0.100000*%
G04 #@! TD*
G04 #@! TA.AperFunction,SMDPad,CuDef*
%ADD11C,1.425000*%
G04 #@! TD*
G04 #@! TA.AperFunction,ComponentPad*
%ADD12R,1.700000X1.700000*%
G04 #@! TD*
G04 #@! TA.AperFunction,ComponentPad*
%ADD13O,1.700000X1.700000*%
G04 #@! TD*
G04 #@! TA.AperFunction,SMDPad,CuDef*
%ADD14C,1.150000*%
G04 #@! TD*
G04 #@! TA.AperFunction,Conductor*
%ADD15C,0.254000*%
G04 #@! TD*
G04 APERTURE END LIST*
D10*
G04 #@! TO.N,VCC*
G04 #@! TO.C,D1*
G36*
X164040935Y-102758372D02*
X164068601Y-102762476D01*
X164095731Y-102769272D01*
X164122065Y-102778694D01*
X164147348Y-102790652D01*
X164171338Y-102805031D01*
X164193802Y-102821692D01*
X164214525Y-102840475D01*
X164233308Y-102861198D01*
X164249969Y-102883662D01*
X164264348Y-102907652D01*
X164276306Y-102932935D01*
X164285728Y-102959269D01*
X164292524Y-102986399D01*
X164296628Y-103014065D01*
X164298000Y-103042000D01*
X164298000Y-104222000D01*
X164296628Y-104249935D01*
X164292524Y-104277601D01*
X164285728Y-104304731D01*
X164276306Y-104331065D01*
X164264348Y-104356348D01*
X164249969Y-104380338D01*
X164233308Y-104402802D01*
X164214525Y-104423525D01*
X164193802Y-104442308D01*
X164171338Y-104458969D01*
X164147348Y-104473348D01*
X164122065Y-104485306D01*
X164095731Y-104494728D01*
X164068601Y-104501524D01*
X164040935Y-104505628D01*
X164013000Y-104507000D01*
X163158000Y-104507000D01*
X163130065Y-104505628D01*
X163102399Y-104501524D01*
X163075269Y-104494728D01*
X163048935Y-104485306D01*
X163023652Y-104473348D01*
X162999662Y-104458969D01*
X162977198Y-104442308D01*
X162956475Y-104423525D01*
X162937692Y-104402802D01*
X162921031Y-104380338D01*
X162906652Y-104356348D01*
X162894694Y-104331065D01*
X162885272Y-104304731D01*
X162878476Y-104277601D01*
X162874372Y-104249935D01*
X162873000Y-104222000D01*
X162873000Y-103042000D01*
X162874372Y-103014065D01*
X162878476Y-102986399D01*
X162885272Y-102959269D01*
X162894694Y-102932935D01*
X162906652Y-102907652D01*
X162921031Y-102883662D01*
X162937692Y-102861198D01*
X162956475Y-102840475D01*
X162977198Y-102821692D01*
X162999662Y-102805031D01*
X163023652Y-102790652D01*
X163048935Y-102778694D01*
X163075269Y-102769272D01*
X163102399Y-102762476D01*
X163130065Y-102758372D01*
X163158000Y-102757000D01*
X164013000Y-102757000D01*
X164040935Y-102758372D01*
X164040935Y-102758372D01*
G37*
D11*
G04 #@! TD*
G04 #@! TO.P,D1,2*
G04 #@! TO.N,VCC*
X163585500Y-103632000D03*
D10*
G04 #@! TO.N,Net-(D1-Pad1)*
G04 #@! TO.C,D1*
G36*
X160465935Y-102758372D02*
X160493601Y-102762476D01*
X160520731Y-102769272D01*
X160547065Y-102778694D01*
X160572348Y-102790652D01*
X160596338Y-102805031D01*
X160618802Y-102821692D01*
X160639525Y-102840475D01*
X160658308Y-102861198D01*
X160674969Y-102883662D01*
X160689348Y-102907652D01*
X160701306Y-102932935D01*
X160710728Y-102959269D01*
X160717524Y-102986399D01*
X160721628Y-103014065D01*
X160723000Y-103042000D01*
X160723000Y-104222000D01*
X160721628Y-104249935D01*
X160717524Y-104277601D01*
X160710728Y-104304731D01*
X160701306Y-104331065D01*
X160689348Y-104356348D01*
X160674969Y-104380338D01*
X160658308Y-104402802D01*
X160639525Y-104423525D01*
X160618802Y-104442308D01*
X160596338Y-104458969D01*
X160572348Y-104473348D01*
X160547065Y-104485306D01*
X160520731Y-104494728D01*
X160493601Y-104501524D01*
X160465935Y-104505628D01*
X160438000Y-104507000D01*
X159583000Y-104507000D01*
X159555065Y-104505628D01*
X159527399Y-104501524D01*
X159500269Y-104494728D01*
X159473935Y-104485306D01*
X159448652Y-104473348D01*
X159424662Y-104458969D01*
X159402198Y-104442308D01*
X159381475Y-104423525D01*
X159362692Y-104402802D01*
X159346031Y-104380338D01*
X159331652Y-104356348D01*
X159319694Y-104331065D01*
X159310272Y-104304731D01*
X159303476Y-104277601D01*
X159299372Y-104249935D01*
X159298000Y-104222000D01*
X159298000Y-103042000D01*
X159299372Y-103014065D01*
X159303476Y-102986399D01*
X159310272Y-102959269D01*
X159319694Y-102932935D01*
X159331652Y-102907652D01*
X159346031Y-102883662D01*
X159362692Y-102861198D01*
X159381475Y-102840475D01*
X159402198Y-102821692D01*
X159424662Y-102805031D01*
X159448652Y-102790652D01*
X159473935Y-102778694D01*
X159500269Y-102769272D01*
X159527399Y-102762476D01*
X159555065Y-102758372D01*
X159583000Y-102757000D01*
X160438000Y-102757000D01*
X160465935Y-102758372D01*
X160465935Y-102758372D01*
G37*
D11*
G04 #@! TD*
G04 #@! TO.P,D1,1*
G04 #@! TO.N,Net-(D1-Pad1)*
X160010500Y-103632000D03*
D10*
G04 #@! TO.N,Net-(D2-Pad1)*
G04 #@! TO.C,D2*
G36*
X160465935Y-105806372D02*
X160493601Y-105810476D01*
X160520731Y-105817272D01*
X160547065Y-105826694D01*
X160572348Y-105838652D01*
X160596338Y-105853031D01*
X160618802Y-105869692D01*
X160639525Y-105888475D01*
X160658308Y-105909198D01*
X160674969Y-105931662D01*
X160689348Y-105955652D01*
X160701306Y-105980935D01*
X160710728Y-106007269D01*
X160717524Y-106034399D01*
X160721628Y-106062065D01*
X160723000Y-106090000D01*
X160723000Y-107270000D01*
X160721628Y-107297935D01*
X160717524Y-107325601D01*
X160710728Y-107352731D01*
X160701306Y-107379065D01*
X160689348Y-107404348D01*
X160674969Y-107428338D01*
X160658308Y-107450802D01*
X160639525Y-107471525D01*
X160618802Y-107490308D01*
X160596338Y-107506969D01*
X160572348Y-107521348D01*
X160547065Y-107533306D01*
X160520731Y-107542728D01*
X160493601Y-107549524D01*
X160465935Y-107553628D01*
X160438000Y-107555000D01*
X159583000Y-107555000D01*
X159555065Y-107553628D01*
X159527399Y-107549524D01*
X159500269Y-107542728D01*
X159473935Y-107533306D01*
X159448652Y-107521348D01*
X159424662Y-107506969D01*
X159402198Y-107490308D01*
X159381475Y-107471525D01*
X159362692Y-107450802D01*
X159346031Y-107428338D01*
X159331652Y-107404348D01*
X159319694Y-107379065D01*
X159310272Y-107352731D01*
X159303476Y-107325601D01*
X159299372Y-107297935D01*
X159298000Y-107270000D01*
X159298000Y-106090000D01*
X159299372Y-106062065D01*
X159303476Y-106034399D01*
X159310272Y-106007269D01*
X159319694Y-105980935D01*
X159331652Y-105955652D01*
X159346031Y-105931662D01*
X159362692Y-105909198D01*
X159381475Y-105888475D01*
X159402198Y-105869692D01*
X159424662Y-105853031D01*
X159448652Y-105838652D01*
X159473935Y-105826694D01*
X159500269Y-105817272D01*
X159527399Y-105810476D01*
X159555065Y-105806372D01*
X159583000Y-105805000D01*
X160438000Y-105805000D01*
X160465935Y-105806372D01*
X160465935Y-105806372D01*
G37*
D11*
G04 #@! TD*
G04 #@! TO.P,D2,1*
G04 #@! TO.N,Net-(D2-Pad1)*
X160010500Y-106680000D03*
D10*
G04 #@! TO.N,VCC*
G04 #@! TO.C,D2*
G36*
X164040935Y-105806372D02*
X164068601Y-105810476D01*
X164095731Y-105817272D01*
X164122065Y-105826694D01*
X164147348Y-105838652D01*
X164171338Y-105853031D01*
X164193802Y-105869692D01*
X164214525Y-105888475D01*
X164233308Y-105909198D01*
X164249969Y-105931662D01*
X164264348Y-105955652D01*
X164276306Y-105980935D01*
X164285728Y-106007269D01*
X164292524Y-106034399D01*
X164296628Y-106062065D01*
X164298000Y-106090000D01*
X164298000Y-107270000D01*
X164296628Y-107297935D01*
X164292524Y-107325601D01*
X164285728Y-107352731D01*
X164276306Y-107379065D01*
X164264348Y-107404348D01*
X164249969Y-107428338D01*
X164233308Y-107450802D01*
X164214525Y-107471525D01*
X164193802Y-107490308D01*
X164171338Y-107506969D01*
X164147348Y-107521348D01*
X164122065Y-107533306D01*
X164095731Y-107542728D01*
X164068601Y-107549524D01*
X164040935Y-107553628D01*
X164013000Y-107555000D01*
X163158000Y-107555000D01*
X163130065Y-107553628D01*
X163102399Y-107549524D01*
X163075269Y-107542728D01*
X163048935Y-107533306D01*
X163023652Y-107521348D01*
X162999662Y-107506969D01*
X162977198Y-107490308D01*
X162956475Y-107471525D01*
X162937692Y-107450802D01*
X162921031Y-107428338D01*
X162906652Y-107404348D01*
X162894694Y-107379065D01*
X162885272Y-107352731D01*
X162878476Y-107325601D01*
X162874372Y-107297935D01*
X162873000Y-107270000D01*
X162873000Y-106090000D01*
X162874372Y-106062065D01*
X162878476Y-106034399D01*
X162885272Y-106007269D01*
X162894694Y-105980935D01*
X162906652Y-105955652D01*
X162921031Y-105931662D01*
X162937692Y-105909198D01*
X162956475Y-105888475D01*
X162977198Y-105869692D01*
X162999662Y-105853031D01*
X163023652Y-105838652D01*
X163048935Y-105826694D01*
X163075269Y-105817272D01*
X163102399Y-105810476D01*
X163130065Y-105806372D01*
X163158000Y-105805000D01*
X164013000Y-105805000D01*
X164040935Y-105806372D01*
X164040935Y-105806372D01*
G37*
D11*
G04 #@! TD*
G04 #@! TO.P,D2,2*
G04 #@! TO.N,VCC*
X163585500Y-106680000D03*
D12*
G04 #@! TO.P,J1,1*
G04 #@! TO.N,GND*
X154178000Y-103378000D03*
D13*
G04 #@! TO.P,J1,2*
G04 #@! TO.N,VCC*
X156718000Y-103378000D03*
G04 #@! TD*
D10*
G04 #@! TO.N,GND*
G04 #@! TO.C,R1*
G36*
X154518505Y-105473204D02*
X154542773Y-105476804D01*
X154566572Y-105482765D01*
X154589671Y-105491030D01*
X154611850Y-105501520D01*
X154632893Y-105514132D01*
X154652599Y-105528747D01*
X154670777Y-105545223D01*
X154687253Y-105563401D01*
X154701868Y-105583107D01*
X154714480Y-105604150D01*
X154724970Y-105626329D01*
X154733235Y-105649428D01*
X154739196Y-105673227D01*
X154742796Y-105697495D01*
X154744000Y-105721999D01*
X154744000Y-106622001D01*
X154742796Y-106646505D01*
X154739196Y-106670773D01*
X154733235Y-106694572D01*
X154724970Y-106717671D01*
X154714480Y-106739850D01*
X154701868Y-106760893D01*
X154687253Y-106780599D01*
X154670777Y-106798777D01*
X154652599Y-106815253D01*
X154632893Y-106829868D01*
X154611850Y-106842480D01*
X154589671Y-106852970D01*
X154566572Y-106861235D01*
X154542773Y-106867196D01*
X154518505Y-106870796D01*
X154494001Y-106872000D01*
X153843999Y-106872000D01*
X153819495Y-106870796D01*
X153795227Y-106867196D01*
X153771428Y-106861235D01*
X153748329Y-106852970D01*
X153726150Y-106842480D01*
X153705107Y-106829868D01*
X153685401Y-106815253D01*
X153667223Y-106798777D01*
X153650747Y-106780599D01*
X153636132Y-106760893D01*
X153623520Y-106739850D01*
X153613030Y-106717671D01*
X153604765Y-106694572D01*
X153598804Y-106670773D01*
X153595204Y-106646505D01*
X153594000Y-106622001D01*
X153594000Y-105721999D01*
X153595204Y-105697495D01*
X153598804Y-105673227D01*
X153604765Y-105649428D01*
X153613030Y-105626329D01*
X153623520Y-105604150D01*
X153636132Y-105583107D01*
X153650747Y-105563401D01*
X153667223Y-105545223D01*
X153685401Y-105528747D01*
X153705107Y-105514132D01*
X153726150Y-105501520D01*
X153748329Y-105491030D01*
X153771428Y-105482765D01*
X153795227Y-105476804D01*
X153819495Y-105473204D01*
X153843999Y-105472000D01*
X154494001Y-105472000D01*
X154518505Y-105473204D01*
X154518505Y-105473204D01*
G37*
D14*
G04 #@! TD*
G04 #@! TO.P,R1,1*
G04 #@! TO.N,GND*
X154169000Y-106172000D03*
D10*
G04 #@! TO.N,Net-(D1-Pad1)*
G04 #@! TO.C,R1*
G36*
X156568505Y-105473204D02*
X156592773Y-105476804D01*
X156616572Y-105482765D01*
X156639671Y-105491030D01*
X156661850Y-105501520D01*
X156682893Y-105514132D01*
X156702599Y-105528747D01*
X156720777Y-105545223D01*
X156737253Y-105563401D01*
X156751868Y-105583107D01*
X156764480Y-105604150D01*
X156774970Y-105626329D01*
X156783235Y-105649428D01*
X156789196Y-105673227D01*
X156792796Y-105697495D01*
X156794000Y-105721999D01*
X156794000Y-106622001D01*
X156792796Y-106646505D01*
X156789196Y-106670773D01*
X156783235Y-106694572D01*
X156774970Y-106717671D01*
X156764480Y-106739850D01*
X156751868Y-106760893D01*
X156737253Y-106780599D01*
X156720777Y-106798777D01*
X156702599Y-106815253D01*
X156682893Y-106829868D01*
X156661850Y-106842480D01*
X156639671Y-106852970D01*
X156616572Y-106861235D01*
X156592773Y-106867196D01*
X156568505Y-106870796D01*
X156544001Y-106872000D01*
X155893999Y-106872000D01*
X155869495Y-106870796D01*
X155845227Y-106867196D01*
X155821428Y-106861235D01*
X155798329Y-106852970D01*
X155776150Y-106842480D01*
X155755107Y-106829868D01*
X155735401Y-106815253D01*
X155717223Y-106798777D01*
X155700747Y-106780599D01*
X155686132Y-106760893D01*
X155673520Y-106739850D01*
X155663030Y-106717671D01*
X155654765Y-106694572D01*
X155648804Y-106670773D01*
X155645204Y-106646505D01*
X155644000Y-106622001D01*
X155644000Y-105721999D01*
X155645204Y-105697495D01*
X155648804Y-105673227D01*
X155654765Y-105649428D01*
X155663030Y-105626329D01*
X155673520Y-105604150D01*
X155686132Y-105583107D01*
X155700747Y-105563401D01*
X155717223Y-105545223D01*
X155735401Y-105528747D01*
X155755107Y-105514132D01*
X155776150Y-105501520D01*
X155798329Y-105491030D01*
X155821428Y-105482765D01*
X155845227Y-105476804D01*
X155869495Y-105473204D01*
X155893999Y-105472000D01*
X156544001Y-105472000D01*
X156568505Y-105473204D01*
X156568505Y-105473204D01*
G37*
D14*
G04 #@! TD*
G04 #@! TO.P,R1,2*
G04 #@! TO.N,Net-(D1-Pad1)*
X156219000Y-106172000D03*
D10*
G04 #@! TO.N,Net-(D2-Pad1)*
G04 #@! TO.C,R2*
G36*
X156568505Y-107759204D02*
X156592773Y-107762804D01*
X156616572Y-107768765D01*
X156639671Y-107777030D01*
X156661850Y-107787520D01*
X156682893Y-107800132D01*
X156702599Y-107814747D01*
X156720777Y-107831223D01*
X156737253Y-107849401D01*
X156751868Y-107869107D01*
X156764480Y-107890150D01*
X156774970Y-107912329D01*
X156783235Y-107935428D01*
X156789196Y-107959227D01*
X156792796Y-107983495D01*
X156794000Y-108007999D01*
X156794000Y-108908001D01*
X156792796Y-108932505D01*
X156789196Y-108956773D01*
X156783235Y-108980572D01*
X156774970Y-109003671D01*
X156764480Y-109025850D01*
X156751868Y-109046893D01*
X156737253Y-109066599D01*
X156720777Y-109084777D01*
X156702599Y-109101253D01*
X156682893Y-109115868D01*
X156661850Y-109128480D01*
X156639671Y-109138970D01*
X156616572Y-109147235D01*
X156592773Y-109153196D01*
X156568505Y-109156796D01*
X156544001Y-109158000D01*
X155893999Y-109158000D01*
X155869495Y-109156796D01*
X155845227Y-109153196D01*
X155821428Y-109147235D01*
X155798329Y-109138970D01*
X155776150Y-109128480D01*
X155755107Y-109115868D01*
X155735401Y-109101253D01*
X155717223Y-109084777D01*
X155700747Y-109066599D01*
X155686132Y-109046893D01*
X155673520Y-109025850D01*
X155663030Y-109003671D01*
X155654765Y-108980572D01*
X155648804Y-108956773D01*
X155645204Y-108932505D01*
X155644000Y-108908001D01*
X155644000Y-108007999D01*
X155645204Y-107983495D01*
X155648804Y-107959227D01*
X155654765Y-107935428D01*
X155663030Y-107912329D01*
X155673520Y-107890150D01*
X155686132Y-107869107D01*
X155700747Y-107849401D01*
X155717223Y-107831223D01*
X155735401Y-107814747D01*
X155755107Y-107800132D01*
X155776150Y-107787520D01*
X155798329Y-107777030D01*
X155821428Y-107768765D01*
X155845227Y-107762804D01*
X155869495Y-107759204D01*
X155893999Y-107758000D01*
X156544001Y-107758000D01*
X156568505Y-107759204D01*
X156568505Y-107759204D01*
G37*
D14*
G04 #@! TD*
G04 #@! TO.P,R2,2*
G04 #@! TO.N,Net-(D2-Pad1)*
X156219000Y-108458000D03*
D10*
G04 #@! TO.N,GND*
G04 #@! TO.C,R2*
G36*
X154518505Y-107759204D02*
X154542773Y-107762804D01*
X154566572Y-107768765D01*
X154589671Y-107777030D01*
X154611850Y-107787520D01*
X154632893Y-107800132D01*
X154652599Y-107814747D01*
X154670777Y-107831223D01*
X154687253Y-107849401D01*
X154701868Y-107869107D01*
X154714480Y-107890150D01*
X154724970Y-107912329D01*
X154733235Y-107935428D01*
X154739196Y-107959227D01*
X154742796Y-107983495D01*
X154744000Y-108007999D01*
X154744000Y-108908001D01*
X154742796Y-108932505D01*
X154739196Y-108956773D01*
X154733235Y-108980572D01*
X154724970Y-109003671D01*
X154714480Y-109025850D01*
X154701868Y-109046893D01*
X154687253Y-109066599D01*
X154670777Y-109084777D01*
X154652599Y-109101253D01*
X154632893Y-109115868D01*
X154611850Y-109128480D01*
X154589671Y-109138970D01*
X154566572Y-109147235D01*
X154542773Y-109153196D01*
X154518505Y-109156796D01*
X154494001Y-109158000D01*
X153843999Y-109158000D01*
X153819495Y-109156796D01*
X153795227Y-109153196D01*
X153771428Y-109147235D01*
X153748329Y-109138970D01*
X153726150Y-109128480D01*
X153705107Y-109115868D01*
X153685401Y-109101253D01*
X153667223Y-109084777D01*
X153650747Y-109066599D01*
X153636132Y-109046893D01*
X153623520Y-109025850D01*
X153613030Y-109003671D01*
X153604765Y-108980572D01*
X153598804Y-108956773D01*
X153595204Y-108932505D01*
X153594000Y-108908001D01*
X153594000Y-108007999D01*
X153595204Y-107983495D01*
X153598804Y-107959227D01*
X153604765Y-107935428D01*
X153613030Y-107912329D01*
X153623520Y-107890150D01*
X153636132Y-107869107D01*
X153650747Y-107849401D01*
X153667223Y-107831223D01*
X153685401Y-107814747D01*
X153705107Y-107800132D01*
X153726150Y-107787520D01*
X153748329Y-107777030D01*
X153771428Y-107768765D01*
X153795227Y-107762804D01*
X153819495Y-107759204D01*
X153843999Y-107758000D01*
X154494001Y-107758000D01*
X154518505Y-107759204D01*
X154518505Y-107759204D01*
G37*
D14*
G04 #@! TD*
G04 #@! TO.P,R2,1*
G04 #@! TO.N,GND*
X154169000Y-108458000D03*
D10*
G04 #@! TO.N,VCC*
G04 #@! TO.C,D3*
G36*
X164040935Y-108854372D02*
X164068601Y-108858476D01*
X164095731Y-108865272D01*
X164122065Y-108874694D01*
X164147348Y-108886652D01*
X164171338Y-108901031D01*
X164193802Y-108917692D01*
X164214525Y-108936475D01*
X164233308Y-108957198D01*
X164249969Y-108979662D01*
X164264348Y-109003652D01*
X164276306Y-109028935D01*
X164285728Y-109055269D01*
X164292524Y-109082399D01*
X164296628Y-109110065D01*
X164298000Y-109138000D01*
X164298000Y-110318000D01*
X164296628Y-110345935D01*
X164292524Y-110373601D01*
X164285728Y-110400731D01*
X164276306Y-110427065D01*
X164264348Y-110452348D01*
X164249969Y-110476338D01*
X164233308Y-110498802D01*
X164214525Y-110519525D01*
X164193802Y-110538308D01*
X164171338Y-110554969D01*
X164147348Y-110569348D01*
X164122065Y-110581306D01*
X164095731Y-110590728D01*
X164068601Y-110597524D01*
X164040935Y-110601628D01*
X164013000Y-110603000D01*
X163158000Y-110603000D01*
X163130065Y-110601628D01*
X163102399Y-110597524D01*
X163075269Y-110590728D01*
X163048935Y-110581306D01*
X163023652Y-110569348D01*
X162999662Y-110554969D01*
X162977198Y-110538308D01*
X162956475Y-110519525D01*
X162937692Y-110498802D01*
X162921031Y-110476338D01*
X162906652Y-110452348D01*
X162894694Y-110427065D01*
X162885272Y-110400731D01*
X162878476Y-110373601D01*
X162874372Y-110345935D01*
X162873000Y-110318000D01*
X162873000Y-109138000D01*
X162874372Y-109110065D01*
X162878476Y-109082399D01*
X162885272Y-109055269D01*
X162894694Y-109028935D01*
X162906652Y-109003652D01*
X162921031Y-108979662D01*
X162937692Y-108957198D01*
X162956475Y-108936475D01*
X162977198Y-108917692D01*
X162999662Y-108901031D01*
X163023652Y-108886652D01*
X163048935Y-108874694D01*
X163075269Y-108865272D01*
X163102399Y-108858476D01*
X163130065Y-108854372D01*
X163158000Y-108853000D01*
X164013000Y-108853000D01*
X164040935Y-108854372D01*
X164040935Y-108854372D01*
G37*
D11*
G04 #@! TD*
G04 #@! TO.P,D3,2*
G04 #@! TO.N,VCC*
X163585500Y-109728000D03*
D10*
G04 #@! TO.N,Net-(D3-Pad1)*
G04 #@! TO.C,D3*
G36*
X160465935Y-108854372D02*
X160493601Y-108858476D01*
X160520731Y-108865272D01*
X160547065Y-108874694D01*
X160572348Y-108886652D01*
X160596338Y-108901031D01*
X160618802Y-108917692D01*
X160639525Y-108936475D01*
X160658308Y-108957198D01*
X160674969Y-108979662D01*
X160689348Y-109003652D01*
X160701306Y-109028935D01*
X160710728Y-109055269D01*
X160717524Y-109082399D01*
X160721628Y-109110065D01*
X160723000Y-109138000D01*
X160723000Y-110318000D01*
X160721628Y-110345935D01*
X160717524Y-110373601D01*
X160710728Y-110400731D01*
X160701306Y-110427065D01*
X160689348Y-110452348D01*
X160674969Y-110476338D01*
X160658308Y-110498802D01*
X160639525Y-110519525D01*
X160618802Y-110538308D01*
X160596338Y-110554969D01*
X160572348Y-110569348D01*
X160547065Y-110581306D01*
X160520731Y-110590728D01*
X160493601Y-110597524D01*
X160465935Y-110601628D01*
X160438000Y-110603000D01*
X159583000Y-110603000D01*
X159555065Y-110601628D01*
X159527399Y-110597524D01*
X159500269Y-110590728D01*
X159473935Y-110581306D01*
X159448652Y-110569348D01*
X159424662Y-110554969D01*
X159402198Y-110538308D01*
X159381475Y-110519525D01*
X159362692Y-110498802D01*
X159346031Y-110476338D01*
X159331652Y-110452348D01*
X159319694Y-110427065D01*
X159310272Y-110400731D01*
X159303476Y-110373601D01*
X159299372Y-110345935D01*
X159298000Y-110318000D01*
X159298000Y-109138000D01*
X159299372Y-109110065D01*
X159303476Y-109082399D01*
X159310272Y-109055269D01*
X159319694Y-109028935D01*
X159331652Y-109003652D01*
X159346031Y-108979662D01*
X159362692Y-108957198D01*
X159381475Y-108936475D01*
X159402198Y-108917692D01*
X159424662Y-108901031D01*
X159448652Y-108886652D01*
X159473935Y-108874694D01*
X159500269Y-108865272D01*
X159527399Y-108858476D01*
X159555065Y-108854372D01*
X159583000Y-108853000D01*
X160438000Y-108853000D01*
X160465935Y-108854372D01*
X160465935Y-108854372D01*
G37*
D11*
G04 #@! TD*
G04 #@! TO.P,D3,1*
G04 #@! TO.N,Net-(D3-Pad1)*
X160010500Y-109728000D03*
D10*
G04 #@! TO.N,Net-(D4-Pad1)*
G04 #@! TO.C,D4*
G36*
X160465935Y-111902372D02*
X160493601Y-111906476D01*
X160520731Y-111913272D01*
X160547065Y-111922694D01*
X160572348Y-111934652D01*
X160596338Y-111949031D01*
X160618802Y-111965692D01*
X160639525Y-111984475D01*
X160658308Y-112005198D01*
X160674969Y-112027662D01*
X160689348Y-112051652D01*
X160701306Y-112076935D01*
X160710728Y-112103269D01*
X160717524Y-112130399D01*
X160721628Y-112158065D01*
X160723000Y-112186000D01*
X160723000Y-113366000D01*
X160721628Y-113393935D01*
X160717524Y-113421601D01*
X160710728Y-113448731D01*
X160701306Y-113475065D01*
X160689348Y-113500348D01*
X160674969Y-113524338D01*
X160658308Y-113546802D01*
X160639525Y-113567525D01*
X160618802Y-113586308D01*
X160596338Y-113602969D01*
X160572348Y-113617348D01*
X160547065Y-113629306D01*
X160520731Y-113638728D01*
X160493601Y-113645524D01*
X160465935Y-113649628D01*
X160438000Y-113651000D01*
X159583000Y-113651000D01*
X159555065Y-113649628D01*
X159527399Y-113645524D01*
X159500269Y-113638728D01*
X159473935Y-113629306D01*
X159448652Y-113617348D01*
X159424662Y-113602969D01*
X159402198Y-113586308D01*
X159381475Y-113567525D01*
X159362692Y-113546802D01*
X159346031Y-113524338D01*
X159331652Y-113500348D01*
X159319694Y-113475065D01*
X159310272Y-113448731D01*
X159303476Y-113421601D01*
X159299372Y-113393935D01*
X159298000Y-113366000D01*
X159298000Y-112186000D01*
X159299372Y-112158065D01*
X159303476Y-112130399D01*
X159310272Y-112103269D01*
X159319694Y-112076935D01*
X159331652Y-112051652D01*
X159346031Y-112027662D01*
X159362692Y-112005198D01*
X159381475Y-111984475D01*
X159402198Y-111965692D01*
X159424662Y-111949031D01*
X159448652Y-111934652D01*
X159473935Y-111922694D01*
X159500269Y-111913272D01*
X159527399Y-111906476D01*
X159555065Y-111902372D01*
X159583000Y-111901000D01*
X160438000Y-111901000D01*
X160465935Y-111902372D01*
X160465935Y-111902372D01*
G37*
D11*
G04 #@! TD*
G04 #@! TO.P,D4,1*
G04 #@! TO.N,Net-(D4-Pad1)*
X160010500Y-112776000D03*
D10*
G04 #@! TO.N,VCC*
G04 #@! TO.C,D4*
G36*
X164040935Y-111902372D02*
X164068601Y-111906476D01*
X164095731Y-111913272D01*
X164122065Y-111922694D01*
X164147348Y-111934652D01*
X164171338Y-111949031D01*
X164193802Y-111965692D01*
X164214525Y-111984475D01*
X164233308Y-112005198D01*
X164249969Y-112027662D01*
X164264348Y-112051652D01*
X164276306Y-112076935D01*
X164285728Y-112103269D01*
X164292524Y-112130399D01*
X164296628Y-112158065D01*
X164298000Y-112186000D01*
X164298000Y-113366000D01*
X164296628Y-113393935D01*
X164292524Y-113421601D01*
X164285728Y-113448731D01*
X164276306Y-113475065D01*
X164264348Y-113500348D01*
X164249969Y-113524338D01*
X164233308Y-113546802D01*
X164214525Y-113567525D01*
X164193802Y-113586308D01*
X164171338Y-113602969D01*
X164147348Y-113617348D01*
X164122065Y-113629306D01*
X164095731Y-113638728D01*
X164068601Y-113645524D01*
X164040935Y-113649628D01*
X164013000Y-113651000D01*
X163158000Y-113651000D01*
X163130065Y-113649628D01*
X163102399Y-113645524D01*
X163075269Y-113638728D01*
X163048935Y-113629306D01*
X163023652Y-113617348D01*
X162999662Y-113602969D01*
X162977198Y-113586308D01*
X162956475Y-113567525D01*
X162937692Y-113546802D01*
X162921031Y-113524338D01*
X162906652Y-113500348D01*
X162894694Y-113475065D01*
X162885272Y-113448731D01*
X162878476Y-113421601D01*
X162874372Y-113393935D01*
X162873000Y-113366000D01*
X162873000Y-112186000D01*
X162874372Y-112158065D01*
X162878476Y-112130399D01*
X162885272Y-112103269D01*
X162894694Y-112076935D01*
X162906652Y-112051652D01*
X162921031Y-112027662D01*
X162937692Y-112005198D01*
X162956475Y-111984475D01*
X162977198Y-111965692D01*
X162999662Y-111949031D01*
X163023652Y-111934652D01*
X163048935Y-111922694D01*
X163075269Y-111913272D01*
X163102399Y-111906476D01*
X163130065Y-111902372D01*
X163158000Y-111901000D01*
X164013000Y-111901000D01*
X164040935Y-111902372D01*
X164040935Y-111902372D01*
G37*
D11*
G04 #@! TD*
G04 #@! TO.P,D4,2*
G04 #@! TO.N,VCC*
X163585500Y-112776000D03*
D10*
G04 #@! TO.N,GND*
G04 #@! TO.C,R3*
G36*
X154518505Y-110045204D02*
X154542773Y-110048804D01*
X154566572Y-110054765D01*
X154589671Y-110063030D01*
X154611850Y-110073520D01*
X154632893Y-110086132D01*
X154652599Y-110100747D01*
X154670777Y-110117223D01*
X154687253Y-110135401D01*
X154701868Y-110155107D01*
X154714480Y-110176150D01*
X154724970Y-110198329D01*
X154733235Y-110221428D01*
X154739196Y-110245227D01*
X154742796Y-110269495D01*
X154744000Y-110293999D01*
X154744000Y-111194001D01*
X154742796Y-111218505D01*
X154739196Y-111242773D01*
X154733235Y-111266572D01*
X154724970Y-111289671D01*
X154714480Y-111311850D01*
X154701868Y-111332893D01*
X154687253Y-111352599D01*
X154670777Y-111370777D01*
X154652599Y-111387253D01*
X154632893Y-111401868D01*
X154611850Y-111414480D01*
X154589671Y-111424970D01*
X154566572Y-111433235D01*
X154542773Y-111439196D01*
X154518505Y-111442796D01*
X154494001Y-111444000D01*
X153843999Y-111444000D01*
X153819495Y-111442796D01*
X153795227Y-111439196D01*
X153771428Y-111433235D01*
X153748329Y-111424970D01*
X153726150Y-111414480D01*
X153705107Y-111401868D01*
X153685401Y-111387253D01*
X153667223Y-111370777D01*
X153650747Y-111352599D01*
X153636132Y-111332893D01*
X153623520Y-111311850D01*
X153613030Y-111289671D01*
X153604765Y-111266572D01*
X153598804Y-111242773D01*
X153595204Y-111218505D01*
X153594000Y-111194001D01*
X153594000Y-110293999D01*
X153595204Y-110269495D01*
X153598804Y-110245227D01*
X153604765Y-110221428D01*
X153613030Y-110198329D01*
X153623520Y-110176150D01*
X153636132Y-110155107D01*
X153650747Y-110135401D01*
X153667223Y-110117223D01*
X153685401Y-110100747D01*
X153705107Y-110086132D01*
X153726150Y-110073520D01*
X153748329Y-110063030D01*
X153771428Y-110054765D01*
X153795227Y-110048804D01*
X153819495Y-110045204D01*
X153843999Y-110044000D01*
X154494001Y-110044000D01*
X154518505Y-110045204D01*
X154518505Y-110045204D01*
G37*
D14*
G04 #@! TD*
G04 #@! TO.P,R3,1*
G04 #@! TO.N,GND*
X154169000Y-110744000D03*
D10*
G04 #@! TO.N,Net-(D3-Pad1)*
G04 #@! TO.C,R3*
G36*
X156568505Y-110045204D02*
X156592773Y-110048804D01*
X156616572Y-110054765D01*
X156639671Y-110063030D01*
X156661850Y-110073520D01*
X156682893Y-110086132D01*
X156702599Y-110100747D01*
X156720777Y-110117223D01*
X156737253Y-110135401D01*
X156751868Y-110155107D01*
X156764480Y-110176150D01*
X156774970Y-110198329D01*
X156783235Y-110221428D01*
X156789196Y-110245227D01*
X156792796Y-110269495D01*
X156794000Y-110293999D01*
X156794000Y-111194001D01*
X156792796Y-111218505D01*
X156789196Y-111242773D01*
X156783235Y-111266572D01*
X156774970Y-111289671D01*
X156764480Y-111311850D01*
X156751868Y-111332893D01*
X156737253Y-111352599D01*
X156720777Y-111370777D01*
X156702599Y-111387253D01*
X156682893Y-111401868D01*
X156661850Y-111414480D01*
X156639671Y-111424970D01*
X156616572Y-111433235D01*
X156592773Y-111439196D01*
X156568505Y-111442796D01*
X156544001Y-111444000D01*
X155893999Y-111444000D01*
X155869495Y-111442796D01*
X155845227Y-111439196D01*
X155821428Y-111433235D01*
X155798329Y-111424970D01*
X155776150Y-111414480D01*
X155755107Y-111401868D01*
X155735401Y-111387253D01*
X155717223Y-111370777D01*
X155700747Y-111352599D01*
X155686132Y-111332893D01*
X155673520Y-111311850D01*
X155663030Y-111289671D01*
X155654765Y-111266572D01*
X155648804Y-111242773D01*
X155645204Y-111218505D01*
X155644000Y-111194001D01*
X155644000Y-110293999D01*
X155645204Y-110269495D01*
X155648804Y-110245227D01*
X155654765Y-110221428D01*
X155663030Y-110198329D01*
X155673520Y-110176150D01*
X155686132Y-110155107D01*
X155700747Y-110135401D01*
X155717223Y-110117223D01*
X155735401Y-110100747D01*
X155755107Y-110086132D01*
X155776150Y-110073520D01*
X155798329Y-110063030D01*
X155821428Y-110054765D01*
X155845227Y-110048804D01*
X155869495Y-110045204D01*
X155893999Y-110044000D01*
X156544001Y-110044000D01*
X156568505Y-110045204D01*
X156568505Y-110045204D01*
G37*
D14*
G04 #@! TD*
G04 #@! TO.P,R3,2*
G04 #@! TO.N,Net-(D3-Pad1)*
X156219000Y-110744000D03*
D10*
G04 #@! TO.N,Net-(D4-Pad1)*
G04 #@! TO.C,R4*
G36*
X156568505Y-112331204D02*
X156592773Y-112334804D01*
X156616572Y-112340765D01*
X156639671Y-112349030D01*
X156661850Y-112359520D01*
X156682893Y-112372132D01*
X156702599Y-112386747D01*
X156720777Y-112403223D01*
X156737253Y-112421401D01*
X156751868Y-112441107D01*
X156764480Y-112462150D01*
X156774970Y-112484329D01*
X156783235Y-112507428D01*
X156789196Y-112531227D01*
X156792796Y-112555495D01*
X156794000Y-112579999D01*
X156794000Y-113480001D01*
X156792796Y-113504505D01*
X156789196Y-113528773D01*
X156783235Y-113552572D01*
X156774970Y-113575671D01*
X156764480Y-113597850D01*
X156751868Y-113618893D01*
X156737253Y-113638599D01*
X156720777Y-113656777D01*
X156702599Y-113673253D01*
X156682893Y-113687868D01*
X156661850Y-113700480D01*
X156639671Y-113710970D01*
X156616572Y-113719235D01*
X156592773Y-113725196D01*
X156568505Y-113728796D01*
X156544001Y-113730000D01*
X155893999Y-113730000D01*
X155869495Y-113728796D01*
X155845227Y-113725196D01*
X155821428Y-113719235D01*
X155798329Y-113710970D01*
X155776150Y-113700480D01*
X155755107Y-113687868D01*
X155735401Y-113673253D01*
X155717223Y-113656777D01*
X155700747Y-113638599D01*
X155686132Y-113618893D01*
X155673520Y-113597850D01*
X155663030Y-113575671D01*
X155654765Y-113552572D01*
X155648804Y-113528773D01*
X155645204Y-113504505D01*
X155644000Y-113480001D01*
X155644000Y-112579999D01*
X155645204Y-112555495D01*
X155648804Y-112531227D01*
X155654765Y-112507428D01*
X155663030Y-112484329D01*
X155673520Y-112462150D01*
X155686132Y-112441107D01*
X155700747Y-112421401D01*
X155717223Y-112403223D01*
X155735401Y-112386747D01*
X155755107Y-112372132D01*
X155776150Y-112359520D01*
X155798329Y-112349030D01*
X155821428Y-112340765D01*
X155845227Y-112334804D01*
X155869495Y-112331204D01*
X155893999Y-112330000D01*
X156544001Y-112330000D01*
X156568505Y-112331204D01*
X156568505Y-112331204D01*
G37*
D14*
G04 #@! TD*
G04 #@! TO.P,R4,2*
G04 #@! TO.N,Net-(D4-Pad1)*
X156219000Y-113030000D03*
D10*
G04 #@! TO.N,GND*
G04 #@! TO.C,R4*
G36*
X154518505Y-112331204D02*
X154542773Y-112334804D01*
X154566572Y-112340765D01*
X154589671Y-112349030D01*
X154611850Y-112359520D01*
X154632893Y-112372132D01*
X154652599Y-112386747D01*
X154670777Y-112403223D01*
X154687253Y-112421401D01*
X154701868Y-112441107D01*
X154714480Y-112462150D01*
X154724970Y-112484329D01*
X154733235Y-112507428D01*
X154739196Y-112531227D01*
X154742796Y-112555495D01*
X154744000Y-112579999D01*
X154744000Y-113480001D01*
X154742796Y-113504505D01*
X154739196Y-113528773D01*
X154733235Y-113552572D01*
X154724970Y-113575671D01*
X154714480Y-113597850D01*
X154701868Y-113618893D01*
X154687253Y-113638599D01*
X154670777Y-113656777D01*
X154652599Y-113673253D01*
X154632893Y-113687868D01*
X154611850Y-113700480D01*
X154589671Y-113710970D01*
X154566572Y-113719235D01*
X154542773Y-113725196D01*
X154518505Y-113728796D01*
X154494001Y-113730000D01*
X153843999Y-113730000D01*
X153819495Y-113728796D01*
X153795227Y-113725196D01*
X153771428Y-113719235D01*
X153748329Y-113710970D01*
X153726150Y-113700480D01*
X153705107Y-113687868D01*
X153685401Y-113673253D01*
X153667223Y-113656777D01*
X153650747Y-113638599D01*
X153636132Y-113618893D01*
X153623520Y-113597850D01*
X153613030Y-113575671D01*
X153604765Y-113552572D01*
X153598804Y-113528773D01*
X153595204Y-113504505D01*
X153594000Y-113480001D01*
X153594000Y-112579999D01*
X153595204Y-112555495D01*
X153598804Y-112531227D01*
X153604765Y-112507428D01*
X153613030Y-112484329D01*
X153623520Y-112462150D01*
X153636132Y-112441107D01*
X153650747Y-112421401D01*
X153667223Y-112403223D01*
X153685401Y-112386747D01*
X153705107Y-112372132D01*
X153726150Y-112359520D01*
X153748329Y-112349030D01*
X153771428Y-112340765D01*
X153795227Y-112334804D01*
X153819495Y-112331204D01*
X153843999Y-112330000D01*
X154494001Y-112330000D01*
X154518505Y-112331204D01*
X154518505Y-112331204D01*
G37*
D14*
G04 #@! TD*
G04 #@! TO.P,R4,1*
G04 #@! TO.N,GND*
X154169000Y-113030000D03*
D15*
G04 #@! TO.N,VCC*
X163585500Y-104607000D02*
X163585500Y-106680000D01*
X163585500Y-103632000D02*
X163585500Y-104607000D01*
X163585500Y-106680000D02*
X163585500Y-109728000D01*
X163585500Y-109728000D02*
X163585500Y-112776000D01*
X163585500Y-102371500D02*
X163585500Y-103632000D01*
X157920081Y-103378000D02*
X159315801Y-101982280D01*
X159315801Y-101982280D02*
X163196280Y-101982280D01*
X156718000Y-103378000D02*
X157920081Y-103378000D01*
X163196280Y-101982280D02*
X163585500Y-102371500D01*
G04 #@! TO.N,Net-(D1-Pad1)*
X156219000Y-106172000D02*
X156219000Y-106163000D01*
X157480000Y-106172000D02*
X156219000Y-106172000D01*
X160010500Y-103641500D02*
X157480000Y-106172000D01*
X160010500Y-103632000D02*
X160010500Y-103641500D01*
G04 #@! TO.N,Net-(D2-Pad1)*
X158232500Y-108458000D02*
X160010500Y-106680000D01*
X156219000Y-108458000D02*
X158232500Y-108458000D01*
G04 #@! TO.N,GND*
X154169000Y-103387000D02*
X154178000Y-103378000D01*
X154178000Y-106163000D02*
X154169000Y-106172000D01*
X154178000Y-103378000D02*
X154178000Y-106163000D01*
X154169000Y-106172000D02*
X154169000Y-108458000D01*
X154169000Y-108458000D02*
X154169000Y-110744000D01*
X154169000Y-110744000D02*
X154169000Y-113030000D01*
G04 #@! TO.N,Net-(D3-Pad1)*
X158994500Y-110744000D02*
X160010500Y-109728000D01*
X156219000Y-110744000D02*
X158994500Y-110744000D01*
G04 #@! TO.N,Net-(D4-Pad1)*
X159756500Y-113030000D02*
X156219000Y-113030000D01*
X160010500Y-112776000D02*
X159756500Y-113030000D01*
G04 #@! TD*
M02*
