G04 #@! TF.GenerationSoftware,KiCad,Pcbnew,5.0.2-bee76a0~70~ubuntu16.04.1*
G04 #@! TF.CreationDate,2019-07-09T20:02:22-07:00*
G04 #@! TF.ProjectId,reverse-mount-led-test,72657665-7273-4652-9d6d-6f756e742d6c,rev?*
G04 #@! TF.SameCoordinates,Original*
G04 #@! TF.FileFunction,Soldermask,Bot*
G04 #@! TF.FilePolarity,Negative*
%FSLAX46Y46*%
G04 Gerber Fmt 4.6, Leading zero omitted, Abs format (unit mm)*
G04 Created by KiCad (PCBNEW 5.0.2-bee76a0~70~ubuntu16.04.1) date Tue 09 Jul 2019 08:02:22 PM PDT*
%MOMM*%
%LPD*%
G01*
G04 APERTURE LIST*
%ADD10C,0.100000*%
G04 APERTURE END LIST*
D10*
G36*
X161984388Y-111538957D02*
X162121901Y-111580671D01*
X162163615Y-111593325D01*
X162246204Y-111637470D01*
X162328793Y-111681614D01*
X162473570Y-111800430D01*
X162592386Y-111945207D01*
X162616765Y-111990817D01*
X162630596Y-112011518D01*
X162648201Y-112029122D01*
X162668901Y-112042954D01*
X162691902Y-112052481D01*
X162716320Y-112057338D01*
X162741217Y-112057339D01*
X162765635Y-112052482D01*
X162788636Y-112042954D01*
X162809337Y-112029123D01*
X162826941Y-112011518D01*
X162840773Y-111990818D01*
X162861326Y-111952367D01*
X162889742Y-111917742D01*
X162924368Y-111889325D01*
X162963876Y-111868208D01*
X163006740Y-111855205D01*
X163057555Y-111850200D01*
X164113445Y-111850200D01*
X164164260Y-111855205D01*
X164207124Y-111868208D01*
X164246632Y-111889325D01*
X164281258Y-111917742D01*
X164309675Y-111952368D01*
X164330792Y-111991876D01*
X164343795Y-112034740D01*
X164348800Y-112085555D01*
X164348800Y-113466445D01*
X164343795Y-113517260D01*
X164330792Y-113560124D01*
X164309675Y-113599632D01*
X164281258Y-113634258D01*
X164246632Y-113662675D01*
X164207124Y-113683792D01*
X164164260Y-113696795D01*
X164113445Y-113701800D01*
X163057555Y-113701800D01*
X163006740Y-113696795D01*
X162963876Y-113683792D01*
X162924368Y-113662675D01*
X162889742Y-113634258D01*
X162861325Y-113599632D01*
X162840773Y-113561182D01*
X162826942Y-113540481D01*
X162809337Y-113522877D01*
X162788637Y-113509045D01*
X162765635Y-113499518D01*
X162741217Y-113494661D01*
X162716321Y-113494661D01*
X162691903Y-113499517D01*
X162668902Y-113509045D01*
X162648201Y-113522876D01*
X162630597Y-113540481D01*
X162616767Y-113561178D01*
X162609773Y-113574263D01*
X162592385Y-113606795D01*
X162487214Y-113734945D01*
X162473570Y-113751570D01*
X162328792Y-113870386D01*
X162163616Y-113958675D01*
X162121902Y-113971329D01*
X161984389Y-114013043D01*
X161798000Y-114031401D01*
X161611612Y-114013043D01*
X161474099Y-113971329D01*
X161432385Y-113958675D01*
X161267209Y-113870386D01*
X161122431Y-113751570D01*
X161066807Y-113683792D01*
X161003616Y-113606794D01*
X160979235Y-113561181D01*
X160965403Y-113540481D01*
X160947799Y-113522876D01*
X160927098Y-113509045D01*
X160904097Y-113499517D01*
X160879679Y-113494661D01*
X160854782Y-113494661D01*
X160830364Y-113499518D01*
X160807363Y-113509045D01*
X160786663Y-113522877D01*
X160769058Y-113540481D01*
X160755227Y-113561182D01*
X160734675Y-113599632D01*
X160706258Y-113634258D01*
X160671632Y-113662675D01*
X160632124Y-113683792D01*
X160589260Y-113696795D01*
X160538445Y-113701800D01*
X159482555Y-113701800D01*
X159431740Y-113696795D01*
X159388876Y-113683792D01*
X159349368Y-113662675D01*
X159314742Y-113634258D01*
X159286325Y-113599632D01*
X159265208Y-113560124D01*
X159252205Y-113517260D01*
X159247200Y-113466445D01*
X159247200Y-112085555D01*
X159252205Y-112034740D01*
X159265208Y-111991876D01*
X159286325Y-111952368D01*
X159314742Y-111917742D01*
X159349368Y-111889325D01*
X159388876Y-111868208D01*
X159431740Y-111855205D01*
X159482555Y-111850200D01*
X160538445Y-111850200D01*
X160589260Y-111855205D01*
X160632124Y-111868208D01*
X160671632Y-111889325D01*
X160706258Y-111917742D01*
X160734675Y-111952368D01*
X160755227Y-111990818D01*
X160769058Y-112011519D01*
X160786663Y-112029123D01*
X160807363Y-112042955D01*
X160830365Y-112052482D01*
X160854783Y-112057339D01*
X160879679Y-112057339D01*
X160904097Y-112052483D01*
X160927098Y-112042955D01*
X160947799Y-112029124D01*
X160965403Y-112011519D01*
X160979235Y-111990818D01*
X160990673Y-111969419D01*
X161003615Y-111945205D01*
X161122430Y-111800430D01*
X161267208Y-111681614D01*
X161432384Y-111593325D01*
X161474098Y-111580671D01*
X161611611Y-111538957D01*
X161798000Y-111520599D01*
X161984388Y-111538957D01*
X161984388Y-111538957D01*
G37*
G36*
X154633450Y-112283650D02*
X154670919Y-112295016D01*
X154705436Y-112313467D01*
X154735698Y-112338302D01*
X154760533Y-112368564D01*
X154778984Y-112403081D01*
X154790350Y-112440550D01*
X154794800Y-112485737D01*
X154794800Y-113574263D01*
X154790350Y-113619450D01*
X154778984Y-113656919D01*
X154760533Y-113691436D01*
X154735698Y-113721698D01*
X154705436Y-113746533D01*
X154670919Y-113764984D01*
X154633450Y-113776350D01*
X154588263Y-113780800D01*
X153749737Y-113780800D01*
X153704550Y-113776350D01*
X153667081Y-113764984D01*
X153632564Y-113746533D01*
X153602302Y-113721698D01*
X153577467Y-113691436D01*
X153559016Y-113656919D01*
X153547650Y-113619450D01*
X153543200Y-113574263D01*
X153543200Y-112485737D01*
X153547650Y-112440550D01*
X153559016Y-112403081D01*
X153577467Y-112368564D01*
X153602302Y-112338302D01*
X153632564Y-112313467D01*
X153667081Y-112295016D01*
X153704550Y-112283650D01*
X153749737Y-112279200D01*
X154588263Y-112279200D01*
X154633450Y-112283650D01*
X154633450Y-112283650D01*
G37*
G36*
X156683450Y-112283650D02*
X156720919Y-112295016D01*
X156755436Y-112313467D01*
X156785698Y-112338302D01*
X156810533Y-112368564D01*
X156828984Y-112403081D01*
X156840350Y-112440550D01*
X156844800Y-112485737D01*
X156844800Y-113574263D01*
X156840350Y-113619450D01*
X156828984Y-113656919D01*
X156810533Y-113691436D01*
X156785698Y-113721698D01*
X156755436Y-113746533D01*
X156720919Y-113764984D01*
X156683450Y-113776350D01*
X156638263Y-113780800D01*
X155799737Y-113780800D01*
X155754550Y-113776350D01*
X155717081Y-113764984D01*
X155682564Y-113746533D01*
X155652302Y-113721698D01*
X155627467Y-113691436D01*
X155609016Y-113656919D01*
X155597650Y-113619450D01*
X155593200Y-113574263D01*
X155593200Y-112485737D01*
X155597650Y-112440550D01*
X155609016Y-112403081D01*
X155627467Y-112368564D01*
X155652302Y-112338302D01*
X155682564Y-112313467D01*
X155717081Y-112295016D01*
X155754550Y-112283650D01*
X155799737Y-112279200D01*
X156638263Y-112279200D01*
X156683450Y-112283650D01*
X156683450Y-112283650D01*
G37*
G36*
X156683450Y-109997650D02*
X156720919Y-110009016D01*
X156755436Y-110027467D01*
X156785698Y-110052302D01*
X156810533Y-110082564D01*
X156828984Y-110117081D01*
X156840350Y-110154550D01*
X156844800Y-110199737D01*
X156844800Y-111288263D01*
X156840350Y-111333450D01*
X156828984Y-111370919D01*
X156810533Y-111405436D01*
X156785698Y-111435698D01*
X156755436Y-111460533D01*
X156720919Y-111478984D01*
X156683450Y-111490350D01*
X156638263Y-111494800D01*
X155799737Y-111494800D01*
X155754550Y-111490350D01*
X155717081Y-111478984D01*
X155682564Y-111460533D01*
X155652302Y-111435698D01*
X155627467Y-111405436D01*
X155609016Y-111370919D01*
X155597650Y-111333450D01*
X155593200Y-111288263D01*
X155593200Y-110199737D01*
X155597650Y-110154550D01*
X155609016Y-110117081D01*
X155627467Y-110082564D01*
X155652302Y-110052302D01*
X155682564Y-110027467D01*
X155717081Y-110009016D01*
X155754550Y-109997650D01*
X155799737Y-109993200D01*
X156638263Y-109993200D01*
X156683450Y-109997650D01*
X156683450Y-109997650D01*
G37*
G36*
X154633450Y-109997650D02*
X154670919Y-110009016D01*
X154705436Y-110027467D01*
X154735698Y-110052302D01*
X154760533Y-110082564D01*
X154778984Y-110117081D01*
X154790350Y-110154550D01*
X154794800Y-110199737D01*
X154794800Y-111288263D01*
X154790350Y-111333450D01*
X154778984Y-111370919D01*
X154760533Y-111405436D01*
X154735698Y-111435698D01*
X154705436Y-111460533D01*
X154670919Y-111478984D01*
X154633450Y-111490350D01*
X154588263Y-111494800D01*
X153749737Y-111494800D01*
X153704550Y-111490350D01*
X153667081Y-111478984D01*
X153632564Y-111460533D01*
X153602302Y-111435698D01*
X153577467Y-111405436D01*
X153559016Y-111370919D01*
X153547650Y-111333450D01*
X153543200Y-111288263D01*
X153543200Y-110199737D01*
X153547650Y-110154550D01*
X153559016Y-110117081D01*
X153577467Y-110082564D01*
X153602302Y-110052302D01*
X153632564Y-110027467D01*
X153667081Y-110009016D01*
X153704550Y-109997650D01*
X153749737Y-109993200D01*
X154588263Y-109993200D01*
X154633450Y-109997650D01*
X154633450Y-109997650D01*
G37*
G36*
X161984388Y-108490957D02*
X162121901Y-108532671D01*
X162163615Y-108545325D01*
X162246204Y-108589470D01*
X162328793Y-108633614D01*
X162473570Y-108752430D01*
X162592386Y-108897207D01*
X162616765Y-108942817D01*
X162630596Y-108963518D01*
X162648201Y-108981122D01*
X162668901Y-108994954D01*
X162691902Y-109004481D01*
X162716320Y-109009338D01*
X162741217Y-109009339D01*
X162765635Y-109004482D01*
X162788636Y-108994954D01*
X162809337Y-108981123D01*
X162826941Y-108963518D01*
X162840773Y-108942818D01*
X162861326Y-108904367D01*
X162889742Y-108869742D01*
X162924368Y-108841325D01*
X162963876Y-108820208D01*
X163006740Y-108807205D01*
X163057555Y-108802200D01*
X164113445Y-108802200D01*
X164164260Y-108807205D01*
X164207124Y-108820208D01*
X164246632Y-108841325D01*
X164281258Y-108869742D01*
X164309675Y-108904368D01*
X164330792Y-108943876D01*
X164343795Y-108986740D01*
X164348800Y-109037555D01*
X164348800Y-110418445D01*
X164343795Y-110469260D01*
X164330792Y-110512124D01*
X164309675Y-110551632D01*
X164281258Y-110586258D01*
X164246632Y-110614675D01*
X164207124Y-110635792D01*
X164164260Y-110648795D01*
X164113445Y-110653800D01*
X163057555Y-110653800D01*
X163006740Y-110648795D01*
X162963876Y-110635792D01*
X162924368Y-110614675D01*
X162889742Y-110586258D01*
X162861325Y-110551632D01*
X162840773Y-110513182D01*
X162826942Y-110492481D01*
X162809337Y-110474877D01*
X162788637Y-110461045D01*
X162765635Y-110451518D01*
X162741217Y-110446661D01*
X162716321Y-110446661D01*
X162691903Y-110451517D01*
X162668902Y-110461045D01*
X162648201Y-110474876D01*
X162630597Y-110492481D01*
X162616767Y-110513178D01*
X162603840Y-110537363D01*
X162592385Y-110558795D01*
X162473570Y-110703570D01*
X162328792Y-110822386D01*
X162163616Y-110910675D01*
X162121902Y-110923329D01*
X161984389Y-110965043D01*
X161798000Y-110983401D01*
X161611612Y-110965043D01*
X161474099Y-110923329D01*
X161432385Y-110910675D01*
X161267209Y-110822386D01*
X161122431Y-110703570D01*
X161066807Y-110635792D01*
X161003616Y-110558794D01*
X160979235Y-110513181D01*
X160965403Y-110492481D01*
X160947799Y-110474876D01*
X160927098Y-110461045D01*
X160904097Y-110451517D01*
X160879679Y-110446661D01*
X160854782Y-110446661D01*
X160830364Y-110451518D01*
X160807363Y-110461045D01*
X160786663Y-110474877D01*
X160769058Y-110492481D01*
X160755227Y-110513182D01*
X160734675Y-110551632D01*
X160706258Y-110586258D01*
X160671632Y-110614675D01*
X160632124Y-110635792D01*
X160589260Y-110648795D01*
X160538445Y-110653800D01*
X159482555Y-110653800D01*
X159431740Y-110648795D01*
X159388876Y-110635792D01*
X159349368Y-110614675D01*
X159314742Y-110586258D01*
X159286325Y-110551632D01*
X159265208Y-110512124D01*
X159252205Y-110469260D01*
X159247200Y-110418445D01*
X159247200Y-109037555D01*
X159252205Y-108986740D01*
X159265208Y-108943876D01*
X159286325Y-108904368D01*
X159314742Y-108869742D01*
X159349368Y-108841325D01*
X159388876Y-108820208D01*
X159431740Y-108807205D01*
X159482555Y-108802200D01*
X160538445Y-108802200D01*
X160589260Y-108807205D01*
X160632124Y-108820208D01*
X160671632Y-108841325D01*
X160706258Y-108869742D01*
X160734675Y-108904368D01*
X160755227Y-108942818D01*
X160769058Y-108963519D01*
X160786663Y-108981123D01*
X160807363Y-108994955D01*
X160830365Y-109004482D01*
X160854783Y-109009339D01*
X160879679Y-109009339D01*
X160904097Y-109004483D01*
X160927098Y-108994955D01*
X160947799Y-108981124D01*
X160965403Y-108963519D01*
X160979235Y-108942818D01*
X160990673Y-108921419D01*
X161003615Y-108897205D01*
X161122430Y-108752430D01*
X161267208Y-108633614D01*
X161432384Y-108545325D01*
X161474098Y-108532671D01*
X161611611Y-108490957D01*
X161798000Y-108472599D01*
X161984388Y-108490957D01*
X161984388Y-108490957D01*
G37*
G36*
X154633450Y-107711650D02*
X154670919Y-107723016D01*
X154705436Y-107741467D01*
X154735698Y-107766302D01*
X154760533Y-107796564D01*
X154778984Y-107831081D01*
X154790350Y-107868550D01*
X154794800Y-107913737D01*
X154794800Y-109002263D01*
X154790350Y-109047450D01*
X154778984Y-109084919D01*
X154760533Y-109119436D01*
X154735698Y-109149698D01*
X154705436Y-109174533D01*
X154670919Y-109192984D01*
X154633450Y-109204350D01*
X154588263Y-109208800D01*
X153749737Y-109208800D01*
X153704550Y-109204350D01*
X153667081Y-109192984D01*
X153632564Y-109174533D01*
X153602302Y-109149698D01*
X153577467Y-109119436D01*
X153559016Y-109084919D01*
X153547650Y-109047450D01*
X153543200Y-109002263D01*
X153543200Y-107913737D01*
X153547650Y-107868550D01*
X153559016Y-107831081D01*
X153577467Y-107796564D01*
X153602302Y-107766302D01*
X153632564Y-107741467D01*
X153667081Y-107723016D01*
X153704550Y-107711650D01*
X153749737Y-107707200D01*
X154588263Y-107707200D01*
X154633450Y-107711650D01*
X154633450Y-107711650D01*
G37*
G36*
X156683450Y-107711650D02*
X156720919Y-107723016D01*
X156755436Y-107741467D01*
X156785698Y-107766302D01*
X156810533Y-107796564D01*
X156828984Y-107831081D01*
X156840350Y-107868550D01*
X156844800Y-107913737D01*
X156844800Y-109002263D01*
X156840350Y-109047450D01*
X156828984Y-109084919D01*
X156810533Y-109119436D01*
X156785698Y-109149698D01*
X156755436Y-109174533D01*
X156720919Y-109192984D01*
X156683450Y-109204350D01*
X156638263Y-109208800D01*
X155799737Y-109208800D01*
X155754550Y-109204350D01*
X155717081Y-109192984D01*
X155682564Y-109174533D01*
X155652302Y-109149698D01*
X155627467Y-109119436D01*
X155609016Y-109084919D01*
X155597650Y-109047450D01*
X155593200Y-109002263D01*
X155593200Y-107913737D01*
X155597650Y-107868550D01*
X155609016Y-107831081D01*
X155627467Y-107796564D01*
X155652302Y-107766302D01*
X155682564Y-107741467D01*
X155717081Y-107723016D01*
X155754550Y-107711650D01*
X155799737Y-107707200D01*
X156638263Y-107707200D01*
X156683450Y-107711650D01*
X156683450Y-107711650D01*
G37*
G36*
X161984388Y-105442957D02*
X162107497Y-105480302D01*
X162163615Y-105497325D01*
X162188383Y-105510564D01*
X162328793Y-105585614D01*
X162473570Y-105704430D01*
X162592386Y-105849207D01*
X162616765Y-105894817D01*
X162630596Y-105915518D01*
X162648201Y-105933122D01*
X162668901Y-105946954D01*
X162691902Y-105956481D01*
X162716320Y-105961338D01*
X162741217Y-105961339D01*
X162765635Y-105956482D01*
X162788636Y-105946954D01*
X162809337Y-105933123D01*
X162826941Y-105915518D01*
X162840773Y-105894818D01*
X162861326Y-105856367D01*
X162889742Y-105821742D01*
X162924368Y-105793325D01*
X162963876Y-105772208D01*
X163006740Y-105759205D01*
X163057555Y-105754200D01*
X164113445Y-105754200D01*
X164164260Y-105759205D01*
X164207124Y-105772208D01*
X164246632Y-105793325D01*
X164281258Y-105821742D01*
X164309675Y-105856368D01*
X164330792Y-105895876D01*
X164343795Y-105938740D01*
X164348800Y-105989555D01*
X164348800Y-107370445D01*
X164343795Y-107421260D01*
X164330792Y-107464124D01*
X164309675Y-107503632D01*
X164281258Y-107538258D01*
X164246632Y-107566675D01*
X164207124Y-107587792D01*
X164164260Y-107600795D01*
X164113445Y-107605800D01*
X163057555Y-107605800D01*
X163006740Y-107600795D01*
X162963876Y-107587792D01*
X162924368Y-107566675D01*
X162889742Y-107538258D01*
X162861325Y-107503632D01*
X162840773Y-107465182D01*
X162826942Y-107444481D01*
X162809337Y-107426877D01*
X162788637Y-107413045D01*
X162765635Y-107403518D01*
X162741217Y-107398661D01*
X162716321Y-107398661D01*
X162691903Y-107403517D01*
X162668902Y-107413045D01*
X162648201Y-107426876D01*
X162630597Y-107444481D01*
X162616767Y-107465178D01*
X162603840Y-107489363D01*
X162592385Y-107510795D01*
X162473570Y-107655570D01*
X162328792Y-107774386D01*
X162163616Y-107862675D01*
X162144248Y-107868550D01*
X161984389Y-107917043D01*
X161798000Y-107935401D01*
X161611612Y-107917043D01*
X161451753Y-107868550D01*
X161432385Y-107862675D01*
X161267209Y-107774386D01*
X161122431Y-107655570D01*
X161066807Y-107587792D01*
X161003616Y-107510794D01*
X160979235Y-107465181D01*
X160965403Y-107444481D01*
X160947799Y-107426876D01*
X160927098Y-107413045D01*
X160904097Y-107403517D01*
X160879679Y-107398661D01*
X160854782Y-107398661D01*
X160830364Y-107403518D01*
X160807363Y-107413045D01*
X160786663Y-107426877D01*
X160769058Y-107444481D01*
X160755227Y-107465182D01*
X160734675Y-107503632D01*
X160706258Y-107538258D01*
X160671632Y-107566675D01*
X160632124Y-107587792D01*
X160589260Y-107600795D01*
X160538445Y-107605800D01*
X159482555Y-107605800D01*
X159431740Y-107600795D01*
X159388876Y-107587792D01*
X159349368Y-107566675D01*
X159314742Y-107538258D01*
X159286325Y-107503632D01*
X159265208Y-107464124D01*
X159252205Y-107421260D01*
X159247200Y-107370445D01*
X159247200Y-105989555D01*
X159252205Y-105938740D01*
X159265208Y-105895876D01*
X159286325Y-105856368D01*
X159314742Y-105821742D01*
X159349368Y-105793325D01*
X159388876Y-105772208D01*
X159431740Y-105759205D01*
X159482555Y-105754200D01*
X160538445Y-105754200D01*
X160589260Y-105759205D01*
X160632124Y-105772208D01*
X160671632Y-105793325D01*
X160706258Y-105821742D01*
X160734675Y-105856368D01*
X160755227Y-105894818D01*
X160769058Y-105915519D01*
X160786663Y-105933123D01*
X160807363Y-105946955D01*
X160830365Y-105956482D01*
X160854783Y-105961339D01*
X160879679Y-105961339D01*
X160904097Y-105956483D01*
X160927098Y-105946955D01*
X160947799Y-105933124D01*
X160965403Y-105915519D01*
X160979235Y-105894818D01*
X160990673Y-105873419D01*
X161003615Y-105849205D01*
X161122430Y-105704430D01*
X161267208Y-105585614D01*
X161272940Y-105582550D01*
X161432384Y-105497325D01*
X161488502Y-105480302D01*
X161611611Y-105442957D01*
X161798000Y-105424599D01*
X161984388Y-105442957D01*
X161984388Y-105442957D01*
G37*
G36*
X154633450Y-105425650D02*
X154670919Y-105437016D01*
X154705436Y-105455467D01*
X154735698Y-105480302D01*
X154760533Y-105510564D01*
X154778984Y-105545081D01*
X154790350Y-105582550D01*
X154794800Y-105627737D01*
X154794800Y-106716263D01*
X154790350Y-106761450D01*
X154778984Y-106798919D01*
X154760533Y-106833436D01*
X154735698Y-106863698D01*
X154705436Y-106888533D01*
X154670919Y-106906984D01*
X154633450Y-106918350D01*
X154588263Y-106922800D01*
X153749737Y-106922800D01*
X153704550Y-106918350D01*
X153667081Y-106906984D01*
X153632564Y-106888533D01*
X153602302Y-106863698D01*
X153577467Y-106833436D01*
X153559016Y-106798919D01*
X153547650Y-106761450D01*
X153543200Y-106716263D01*
X153543200Y-105627737D01*
X153547650Y-105582550D01*
X153559016Y-105545081D01*
X153577467Y-105510564D01*
X153602302Y-105480302D01*
X153632564Y-105455467D01*
X153667081Y-105437016D01*
X153704550Y-105425650D01*
X153749737Y-105421200D01*
X154588263Y-105421200D01*
X154633450Y-105425650D01*
X154633450Y-105425650D01*
G37*
G36*
X156683450Y-105425650D02*
X156720919Y-105437016D01*
X156755436Y-105455467D01*
X156785698Y-105480302D01*
X156810533Y-105510564D01*
X156828984Y-105545081D01*
X156840350Y-105582550D01*
X156844800Y-105627737D01*
X156844800Y-106716263D01*
X156840350Y-106761450D01*
X156828984Y-106798919D01*
X156810533Y-106833436D01*
X156785698Y-106863698D01*
X156755436Y-106888533D01*
X156720919Y-106906984D01*
X156683450Y-106918350D01*
X156638263Y-106922800D01*
X155799737Y-106922800D01*
X155754550Y-106918350D01*
X155717081Y-106906984D01*
X155682564Y-106888533D01*
X155652302Y-106863698D01*
X155627467Y-106833436D01*
X155609016Y-106798919D01*
X155597650Y-106761450D01*
X155593200Y-106716263D01*
X155593200Y-105627737D01*
X155597650Y-105582550D01*
X155609016Y-105545081D01*
X155627467Y-105510564D01*
X155652302Y-105480302D01*
X155682564Y-105455467D01*
X155717081Y-105437016D01*
X155754550Y-105425650D01*
X155799737Y-105421200D01*
X156638263Y-105421200D01*
X156683450Y-105425650D01*
X156683450Y-105425650D01*
G37*
G36*
X161984388Y-102394957D02*
X162121901Y-102436671D01*
X162163615Y-102449325D01*
X162215765Y-102477200D01*
X162328793Y-102537614D01*
X162473570Y-102656430D01*
X162592386Y-102801207D01*
X162616765Y-102846817D01*
X162630596Y-102867518D01*
X162648201Y-102885122D01*
X162668901Y-102898954D01*
X162691902Y-102908481D01*
X162716320Y-102913338D01*
X162741217Y-102913339D01*
X162765635Y-102908482D01*
X162788636Y-102898954D01*
X162809337Y-102885123D01*
X162826941Y-102867518D01*
X162840773Y-102846818D01*
X162861326Y-102808367D01*
X162889742Y-102773742D01*
X162924368Y-102745325D01*
X162963876Y-102724208D01*
X163006740Y-102711205D01*
X163057555Y-102706200D01*
X164113445Y-102706200D01*
X164164260Y-102711205D01*
X164207124Y-102724208D01*
X164246632Y-102745325D01*
X164281258Y-102773742D01*
X164309675Y-102808368D01*
X164330792Y-102847876D01*
X164343795Y-102890740D01*
X164348800Y-102941555D01*
X164348800Y-104322445D01*
X164343795Y-104373260D01*
X164330792Y-104416124D01*
X164309675Y-104455632D01*
X164281258Y-104490258D01*
X164246632Y-104518675D01*
X164207124Y-104539792D01*
X164164260Y-104552795D01*
X164113445Y-104557800D01*
X163057555Y-104557800D01*
X163006740Y-104552795D01*
X162963876Y-104539792D01*
X162924368Y-104518675D01*
X162889742Y-104490258D01*
X162861325Y-104455632D01*
X162840773Y-104417182D01*
X162826942Y-104396481D01*
X162809337Y-104378877D01*
X162788637Y-104365045D01*
X162765635Y-104355518D01*
X162741217Y-104350661D01*
X162716321Y-104350661D01*
X162691903Y-104355517D01*
X162668902Y-104365045D01*
X162648201Y-104378876D01*
X162630597Y-104396481D01*
X162616767Y-104417178D01*
X162603840Y-104441363D01*
X162592385Y-104462795D01*
X162473570Y-104607570D01*
X162328792Y-104726386D01*
X162163616Y-104814675D01*
X162121902Y-104827329D01*
X161984389Y-104869043D01*
X161798000Y-104887401D01*
X161611612Y-104869043D01*
X161474099Y-104827329D01*
X161432385Y-104814675D01*
X161267209Y-104726386D01*
X161122431Y-104607570D01*
X161066807Y-104539792D01*
X161003616Y-104462794D01*
X160979235Y-104417181D01*
X160965403Y-104396481D01*
X160947799Y-104378876D01*
X160927098Y-104365045D01*
X160904097Y-104355517D01*
X160879679Y-104350661D01*
X160854782Y-104350661D01*
X160830364Y-104355518D01*
X160807363Y-104365045D01*
X160786663Y-104378877D01*
X160769058Y-104396481D01*
X160755227Y-104417182D01*
X160734675Y-104455632D01*
X160706258Y-104490258D01*
X160671632Y-104518675D01*
X160632124Y-104539792D01*
X160589260Y-104552795D01*
X160538445Y-104557800D01*
X159482555Y-104557800D01*
X159431740Y-104552795D01*
X159388876Y-104539792D01*
X159349368Y-104518675D01*
X159314742Y-104490258D01*
X159286325Y-104455632D01*
X159265208Y-104416124D01*
X159252205Y-104373260D01*
X159247200Y-104322445D01*
X159247200Y-102941555D01*
X159252205Y-102890740D01*
X159265208Y-102847876D01*
X159286325Y-102808368D01*
X159314742Y-102773742D01*
X159349368Y-102745325D01*
X159388876Y-102724208D01*
X159431740Y-102711205D01*
X159482555Y-102706200D01*
X160538445Y-102706200D01*
X160589260Y-102711205D01*
X160632124Y-102724208D01*
X160671632Y-102745325D01*
X160706258Y-102773742D01*
X160734675Y-102808368D01*
X160755227Y-102846818D01*
X160769058Y-102867519D01*
X160786663Y-102885123D01*
X160807363Y-102898955D01*
X160830365Y-102908482D01*
X160854783Y-102913339D01*
X160879679Y-102913339D01*
X160904097Y-102908483D01*
X160927098Y-102898955D01*
X160947799Y-102885124D01*
X160965403Y-102867519D01*
X160979235Y-102846818D01*
X160990673Y-102825419D01*
X161003615Y-102801205D01*
X161122430Y-102656430D01*
X161267208Y-102537614D01*
X161432384Y-102449325D01*
X161474098Y-102436671D01*
X161611611Y-102394957D01*
X161798000Y-102376599D01*
X161984388Y-102394957D01*
X161984388Y-102394957D01*
G37*
G36*
X156894588Y-102490233D02*
X157064385Y-102541741D01*
X157220878Y-102625388D01*
X157358044Y-102737956D01*
X157470612Y-102875122D01*
X157554259Y-103031615D01*
X157605767Y-103201412D01*
X157623159Y-103378000D01*
X157605767Y-103554588D01*
X157554259Y-103724385D01*
X157470612Y-103880878D01*
X157358044Y-104018044D01*
X157220878Y-104130612D01*
X157064385Y-104214259D01*
X156894588Y-104265767D01*
X156762259Y-104278800D01*
X156673741Y-104278800D01*
X156541412Y-104265767D01*
X156371615Y-104214259D01*
X156215122Y-104130612D01*
X156077956Y-104018044D01*
X155965388Y-103880878D01*
X155881741Y-103724385D01*
X155830233Y-103554588D01*
X155812841Y-103378000D01*
X155830233Y-103201412D01*
X155881741Y-103031615D01*
X155965388Y-102875122D01*
X156077956Y-102737956D01*
X156215122Y-102625388D01*
X156371615Y-102541741D01*
X156541412Y-102490233D01*
X156673741Y-102477200D01*
X156762259Y-102477200D01*
X156894588Y-102490233D01*
X156894588Y-102490233D01*
G37*
G36*
X155078800Y-104278800D02*
X153277200Y-104278800D01*
X153277200Y-102477200D01*
X155078800Y-102477200D01*
X155078800Y-104278800D01*
X155078800Y-104278800D01*
G37*
M02*
